<svg id="Capa_1" data-name="Capa 1" xmlns="http://www.w3.org/2000/svg" xmlns:xlink="http://www.w3.org/1999/xlink" viewBox="0 0 38 41"><defs><style>.cls-1{fill:none;}.cls-2{fill:#fff;}.cls-3{clip-path:url(#clip-path);}.cls-4{clip-path:url(#clip-path-2);}</style><clipPath id="clip-path"><rect class="cls-1" x="-129.82" y="-1084.14" width="375.7" height="860.82"/></clipPath><clipPath id="clip-path-2"><rect class="cls-1" x="-1467.7" y="-1086.03" width="2157.99" height="864.69"/></clipPath></defs><path class="cls-2" d="M19,5.56c4.87,0,5.45,0,7.37.11a10.38,10.38,0,0,1,3.39.62,5.71,5.71,0,0,1,2.1,1.37,5.63,5.63,0,0,1,1.37,2.09,10.37,10.37,0,0,1,.63,3.39c.08,1.92.1,2.49.1,7.36s0,5.44-.1,7.36a10.37,10.37,0,0,1-.63,3.39,5.63,5.63,0,0,1-1.37,2.09,5.71,5.71,0,0,1-2.1,1.37,10.11,10.11,0,0,1-3.39.62c-1.92.09-2.5.11-7.37.11s-5.45,0-7.37-.11a10.11,10.11,0,0,1-3.39-.62,5.71,5.71,0,0,1-2.1-1.37,5.63,5.63,0,0,1-1.37-2.09,10.37,10.37,0,0,1-.63-3.39C4.06,25.94,4,25.37,4,20.5s0-5.44.1-7.36a10.37,10.37,0,0,1,.63-3.39A5.63,5.63,0,0,1,6.14,7.66a5.71,5.71,0,0,1,2.1-1.37,10.38,10.38,0,0,1,3.39-.62c1.92-.09,2.5-.11,7.37-.11m0-3.28c-5,0-5.58,0-7.52.11A13.56,13.56,0,0,0,7,3.23,9,9,0,0,0,3.81,5.34a8.91,8.91,0,0,0-2.1,3.22A13.46,13.46,0,0,0,.86,13C.77,14.93.75,15.55.75,20.5s0,5.57.11,7.51a13.46,13.46,0,0,0,.85,4.43,8.91,8.91,0,0,0,2.1,3.22A9,9,0,0,0,7,37.77a13.56,13.56,0,0,0,4.44.84c1.94.09,2.56.11,7.52.11s5.58,0,7.52-.11A13.56,13.56,0,0,0,31,37.77a9.36,9.36,0,0,0,5.33-5.33A13.46,13.46,0,0,0,37.14,28c.09-1.94.11-2.56.11-7.51s0-5.57-.11-7.51a13.46,13.46,0,0,0-.85-4.43A9.36,9.36,0,0,0,31,3.23a13.56,13.56,0,0,0-4.44-.84C24.58,2.3,24,2.28,19,2.28"/><path class="cls-2" d="M19,11.14a9.36,9.36,0,1,0,9.37,9.36A9.36,9.36,0,0,0,19,11.14m0,15.43a6.07,6.07,0,1,1,6.08-6.07A6.08,6.08,0,0,1,19,26.57"/><path class="cls-2" d="M30.93,10.77a2.19,2.19,0,1,1-2.19-2.18,2.19,2.19,0,0,1,2.19,2.18"/><g class="cls-3"><g class="cls-4"><image width="4624" height="2604" transform="translate(-1467.7 -1166.81) scale(0.47)" xlink:href="../20220826_140621.jpg"/></g></g></svg>