<svg id="Capa_1" data-name="Capa 1" xmlns="http://www.w3.org/2000/svg" xmlns:xlink="http://www.w3.org/1999/xlink" viewBox="0 0 38 41"><defs><style>.cls-1{fill:none;}.cls-2{fill:#fff;}.cls-3{clip-path:url(#clip-path);}.cls-4{clip-path:url(#clip-path-2);}</style><clipPath id="clip-path"><rect class="cls-1" x="-187.82" y="-1084.14" width="375.7" height="860.82"/></clipPath><clipPath id="clip-path-2"><rect class="cls-1" x="-1525.7" y="-1086.03" width="2157.99" height="864.69"/></clipPath></defs><rect class="cls-2" x="1.34" y="14.38" width="7.59" height="24.49"/><path class="cls-2" d="M5.1,11.17A4.52,4.52,0,1,0,.62,6.65,4.5,4.5,0,0,0,5.1,11.17Z"/><path class="cls-2" d="M21.07,26c0-3.44,1.59-5.49,4.63-5.49,2.79,0,4.13,2,4.13,5.49V38.86h7.55V23.36c0-6.56-3.72-9.73-8.92-9.73a8.55,8.55,0,0,0-7.39,4v-3.3H13.79V38.86h7.28Z"/><g class="cls-3"><g class="cls-4"><image width="4624" height="2604" transform="translate(-1525.7 -1166.81) scale(0.47)" xlink:href="../20220826_140621.jpg"/></g></g></svg>