<svg id="Capa_1" data-name="Capa 1" xmlns="http://www.w3.org/2000/svg" viewBox="0 0 57.49 68.07"><defs><style>.cls-1{fill:#fff;}</style></defs><path class="cls-1" d="M19.88,61.43a3.43,3.43,0,0,0-.94-.67,3,3,0,0,0-1.25-.28,2.91,2.91,0,0,0-2.9,3,2.88,2.88,0,0,0,2.91,2.94,3.09,3.09,0,0,0,1.35-.33,3.37,3.37,0,0,0,.83-.61v1a3.77,3.77,0,0,1-2.18.7,3.74,3.74,0,1,1,.05-7.47,3.4,3.4,0,0,1,2.13.71Z"/><path class="cls-1" d="M24.2,62.57H25v4.49H24.2v-.63a1.89,1.89,0,0,1-1.54.76,2.37,2.37,0,0,1,0-4.73,1.87,1.87,0,0,1,1.54.74Zm-2.93,2.24a1.51,1.51,0,0,0,1.48,1.69,1.69,1.69,0,0,0,0-3.35A1.5,1.5,0,0,0,21.27,64.81Z"/><path class="cls-1" d="M26.05,62.57h.77v.48a1.27,1.27,0,0,1,1-.59,1.65,1.65,0,0,1,.7.18l-.37.71a.84.84,0,0,0-.46-.16.75.75,0,0,0-.63.29,1.91,1.91,0,0,0-.26,1.21v2.37h-.77Z"/><path class="cls-1" d="M28.85,62.57h.78v.48a1.23,1.23,0,0,1,1-.59,1.64,1.64,0,0,1,.69.18l-.37.71a.82.82,0,0,0-.45-.16.73.73,0,0,0-.63.29,1.91,1.91,0,0,0-.26,1.21v2.37h-.78Z"/><path class="cls-1" d="M32,60.31a.56.56,0,1,1-.55.56A.56.56,0,0,1,32,60.31Zm.39,2.26v4.49h-.78V62.57Z"/><path class="cls-1" d="M37.49,65.91a2.74,2.74,0,0,1-.56.73,2.32,2.32,0,1,1-1.53-4.18,2,2,0,0,1,1.7.82A3,3,0,0,1,37.52,65H34a1.44,1.44,0,0,0,1.43,1.53,1.35,1.35,0,0,0,.92-.33,1.73,1.73,0,0,0,.47-.62Zm-.77-1.59a1.35,1.35,0,0,0-1.32-1.17,1.37,1.37,0,0,0-1.33,1.17Z"/><path class="cls-1" d="M38.31,62.57h.77v.48a1.27,1.27,0,0,1,1-.59,1.65,1.65,0,0,1,.7.18l-.37.71a.84.84,0,0,0-.46-.16.75.75,0,0,0-.63.29,1.91,1.91,0,0,0-.26,1.21v2.37h-.77Z"/><path class="cls-1" d="M42.84,63.61a.69.69,0,0,0-.63-.46.5.5,0,0,0-.54.51c0,.32.22.42.73.64a2.63,2.63,0,0,1,1.12.69,1.05,1.05,0,0,1,.24.73,1.43,1.43,0,0,1-1.55,1.47A1.61,1.61,0,0,1,40.64,66l.67-.28a1,1,0,0,0,.91.74.7.7,0,0,0,.74-.72c0-.42-.3-.56-.73-.75a2.84,2.84,0,0,1-1.09-.66,1,1,0,0,1-.21-.66,1.21,1.21,0,0,1,1.32-1.25,1.29,1.29,0,0,1,1.23.81Z"/><path class="cls-1" d="M28.75,56.76A27.94,27.94,0,1,1,56.69,28.82,28,28,0,0,1,28.75,56.76Zm0-54.53A26.59,26.59,0,1,0,55.33,28.82,26.62,26.62,0,0,0,28.75,2.23Z"/><circle class="cls-1" cx="28.75" cy="39.01" r="2.57"/><path class="cls-1" d="M36.85,35.55A1.48,1.48,0,0,1,35.66,35a9.25,9.25,0,0,0-6.72-3.36c-4.2,0-7.14,3.4-7.17,3.43a1.48,1.48,0,0,1-2.26-1.92c.16-.18,3.87-4.47,9.43-4.47A12.17,12.17,0,0,1,38,33.18a1.48,1.48,0,0,1-1.19,2.37Z"/><path class="cls-1" d="M14.91,28.64a1.43,1.43,0,0,1-1.08-.47,1.47,1.47,0,0,1,.07-2.09,23.85,23.85,0,0,1,15.18-5.74,21.17,21.17,0,0,1,14.58,5.8,1.48,1.48,0,1,1-2.15,2,18.5,18.5,0,0,0-12.43-4.87,21.06,21.06,0,0,0-13.16,4.94A1.49,1.49,0,0,1,14.91,28.64Z"/><path class="cls-1" d="M47.52,22.52A1.47,1.47,0,0,1,46.43,22,25.1,25.1,0,0,0,29.2,15c-10.68,0-18.13,7-18.2,7.1A1.48,1.48,0,1,1,8.94,20,31.27,31.27,0,0,1,29.2,12.05a27.71,27.71,0,0,1,19.42,8,1.49,1.49,0,0,1-.1,2.1A1.46,1.46,0,0,1,47.52,22.52Z"/></svg>