<svg id="Capa_1" data-name="Capa 1" xmlns="http://www.w3.org/2000/svg" viewBox="0 0 197 149"><defs><style>.cls-1{fill:#fff;}</style></defs><path class="cls-1" d="M9.54,57.69H2.23V46.39H22.84V97.68H9.54Z"/><path class="cls-1" d="M68.21,93a20.06,20.06,0,0,1-28.3,0C35.3,88.45,32.3,81.07,32.3,72.07s3-16.46,7.61-21a20,20,0,0,1,28.3,0c4.62,4.53,7.62,11.92,7.62,21S72.83,88.45,68.21,93ZM50,58.77c-2.77,2.38-4.46,8.61-4.46,13.38,0,4.07,1.46,10.76,4.46,13.38a6,6,0,0,0,8.15,0C61,83.07,62.6,76.61,62.6,72.22s-1.77-11.07-4.46-13.45a5.94,5.94,0,0,0-8.15,0Z"/><path class="cls-1" d="M82.9,66.92a11.68,11.68,0,0,1-3.23-8.31,13,13,0,0,1,3.15-8.69c3.23-3.61,7.85-4.07,10.77-4.07,5.54,0,8.84,1.92,10.92,4.07a12.68,12.68,0,0,1-.08,17C101.2,70.3,96.9,71,93.59,71,90.05,71,86.13,70.3,82.9,66.92Zm6.61-12.54A5.89,5.89,0,0,0,90,62.77a5.55,5.55,0,0,0,3.77,1.38,6.28,6.28,0,0,0,4.08-1.61,6,6,0,0,0,1.69-4.16,5.93,5.93,0,0,0-1.85-4.3,5.42,5.42,0,0,0-3.92-1.47A5.83,5.83,0,0,0,89.51,54.38Zm33.53-8h6.69L100,97.68H93.36Zm-4.46,47.83a11.68,11.68,0,0,1-3.23-8.31,13,13,0,0,1,3.15-8.69c3.23-3.61,7.85-4.07,10.77-4.07,5.54,0,8.84,1.92,10.92,4.07a12.68,12.68,0,0,1-.08,17c-3.23,3.38-7.53,4.07-10.84,4.07C125.73,98.29,121.81,97.6,118.58,94.22Zm6.62-12.54a5.89,5.89,0,0,0,.46,8.39,5.53,5.53,0,0,0,3.77,1.38,6.27,6.27,0,0,0,4.07-1.61,6,6,0,0,0,1.69-4.16,5.92,5.92,0,0,0-1.84-4.3,5.44,5.44,0,0,0-3.92-1.47A5.82,5.82,0,0,0,125.2,81.68Z"/><path class="cls-1" d="M159.84,71.34c3.69,0,6.89.4,9.82,2.58a13.05,13.05,0,0,1,5.07,10.65,12.61,12.61,0,0,1-5.3,10.65c-3.09,2.18-6,2.53-9.67,2.53H154.3V71.34ZM158.34,94h1.74a11.46,11.46,0,0,0,7-1.86,9.32,9.32,0,0,0,3.6-7.52A9.42,9.42,0,0,0,167.13,77a11.86,11.86,0,0,0-7-1.82h-1.74Z"/><path class="cls-1" d="M194.37,75.14H183.83v6.69h10.22v3.81H183.83V94h10.54v3.8H179.8V71.34h14.57Z"/><path class="cls-1" d="M16.14,118.39H7.91v4.76h7.82V128H7.91v5.46h8.23v4.79H2.23V113.6H16.14Z"/><path class="cls-1" d="M20.75,138.2V113.6h4.94l13.36,15.86V113.6h5.68v24.6H39.79L26.43,122.27V138.2Z"/><path class="cls-1" d="M62,124.77H74.17V125c0,3-1.07,7.53-3.8,10.37s-5.86,3.36-8.78,3.36-6.12-.48-9-3.44a14,14,0,0,1-.07-18.7c3-3.14,6.75-3.58,9.66-3.58a12.35,12.35,0,0,1,6.9,1.85,13.46,13.46,0,0,1,4,4.39L67.94,122a7.42,7.42,0,0,0-2.18-2.65A6.18,6.18,0,0,0,62,118.21a6.63,6.63,0,0,0-5.09,2A8.41,8.41,0,0,0,54.8,126a7.7,7.7,0,0,0,2.07,5.64,6.46,6.46,0,0,0,5,1.92,6.33,6.33,0,0,0,4.28-1.33,5.7,5.7,0,0,0,1.77-2.91H62Z"/><path class="cls-1" d="M92.1,133.55H82.8l-1.88,4.65H75l9.92-24.6h5.21l9.7,24.6H93.94Zm-1.55-4.35-3-8.26-3.07,8.26Z"/><path class="cls-1" d="M102.61,138.2V113.6h5l13.35,15.86V113.6h5.68v24.6h-4.94L108.3,122.27V138.2Z"/><path class="cls-1" d="M149.76,137.43a11.53,11.53,0,0,1-5.42,1.33,13.19,13.19,0,0,1-9.67-3.58,13.18,13.18,0,0,1,0-18.6,13.08,13.08,0,0,1,9.19-3.54,14.56,14.56,0,0,1,5.9,1.37V121a7.81,7.81,0,0,0-5.75-2.62,6.92,6.92,0,0,0-5,1.92,7.87,7.87,0,0,0-2.33,5.68,7.44,7.44,0,0,0,2.14,5.43,7.52,7.52,0,0,0,5.32,2.06,7.75,7.75,0,0,0,5.64-2.54Z"/><path class="cls-1" d="M160,123h9.81V113.6h5.69v24.6h-5.69V127.76H160V138.2H154.3V113.6H160Z"/><path class="cls-1" d="M194.77,118.39h-8.23v4.76h7.82V128h-7.82v5.46h8.23v4.79H180.86V113.6h13.91Z"/><path class="cls-1" d="M3.43,10.62H8.12a12.47,12.47,0,0,1,8.49,2.7,11.2,11.2,0,0,1,3.94,8.83,11,11,0,0,1-4,8.83c-2.11,1.8-4.31,2.66-8.42,2.66H3.43ZM6,31.22H8.23a9.8,9.8,0,0,0,6.59-2.07,8.79,8.79,0,0,0,3.1-7c0-5.52-3.86-9.11-9.69-9.11H6Z"/><path class="cls-1" d="M37.18,13H27.79v6.83H36.9v2.42H27.79v8.93h9.39v2.42H25.24v-23H37.18Z"/><path class="cls-1" d="M52.15,15.18a5.59,5.59,0,0,0-1.34-1.73,4.19,4.19,0,0,0-2.59-.79c-2.28,0-3.87,1.41-3.87,3.55a2.44,2.44,0,0,0,.87,2,7.33,7.33,0,0,0,2.41,1.44l2.21,1a11.21,11.21,0,0,1,3.56,2.18A5.52,5.52,0,0,1,55.05,27a6.9,6.9,0,0,1-7.28,7.07,6.85,6.85,0,0,1-5-1.86,8.31,8.31,0,0,1-2.14-4.07l2.48-.69a5.44,5.44,0,0,0,1.38,2.93,4.41,4.41,0,0,0,3.32,1.28,4.35,4.35,0,0,0,4.62-4.56,3.43,3.43,0,0,0-1.14-2.69,10,10,0,0,0-2.76-1.58l-2.07-1a10.23,10.23,0,0,1-3.07-1.9,4.78,4.78,0,0,1-1.59-3.76c0-3.55,2.73-5.94,6.45-5.94a6.25,6.25,0,0,1,3.7,1,7,7,0,0,1,2.24,2.55Z"/><path class="cls-1" d="M59.74,10.62h4.7a12.48,12.48,0,0,1,8.49,2.7,11.23,11.23,0,0,1,3.93,8.83,10.93,10.93,0,0,1-4,8.83c-2.1,1.8-4.31,2.66-8.42,2.66H59.74Zm2.56,20.6h2.24a9.79,9.79,0,0,0,6.59-2.07,8.77,8.77,0,0,0,3.11-7c0-5.52-3.87-9.11-9.7-9.11H62.3Z"/><path class="cls-1" d="M93.49,13H84.11v6.83h9.11v2.42H84.11v8.93h9.38v2.42H81.55v-23H93.49Z"/></svg>