<svg id="Capa_1" data-name="Capa 1" xmlns="http://www.w3.org/2000/svg" viewBox="0 0 181 141"><defs><style>.cls-1{fill:#fff;}</style></defs><path class="cls-1" d="M3.34,61.62A18.29,18.29,0,0,1,7.85,51.31C11.2,47.82,15.64,47,19.4,47c5.6,0,9.63,1.71,12,4,1.92,1.85,3.49,4.85,3.49,9.29A9.89,9.89,0,0,1,33,66.54a8.49,8.49,0,0,1-3.41,2.87,11.19,11.19,0,0,1,5.19,3.69,12.78,12.78,0,0,1,2.12,7.17,14.16,14.16,0,0,1-4.58,10.39c-3.9,3.55-8.34,4-12,4-4.45,0-9.3-.68-13.33-4.72a19.21,19.21,0,0,1-5-11.27H12.43a8.73,8.73,0,0,0,2.18,5.13,7.13,7.13,0,0,0,5.06,1.84A6.8,6.8,0,0,0,24.25,84a6.55,6.55,0,0,0,1.84-4.65,5.66,5.66,0,0,0-2-4.37c-1.64-1.3-4-1.43-5.6-1.43h-.82V66.34h.61A7.92,7.92,0,0,0,22.88,65a5.34,5.34,0,0,0,1.71-4.1,5,5,0,0,0-1.5-3.69,5.81,5.81,0,0,0-3.9-1.37,5.76,5.76,0,0,0-4.1,1.51,7.26,7.26,0,0,0-1.64,4.23Z"/><path class="cls-1" d="M72.21,48.09l-12,15A13.68,13.68,0,0,1,65,62.3c5.74,0,9.29,2.33,11.27,4.38a14.58,14.58,0,0,1,4,10.52,18.33,18.33,0,0,1-4.3,12.23c-4.17,4.51-10,5.12-14,5.12s-10.24-.41-14.75-5.33c-3-3.21-4-7-4-11.07,0-7.24,3.42-12.36,7.32-17.49L60.94,46.93ZM67,83.89a7.94,7.94,0,0,0,2.39-6A7.19,7.19,0,0,0,67,72.28a8,8,0,0,0-5.47-1.91,7.56,7.56,0,0,0-5.53,2,7.68,7.68,0,0,0-2.32,5.8A7.32,7.32,0,0,0,56,83.82a8,8,0,0,0,5.53,2.12A7.85,7.85,0,0,0,67,83.89Z"/><path class="cls-1" d="M91.07,93.53l3.25-20.26H98.2l5,12.12,5-12.12h3.89l3.25,20.26h-4.68l-1.61-12.09-5.07,12.09h-1.64L97.35,81.44,95.74,93.53Z"/><path class="cls-1" d="M130.36,77.22h-6.77v3.92H130v4h-6.43v4.49h6.77v4H118.91V73.27h11.45Z"/><path class="cls-1" d="M144.6,78.22a4.94,4.94,0,0,0-3.4-1.45,2.53,2.53,0,0,0-2,.69,1.8,1.8,0,0,0-.52,1.28,1.4,1.4,0,0,0,.46,1.12A8,8,0,0,0,141.72,81l1.51.57A8.16,8.16,0,0,1,146,83.14a5.08,5.08,0,0,1,1.49,3.77,7.25,7.25,0,0,1-1.8,5A7.84,7.84,0,0,1,140,94a8.54,8.54,0,0,1-4-.85,12.86,12.86,0,0,1-3-2.22l2.43-3.33a13,13,0,0,0,1.88,1.54,4.67,4.67,0,0,0,2.55.73,3.23,3.23,0,0,0,2.13-.7,2.1,2.1,0,0,0,.73-1.64,1.79,1.79,0,0,0-.7-1.45,10,10,0,0,0-2.37-1.13L138,84.36a6.89,6.89,0,0,1-2.82-1.61,5,5,0,0,1-1.22-3.53,6.24,6.24,0,0,1,1.76-4.55,6.52,6.52,0,0,1,5-1.85,9.8,9.8,0,0,1,6,2Z"/><path class="cls-1" d="M162.3,77.22h-6.77v3.92H162v4h-6.44v4.49h6.77v4H150.86V73.27H162.3Z"/><path class="cls-1" d="M176.55,78.22a5,5,0,0,0-3.41-1.45,2.56,2.56,0,0,0-2,.69,1.84,1.84,0,0,0-.51,1.28,1.43,1.43,0,0,0,.45,1.12A8.1,8.1,0,0,0,173.66,81l1.52.57a8.21,8.21,0,0,1,2.76,1.55,5,5,0,0,1,1.49,3.77,7.29,7.29,0,0,1-1.79,5A7.85,7.85,0,0,1,171.9,94a8.57,8.57,0,0,1-4-.85,13,13,0,0,1-3-2.22l2.43-3.33a12,12,0,0,0,1.88,1.54,4.67,4.67,0,0,0,2.55.73,3.19,3.19,0,0,0,2.12-.7,2.07,2.07,0,0,0,.73-1.64,1.76,1.76,0,0,0-.7-1.45,10,10,0,0,0-2.36-1.13l-1.67-.57a6.92,6.92,0,0,1-2.83-1.61,5,5,0,0,1-1.21-3.53,6.2,6.2,0,0,1,1.76-4.55,6.52,6.52,0,0,1,5-1.85,9.78,9.78,0,0,1,6,2Z"/><path class="cls-1" d="M3.54,119.82a6.28,6.28,0,0,0,4.09,1.81A2.32,2.32,0,0,0,9.41,121a1.59,1.59,0,0,0,.46-1.12,1.41,1.41,0,0,0-.51-1.07,6.3,6.3,0,0,0-2.29-.93l-1.2-.38a5.82,5.82,0,0,1-2.57-1.44,4.51,4.51,0,0,1-1-3.15,5.79,5.79,0,0,1,1.63-4.29A6.26,6.26,0,0,1,8.48,107,12.52,12.52,0,0,1,14,108.4L12.13,112a4.69,4.69,0,0,0-3-1.2,2.26,2.26,0,0,0-1.52.53,1.34,1.34,0,0,0-.45,1,1.17,1.17,0,0,0,.24.8,2.89,2.89,0,0,0,1.55.8l1.41.43a6.89,6.89,0,0,1,3.23,1.76,4.2,4.2,0,0,1,1.15,3.18A6,6,0,0,1,13,123.74a6.92,6.92,0,0,1-5.26,1.81,9.54,9.54,0,0,1-3.5-.58,12.84,12.84,0,0,1-2.69-1.42Z"/><path class="cls-1" d="M22.22,107.36v17.79H17.6V107.36Z"/><path class="cls-1" d="M26,125.15V107.36h4.61l8.51,10.88V107.36h4.62v17.79H39.07l-8.51-10.88v10.88Z"/><path class="cls-1" d="M58.25,107.36v17.79H53.64V107.36Z"/><path class="cls-1" d="M62,125.15V107.36H66.6l8.51,10.88V107.36h4.62v17.79H75.11L66.6,114.27v10.88Z"/><path class="cls-1" d="M90.18,111.28v13.87H85.56V111.28H81.78v-3.92H94v3.92Z"/><path class="cls-1" d="M106.13,111.28h-5.5v3h5.21v3.92h-5.21v3.07h5.5v3.92H96V107.36h10.11Z"/><path class="cls-1" d="M116.27,107.36a5.72,5.72,0,0,1,4.34,1.57,5.84,5.84,0,0,1,1.53,4,5.14,5.14,0,0,1-1.42,3.71,5,5,0,0,1-2.45,1.23l5.57,7.28h-5.73l-4.43-6.83v6.83h-4.62V107.36Zm-2.59,8h.88a3.43,3.43,0,0,0,2.24-.72,2.18,2.18,0,0,0,.59-1.49,2.1,2.1,0,0,0-.62-1.49,3.1,3.1,0,0,0-2.21-.7h-.88Z"/><path class="cls-1" d="M135.9,111.28h-5.5v3h5.2v3.92h-5.2v3.07h5.5v3.92H125.79V107.36H135.9Z"/><path class="cls-1" d="M140,119.82a6.26,6.26,0,0,0,4.09,1.81,2.32,2.32,0,0,0,1.78-.61,1.59,1.59,0,0,0,.46-1.12,1.41,1.41,0,0,0-.51-1.07,6.3,6.3,0,0,0-2.29-.93l-1.2-.38a5.82,5.82,0,0,1-2.57-1.44,4.51,4.51,0,0,1-1-3.15,5.79,5.79,0,0,1,1.63-4.29,6.26,6.26,0,0,1,4.56-1.68,12.52,12.52,0,0,1,5.5,1.44l-1.85,3.6a4.69,4.69,0,0,0-3-1.2,2.26,2.26,0,0,0-1.52.53,1.34,1.34,0,0,0-.45,1,1.17,1.17,0,0,0,.24.8,2.89,2.89,0,0,0,1.55.8l1.41.43a6.89,6.89,0,0,1,3.23,1.76,4.2,4.2,0,0,1,1.15,3.18,6,6,0,0,1-1.68,4.48,6.92,6.92,0,0,1-5.26,1.81,9.54,9.54,0,0,1-3.5-.58,12.84,12.84,0,0,1-2.69-1.42Z"/><path class="cls-1" d="M164.17,111.28h-5.49v3h5.2v3.92h-5.2v3.07h5.49v3.92H154.06V107.36h10.11Z"/><path class="cls-1" d="M168.28,119.82a6.25,6.25,0,0,0,4.08,1.81,2.37,2.37,0,0,0,1.79-.61,1.63,1.63,0,0,0,.45-1.12,1.37,1.37,0,0,0-.51-1.07,6.22,6.22,0,0,0-2.29-.93l-1.2-.38a5.79,5.79,0,0,1-2.56-1.44,4.48,4.48,0,0,1-1-3.15,5.83,5.83,0,0,1,1.63-4.29,6.26,6.26,0,0,1,4.56-1.68,12.52,12.52,0,0,1,5.5,1.44l-1.84,3.6a4.72,4.72,0,0,0-3-1.2,2.23,2.23,0,0,0-1.52.53,1.32,1.32,0,0,0-.46,1,1.23,1.23,0,0,0,.24.8,3,3,0,0,0,1.55.8l1.41.43a6.85,6.85,0,0,1,3.23,1.76,4.2,4.2,0,0,1,1.15,3.18,6,6,0,0,1-1.68,4.48,6.9,6.9,0,0,1-5.26,1.81A9.49,9.49,0,0,1,169,125a12.57,12.57,0,0,1-2.7-1.42Z"/><path class="cls-1" d="M4.9,24.61H15.24V16.42h2.24V36.58H15.24V26.73H4.9v9.85H2.67V16.42H4.9Z"/><path class="cls-1" d="M33.81,30.9H25.22L22.8,36.58H20.32L29.6,15.45l9,21.13H36.17Zm-.88-2.12-3.39-8.07L26.1,28.78Z"/><path class="cls-1" d="M50.16,20.41A4.79,4.79,0,0,0,49,18.89a3.65,3.65,0,0,0-2.27-.69,3.09,3.09,0,0,0-3.38,3.11,2.14,2.14,0,0,0,.75,1.76,6.84,6.84,0,0,0,2.12,1.27l1.94.84a10,10,0,0,1,3.11,1.91,4.85,4.85,0,0,1,1.45,3.66A6.05,6.05,0,0,1,46.32,37a6,6,0,0,1-4.38-1.64,7.31,7.31,0,0,1-1.88-3.56l2.18-.61a4.69,4.69,0,0,0,1.21,2.57,4.13,4.13,0,0,0,6.95-2.87,3,3,0,0,0-1-2.36A8.88,8.88,0,0,0,47,27.09l-1.82-.85a8.9,8.9,0,0,1-2.69-1.66,4.18,4.18,0,0,1-1.39-3.3c0-3.11,2.39-5.2,5.65-5.2A5.43,5.43,0,0,1,50,17a6.09,6.09,0,0,1,2,2.24Z"/><path class="cls-1" d="M60.5,18.53v18H58.26v-18h-4.9V16.42h12v2.11Z"/><path class="cls-1" d="M78.19,30.9H69.6l-2.42,5.68H64.7L74,15.45l9,21.13H80.55Zm-.88-2.12-3.39-8.07-3.44,8.07Z"/></svg>