<svg id="Capa_1" data-name="Capa 1" xmlns="http://www.w3.org/2000/svg" viewBox="0 0 182 135"><defs><style>.cls-1{fill:#fff;}</style></defs><path class="cls-1" d="M13.26,52.72a8.49,8.49,0,0,1,6.44,2.34A8.64,8.64,0,0,1,22,61a7.62,7.62,0,0,1-2.1,5.5,7.38,7.38,0,0,1-3.64,1.81l8.27,10.8H16L9.42,69V79.1H2.58V52.72ZM9.42,64.55h1.31a5.14,5.14,0,0,0,3.32-1.07,3.28,3.28,0,0,0,.87-2.21A3.11,3.11,0,0,0,14,59.05a4.65,4.65,0,0,0-3.28-1H9.42Z"/><path class="cls-1" d="M42.37,58.54H34.22v4.39h7.71v5.81H34.22v4.55h8.15V79.1h-15V52.72h15Z"/><path class="cls-1" d="M51.42,52.72l6.33,16.06,6.41-16.06h7.43L60.36,79.1H55L44,52.72Z"/><path class="cls-1" d="M81.2,52.72V79.1H74.36V52.72Z"/><path class="cls-1" d="M88.48,71.19a9.21,9.21,0,0,0,6,2.69A3.43,3.43,0,0,0,97.18,73a2.33,2.33,0,0,0,.67-1.66,2,2,0,0,0-.75-1.58,9.63,9.63,0,0,0-3.4-1.39l-1.78-.55a8.64,8.64,0,0,1-3.8-2.14A6.64,6.64,0,0,1,86.62,61,8.67,8.67,0,0,1,89,54.62a9.34,9.34,0,0,1,6.77-2.49,18.56,18.56,0,0,1,8.14,2.13l-2.73,5.34a6.94,6.94,0,0,0-4.5-1.78,3.26,3.26,0,0,0-2.26.8A2,2,0,0,0,93.78,60a1.77,1.77,0,0,0,.36,1.19,4.31,4.31,0,0,0,2.29,1.18l2.1.63a10.12,10.12,0,0,1,4.78,2.61,6.22,6.22,0,0,1,1.7,4.71A8.91,8.91,0,0,1,102.52,77c-2.25,2.26-5,2.69-7.79,2.69a13.94,13.94,0,0,1-5.18-.87,18,18,0,0,1-4-2.09Z"/><path class="cls-1" d="M116.16,52.72V79.1h-6.84V52.72Z"/><path class="cls-1" d="M145.47,75.78a15.79,15.79,0,0,1-20.8,0,13.81,13.81,0,0,1,0-19.74,15.79,15.79,0,0,1,20.8,0,13.81,13.81,0,0,1,0,19.74ZM129.73,60.87a7.24,7.24,0,0,0-2.1,5.18,6.7,6.7,0,0,0,2.1,4.9,7.49,7.49,0,0,0,5.34,2.1,7.16,7.16,0,0,0,7.43-7.12,7.15,7.15,0,0,0-2.13-5.06,7.93,7.93,0,0,0-5.3-2.1A7.61,7.61,0,0,0,129.73,60.87ZM141.2,45.25l-6.09,5.38-2.93-2.18,5-6.09Z"/><path class="cls-1" d="M154,79.1V52.72h6.85l12.61,16.14V52.72h6.84V79.1h-6.84L160.82,63V79.1Z"/><path class="cls-1" d="M11.44,92.89c3.9,0,8,.57,11.65,4.07A15.45,15.45,0,0,1,23.31,118a15.93,15.93,0,0,1-11.65,4.43H2.09V92.89ZM8.91,116.68h1.82c1.42,0,4.52-.13,6.73-2a9.23,9.23,0,0,0,2.88-7.14,8.77,8.77,0,0,0-2.43-6.38,9.79,9.79,0,0,0-7.18-2.52H8.91Z"/><path class="cls-1" d="M49.14,98.65H39.26v5.71h9.39v5.77H39.26v6.55h9.88v5.76H32.44V92.89h16.7Z"/><path class="cls-1" d="M74,92.89c1.59,0,5.23.09,7.53,2.26a7.6,7.6,0,0,1,2.13,5.58,7,7,0,0,1-1,3.77,5.39,5.39,0,0,1-2.48,2.17,7.7,7.7,0,0,1,4.08,2,7.25,7.25,0,0,1,1.9,5.28,8.12,8.12,0,0,1-2.3,6c-2.44,2.35-6,2.52-7.8,2.52H65V92.89Zm-2.31,12h1.11a6.36,6.36,0,0,0,3.46-.85,3.12,3.12,0,0,0,1.2-2.61A3,3,0,0,0,76.34,99a5.67,5.67,0,0,0-3.54-.75H71.73Zm0,12.23h1.65c1.72,0,3.81,0,5.05-1.2a3.27,3.27,0,0,0,1-2.48,3.16,3.16,0,0,0-.93-2.39C77.27,110,75,110,73.6,110H71.73Z"/><path class="cls-1" d="M116.31,110.39c0,2.84-.36,6.34-3.28,9.35s-6.12,3.37-9.22,3.37-6.38-.45-9.21-3.37-3.28-6.51-3.28-9.35V92.89h6.82v17.32a7,7,0,0,0,1.55,5,6.25,6.25,0,0,0,8.24,0c1.47-1.51,1.55-3.68,1.55-5V92.89h6.83Z"/><path class="cls-1" d="M133.14,92.89c3.77,0,6.12,1.24,7.54,2.57a8.89,8.89,0,0,1,2.57,6.6,8.08,8.08,0,0,1-2.31,6,9.36,9.36,0,0,1-4.12,2.26l9.08,12.09h-8.33l-8-11.65v11.65h-6.83V92.89Zm-3.54,13.42h1.55a5.64,5.64,0,0,0,4.08-1.28,4,4,0,0,0,1.1-2.88,3.57,3.57,0,0,0-1.37-3,6.61,6.61,0,0,0-3.77-.93H129.6Z"/><path class="cls-1" d="M175.85,96.52a15.72,15.72,0,0,1,0,22.24,15.75,15.75,0,0,1-11.43,4.35,16.26,16.26,0,0,1-11.52-4.35,15.08,15.08,0,0,1-4.61-11,16.47,16.47,0,0,1,4.57-11.21c2-2,5.67-4.35,11.56-4.35A15.77,15.77,0,0,1,175.85,96.52ZM157.91,101a9,9,0,0,0-2.62,6.69,8.82,8.82,0,0,0,2.71,6.65,8.67,8.67,0,0,0,6.33,2.44,8.74,8.74,0,0,0,9.13-9.13,9.32,9.32,0,0,0-2.57-6.65,9.46,9.46,0,0,0-6.51-2.52A9.08,9.08,0,0,0,157.91,101ZM171,84.65l-7.26,5.71L160.88,88l5.93-6.55Z"/><path class="cls-1" d="M17.11,18.92a5.49,5.49,0,0,0-4.59-2.4c-2.95,0-3.87,1.85-3.87,3.28a2.37,2.37,0,0,0,.88,1.9,9.81,9.81,0,0,0,3.37,1.6,16.24,16.24,0,0,1,5.68,2.81A7.66,7.66,0,0,1,21,32c0,5.46-4,9.21-9.76,9.21a11.56,11.56,0,0,1-9.68-5.3l3.57-3.41A6.59,6.59,0,0,0,11,36.25c2.49,0,4.34-1.51,4.34-3.87a3.24,3.24,0,0,0-1.1-2.52A12.36,12.36,0,0,0,9.91,27.8a13.65,13.65,0,0,1-4.67-2.44A6.53,6.53,0,0,1,3,20.14c0-4.12,2.78-8.25,9-8.25a10.82,10.82,0,0,1,8,3.28Z"/><path class="cls-1" d="M31.24,12.52V40.59H25.77V12.52Z"/><path class="cls-1" d="M37.64,40.59V12.52h3.78L58.51,31.25V12.52H64V40.59H60.19L43.11,21.82V40.59Z"/></svg>