<svg id="Capa_1" data-name="Capa 1" xmlns="http://www.w3.org/2000/svg" viewBox="0 0 212 130"><defs><style>.cls-1{fill:#fff;}</style></defs><path class="cls-1" d="M8.74,49.71H2V40.43H19.74V88.06h-11Z"/><path class="cls-1" d="M64,84.21a17.74,17.74,0,0,1-12.78,4.92A17.43,17.43,0,0,1,38.6,84.21C34,79.64,31.74,72.42,31.74,64.28s2.21-15.49,6.86-20a17.4,17.4,0,0,1,12.64-4.93A17.7,17.7,0,0,1,64,44.29c4.64,4.5,6.86,11.78,6.86,20S68.66,79.64,64,84.21ZM46.88,50.57c-3.5,3.43-4,10.28-4,13.64,0,3.71.64,10.43,4,13.71a6.38,6.38,0,0,0,8.86,0c3.35-3.28,4-10,4-13.71,0-3.36-.51-10.21-4-13.64a6.4,6.4,0,0,0-8.86,0Z"/><path class="cls-1" d="M14.89,115.59a10.58,10.58,0,0,1-3.82.84,9.2,9.2,0,0,1-6.56-2.55,8.91,8.91,0,0,1-2.57-6.18,9.13,9.13,0,0,1,2.57-6.26,9,9,0,0,1,6.41-2.64,10.62,10.62,0,0,1,4,.86v5.27a4.71,4.71,0,0,0-3.84-1.86A4.28,4.28,0,0,0,8,104.19a4.72,4.72,0,0,0-1.48,3.48A4.64,4.64,0,0,0,7.9,111a4.69,4.69,0,0,0,3.15,1.17,5,5,0,0,0,3.84-1.78Z"/><path class="cls-1" d="M24.56,99.08a5.45,5.45,0,0,1,4.14,1.5,5.57,5.57,0,0,1,1.45,3.81,4.9,4.9,0,0,1-1.35,3.54,4.69,4.69,0,0,1-2.34,1.17L31.78,116H26.31l-4.22-6.51V116h-4.4v-17Zm-2.47,7.6h.84a3.27,3.27,0,0,0,2.13-.68,2.12,2.12,0,0,0,.56-1.43,2,2,0,0,0-.58-1.42,3,3,0,0,0-2.11-.66h-.84Z"/><path class="cls-1" d="M43.28,102.82H38v2.82h5v3.74H38v2.92h5.24V116H33.64v-17h9.64Zm-1.53-8.55-3.92,3.46L36,96.33l3.23-3.92Z"/><path class="cls-1" d="M46.07,116v-17h5.78a9.48,9.48,0,0,1,6.74,2.34A8.29,8.29,0,0,1,61,107.6a7.81,7.81,0,0,1-2.21,5.88A9.24,9.24,0,0,1,52.23,116Zm4.41-3.74h.89a5.07,5.07,0,0,0,3.71-1.22,4.6,4.6,0,0,0,1.3-3.48,5,5,0,0,0-1.33-3.71,4.92,4.92,0,0,0-3.51-1.07H50.48Z"/><path class="cls-1" d="M68.15,99.08v17h-4.4v-17Z"/><path class="cls-1" d="M78.12,102.82V116h-4.4V102.82H70.11V99.08H81.73v3.74Z"/><path class="cls-1" d="M99,113.91a10.14,10.14,0,0,1-13.38,0,8.89,8.89,0,0,1,0-12.7,10.17,10.17,0,0,1,13.38,0,8.89,8.89,0,0,1,0,12.7Zm-10.12-9.59a4.62,4.62,0,0,0-1.35,3.33,4.29,4.29,0,0,0,1.35,3.15,4.8,4.8,0,0,0,3.43,1.35,4.6,4.6,0,0,0,4.78-4.58,4.55,4.55,0,0,0-1.37-3.25A5.08,5.08,0,0,0,92.29,103,4.85,4.85,0,0,0,88.86,104.32Z"/><path class="cls-1" d="M110.38,116v-17h5.77a9.48,9.48,0,0,1,6.74,2.34,8.31,8.31,0,0,1,2.37,6.18,7.82,7.82,0,0,1-2.22,5.88,9.24,9.24,0,0,1-6.51,2.56Zm4.4-3.74h.89a5.07,5.07,0,0,0,3.71-1.22,4.6,4.6,0,0,0,1.3-3.48,5,5,0,0,0-1.33-3.71,4.92,4.92,0,0,0-3.51-1.07h-1.06Z"/><path class="cls-1" d="M132.45,99.08v17h-4.4v-17Z"/><path class="cls-1" d="M142.88,99.08a5.49,5.49,0,0,1,4.15,1.5,5.61,5.61,0,0,1,1.45,3.81,4.9,4.9,0,0,1-1.35,3.54,4.69,4.69,0,0,1-2.34,1.17l5.32,6.94h-5.47l-4.23-6.51V116H136v-17Zm-2.47,7.6h.84a3.3,3.3,0,0,0,2.14-.68,2.12,2.12,0,0,0,.56-1.43,2,2,0,0,0-.59-1.42,3,3,0,0,0-2.11-.66h-.84Z"/><path class="cls-1" d="M161.6,102.82h-5.24v2.82h5v3.74h-5v2.92h5.24V116H152v-17h9.64Z"/><path class="cls-1" d="M176.58,115.59a10.58,10.58,0,0,1-3.81.84,9.2,9.2,0,0,1-6.56-2.55,8.87,8.87,0,0,1-2.57-6.18,8.89,8.89,0,0,1,9-8.9,10.62,10.62,0,0,1,4,.86v5.27a4.71,4.71,0,0,0-3.84-1.86,4.29,4.29,0,0,0-3.05,1.12,4.75,4.75,0,0,0-1.47,3.48,4.67,4.67,0,0,0,1.37,3.31,4.73,4.73,0,0,0,3.15,1.17,5,5,0,0,0,3.84-1.78Z"/><path class="cls-1" d="M186.43,102.82V116H182V102.82h-3.62V99.08H190v3.74Z"/><path class="cls-1" d="M207.28,113.91a10.13,10.13,0,0,1-13.37,0,8.86,8.86,0,0,1,0-12.7,10.16,10.16,0,0,1,13.37,0,8.86,8.86,0,0,1,0,12.7Zm-10.12-9.59a4.66,4.66,0,0,0-1.35,3.33,4.33,4.33,0,0,0,1.35,3.15,4.82,4.82,0,0,0,3.43,1.35,4.61,4.61,0,0,0,4.79-4.58,4.56,4.56,0,0,0-1.38-3.25,5.07,5.07,0,0,0-3.41-1.35A4.87,4.87,0,0,0,197.16,104.32Z"/><path class="cls-1" d="M4.24,21.87h9.37V14.45h2V32.72h-2V23.79H4.24v8.93h-2V14.45h2Z"/><path class="cls-1" d="M30.43,27.57H22.65l-2.19,5.15H18.21l8.41-19.15,8.19,19.15H32.56Zm-.8-1.92-3.07-7.31-3.12,7.31Z"/><path class="cls-1" d="M45.25,18.07a4.29,4.29,0,0,0-1.07-1.37,3.28,3.28,0,0,0-2.06-.63,2.8,2.8,0,0,0-3.06,2.82,1.93,1.93,0,0,0,.68,1.59,6.06,6.06,0,0,0,1.92,1.15l1.75.76a8.81,8.81,0,0,1,2.82,1.73,4.4,4.4,0,0,1,1.32,3.31,5.49,5.49,0,0,1-5.78,5.62,5.45,5.45,0,0,1-4-1.48,6.55,6.55,0,0,1-1.7-3.23l2-.55a4.28,4.28,0,0,0,1.1,2.33,3.74,3.74,0,0,0,6.3-2.6,2.73,2.73,0,0,0-.91-2.14,8.06,8.06,0,0,0-2.19-1.26l-1.64-.77a8.06,8.06,0,0,1-2.44-1.5,3.79,3.79,0,0,1-1.26-3c0-2.82,2.16-4.71,5.12-4.71a5,5,0,0,1,2.93.82,5.45,5.45,0,0,1,1.78,2Z"/><path class="cls-1" d="M54.61,16.37V32.72h-2V16.37H48.15V14.45h10.9v1.92Z"/><path class="cls-1" d="M70.64,27.57H62.86l-2.19,5.15H58.42l8.41-19.15L75,32.72H72.78Zm-.79-1.92-3.07-7.31-3.13,7.31Z"/><path class="cls-1" d="M92.5,84.53H84.27L82.6,88.64H77.37l8.79-21.79h4.61l8.59,21.79H94.13Zm-1.37-3.86-2.68-7.32-2.71,7.32Z"/><path class="cls-1" d="M101.81,88.64V66.85h4.38L118,80.9V66.85h5V88.64h-4.37L106.85,74.53V88.64ZM118.71,62a7.4,7.4,0,0,1-1.37,1.89,3.09,3.09,0,0,1-2.32,1,5.24,5.24,0,0,1-2-.53l-1.34-.52a4.1,4.1,0,0,0-1.21-.36c-.46,0-1.08.2-1.5,1.28l-2.32-1.64a8.9,8.9,0,0,1,1.21-1.93,3.15,3.15,0,0,1,2.38-1,4.76,4.76,0,0,1,2,.46l1.31.52a3.84,3.84,0,0,0,1.34.4,1.71,1.71,0,0,0,1.57-1.25Z"/><path class="cls-1" d="M147.14,69.53a11.59,11.59,0,0,1,0,16.4,11.64,11.64,0,0,1-8.43,3.2,12,12,0,0,1-8.5-3.2,11.13,11.13,0,0,1-3.4-8.1,12.17,12.17,0,0,1,3.37-8.27,12.88,12.88,0,0,1,17,0ZM133.9,72.86A6.73,6.73,0,0,0,132,77.8a6.51,6.51,0,0,0,2,4.9,6.4,6.4,0,0,0,4.67,1.8,6.61,6.61,0,0,0,4.84-1.87,6.51,6.51,0,0,0,1.89-4.87,6.87,6.87,0,0,0-1.89-4.9A7,7,0,0,0,138.67,71,6.73,6.73,0,0,0,133.9,72.86Z"/><path class="cls-1" d="M165.54,72.18a5.33,5.33,0,0,0-3.66-1.57,2.75,2.75,0,0,0-2.13.75,2,2,0,0,0-.55,1.37,1.52,1.52,0,0,0,.49,1.21,8.57,8.57,0,0,0,2.74,1.24l1.64.62a8.77,8.77,0,0,1,3,1.67,5.45,5.45,0,0,1,1.6,4,7.76,7.76,0,0,1-1.93,5.39c-1.92,2-4.74,2.22-6.17,2.22a9.23,9.23,0,0,1-4.32-.91,14,14,0,0,1-3.2-2.39l2.62-3.59a12.77,12.77,0,0,0,2,1.67,5.08,5.08,0,0,0,2.75.78,3.47,3.47,0,0,0,2.28-.75,2.25,2.25,0,0,0,.79-1.77,1.93,1.93,0,0,0-.75-1.56,10.76,10.76,0,0,0-2.55-1.21l-1.8-.62a7.33,7.33,0,0,1-3-1.74A5.36,5.36,0,0,1,154,73.25a6.7,6.7,0,0,1,1.9-4.9,7,7,0,0,1,5.39-2,10.52,10.52,0,0,1,6.47,2.16Z"/><path class="cls-1" d="M183.61,68.43c2.82,0,5.28.31,7.52,2A10,10,0,0,1,195,78.56,9.65,9.65,0,0,1,191,86.72c-2.37,1.67-4.58,2-7.4,2h-4.19V68.43Zm-1.15,17.32h1.33a8.78,8.78,0,0,0,5.37-1.42,7.49,7.49,0,0,0,0-11.59,9.08,9.08,0,0,0-5.4-1.39h-1.33Z"/><path class="cls-1" d="M210.06,71.35H202v5.12h7.82v2.91H202v6.37h8.07v2.92H198.89V68.43h11.17Z"/></svg>