<svg id="Capa_1" data-name="Capa 1" xmlns="http://www.w3.org/2000/svg" xmlns:xlink="http://www.w3.org/1999/xlink" viewBox="0 0 77 25"><defs><style>.cls-1{fill:none;}.cls-2{fill:#002856;}.cls-3{clip-path:url(#clip-path);}.cls-4{fill:#1f49b6;opacity:0.58;}</style><clipPath id="clip-path"><rect class="cls-1" x="380.13" y="-231.35" width="379.55" height="685.55"/></clipPath></defs><polygon class="cls-2" points="25.04 7.48 21.1 17.53 18.29 24.71 14.65 24.71 12.49 17.53 9.46 7.48 8.89 5.59 8.16 7.48 4.26 17.53 0.63 17.53 4.52 7.48 7.3 0.3 7.3 0.29 10.94 0.29 13.1 7.48 16.13 17.53 16.7 19.46 17.46 17.53 21.4 7.48 25.04 7.48"/><path class="cls-2" d="M42.47,7.48h6.07v1.6h-4v2.57h3.06v1.58H44.55V15.9H49v1.64h-6.5Z"/><path class="cls-2" d="M52.49,9.08H49.64V7.48h7.78v1.6H54.58v8.46H52.49Z"/><path class="cls-2" d="M58.85,7.48h6.07v1.6h-4v2.57H64v1.58H60.93V15.9h4.41v1.64H58.85Z"/><path class="cls-2" d="M66.47,12.49a5.68,5.68,0,0,1,.38-2.12,4.49,4.49,0,0,1,1-1.58,4.75,4.75,0,0,1,3.46-1.31,8.77,8.77,0,0,1,2.22.27l.49.12-.3,1.83A4.73,4.73,0,0,0,73,9.34a4.65,4.65,0,0,0-1.4-.21,3.19,3.19,0,0,0-1.26.22,2.64,2.64,0,0,0-.91.64,3.45,3.45,0,0,0-.82,2.42,3.87,3.87,0,0,0,.79,2.53,2.78,2.78,0,0,0,2.23,1,4.87,4.87,0,0,0,1.93-.42,2.56,2.56,0,0,0,.38-.2V17a7,7,0,0,1-1.5.45,7.57,7.57,0,0,1-1,.07,4.85,4.85,0,0,1-3.63-1.38A5,5,0,0,1,66.47,12.49Z"/><path class="cls-2" d="M31.76,7.48H34L35.85,13l.53,1.91L36.91,13l1.76-5.49h2.22L37.23,17.54H35.46Z"/><path class="cls-2" d="M32.94,17.54H30.71l-1.86-5.48-.53-1.91-.53,1.91L26,17.54H23.81L27.47,7.48h1.77Z"/><path class="cls-2" d="M75.41,16a.48.48,0,0,1,.3.09.35.35,0,0,1,.12.27.32.32,0,0,1-.14.28l-.13.05.37.51h-.29l-.32-.48h0v.48h-.23V16Zm-.12.55h.07s.23,0,.23-.18-.18-.18-.23-.18h-.07Z"/><path class="cls-2" d="M75.44,17.54a.94.94,0,1,1,.93-.93A.94.94,0,0,1,75.44,17.54Zm0-1.72a.79.79,0,1,0,.78.79A.79.79,0,0,0,75.44,15.82Z"/><g class="cls-3"><image width="11520" height="6480" transform="translate(40.84 -232.2) scale(0.11)" xlink:href="../4%20NVT_01.jpg"/><rect class="cls-4" x="40.84" y="-232.2" width="1222.44" height="687.62"/></g></svg>