<svg id="Capa_1" data-name="Capa 1" xmlns="http://www.w3.org/2000/svg" xmlns:xlink="http://www.w3.org/1999/xlink" viewBox="0 0 1920 985"><defs><style>.cls-1{fill:none;}.cls-2{fill:#1f49b6;opacity:0.58;}.cls-3{clip-path:url(#clip-path);}</style><clipPath id="clip-path"><path id="SVGID" class="cls-1" d="M108.68,1600.49c-5.71,4.16-14.72,9-32.39,9-18,0-31.18-5.37-42.44-16.46a61,61,0,0,1-18.19-44,61.66,61.66,0,0,1,17.5-43c9.87-9.88,25.29-17.32,45.21-17.32,17.84,0,33.78,6.41,44.69,16.63,10.57,9.87,18,24.94,18,44a53.07,53.07,0,0,1-4.85,22.34A43.17,43.17,0,0,1,125,1587.32l20.09,21.83-25.12,3.12ZM107,1569.83a32.9,32.9,0,0,0,6.76-20.79c0-12.3-5-20.61-9.88-25.47-6.58-6.75-15.93-10.22-25.46-10.22a35.43,35.43,0,0,0-25.29,10.22c-6.59,6.76-10,17-10,26a36.26,36.26,0,0,0,9.7,25.12c5.72,5.89,13.69,10.22,25,10.22a32.11,32.11,0,0,0,13.85-3l-20.78-20.44,25.81-2.77Zm152.61-10c0,11.09-1.38,24.77-12.81,36.55-11.09,11.43-23.91,13.17-36,13.17s-24.94-1.74-36-13.17c-11.43-11.78-12.82-25.46-12.82-36.55v-68.43h26.68v67.74c0,5,.35,13.51,6.06,19.4,4.68,5,11.09,6.06,16.11,6.06s11.44-1,16.12-6.06c5.71-5.89,6.06-14.38,6.06-19.4v-67.74h26.67Zm90.6-45.91H311.53v22.35h36.73v22.52H311.53v25.64h38.63v22.52h-65.3V1491.35h65.3Zm62.19-22.52c14.73,0,23.91,4.85,29.45,10.05,4.85,4.68,10.05,13,10.05,25.81,0,7.28-1.56,16.29-9,23.56a36.36,36.36,0,0,1-16.11,8.84l35.51,47.29H429.68l-31.18-45.56v45.56H371.82V1491.35Zm-13.85,52.49h6.06c4.85,0,11.43-.52,15.94-5a15.58,15.58,0,0,0,4.33-11.26c0-6.58-3.12-10-5.37-11.78-4.33-3.29-11.26-3.64-14.73-3.64H398.5Zm143.78-30H503.65v22.35h36.72v22.52H503.65v25.64h38.63v22.52H477V1491.35h65.31Zm-5.2-54.74-28.41,22.35-11.26-9.18,23.21-25.64Zm67.39,54.74v93H577.79v-93H552.67v-22.52h76.92v22.52Zm99.78,71.2H660.6l-8.84,21.83H624l46.6-115.55h24.43l45.56,115.55H712.91ZM697,1564.63l-14.2-38.8-14.38,38.8Zm97.18-73.28c14.73,0,23.91,4.85,29.45,10.05,4.85,4.68,10,13,10,25.81,0,7.28-1.56,16.29-9,23.56a36.36,36.36,0,0,1-16.11,8.84L844,1606.9H811.48l-31.18-45.56v45.56H753.62V1491.35Zm-13.85,52.49h6.06c4.85,0,11.43-.52,15.94-5a15.58,15.58,0,0,0,4.33-11.26c0-6.58-3.12-10-5.37-11.78-4.33-3.29-11.26-3.64-14.73-3.64H780.3Zm180.85-38.28c10.91,10.57,18,25.81,18,43.65a59.75,59.75,0,0,1-18,43.31c-10.74,10.39-25.3,17-44.7,17-21.65,0-36.37-8.67-45-17-11.08-10.39-18-26-18-43,0-16.63,7.45-33.43,17.84-43.83,7.8-7.79,22.17-17,45.21-17C934.47,1488.76,949.54,1494.3,961.15,1505.56ZM891,1523.23c-5,4.85-10.22,13.34-10.22,26.16,0,10.56,3.46,19,10.57,26,7.44,7.1,15.76,9.53,24.77,9.53,11.78,0,20.09-4.33,25.63-9.88,4.51-4.33,10-12.47,10-25.81,0-12-4.85-20.78-10-26a37,37,0,0,0-25.46-9.88C906.23,1513.35,897.23,1517,891,1523.23Z"/></clipPath></defs><image width="11520" height="6480" transform="translate(-2.67 -1) scale(0.17)" xlink:href="../4%20NVT_01.jpg"/><rect class="cls-2" x="-2.67" y="-1" width="1925.35" height="1083.01"/><g class="cls-3"><image width="4801" height="5653" transform="translate(4.52 512.57) scale(0.2)" xlink:href="../iglesia-santa-rosa-viterbo-queretaro-mexico.jpg"/></g></svg>