<svg id="Capa_1" data-name="Capa 1" xmlns="http://www.w3.org/2000/svg" viewBox="0 0 415 39.08"><defs><style>.cls-1{isolation:isolate;}.cls-2{fill:none;stroke:#707070;stroke-miterlimit:10;}.cls-3{fill:#002856;}</style></defs><g id="INVIERTE_EN_QUERÉTARO-2" data-name="INVIERTE EN QUERÉTARO-2" class="cls-1"><g id="INVIERTE_EN_QUERÉTARO-2-2" data-name="INVIERTE EN QUERÉTARO-2" class="cls-1"><g class="cls-1"><path class="cls-2" d="M11.3,1.42v34H4.67v-34Z"/><path class="cls-2" d="M32.67,35.43v-34h4.59L58,24.11V1.42h6.63v34H60L39.29,12.69V35.43Z"/><path class="cls-2" d="M89.43,1.42l9.08,22.84,9.07-22.84h7.24l-14.38,34h-4l-14.28-34Z"/><path class="cls-2" d="M139.05,1.42v34h-6.63v-34Z"/><path class="cls-2" d="M179.29,7.13H167.05v7.6h11.73v5.71H167.05v9.28h12.24v5.71H160.42v-34h18.87Z"/><path class="cls-2" d="M209.17,1.42c4.7,0,7.09,1.22,8.67,2.55a9.67,9.67,0,0,1,3.37,7.65,9.15,9.15,0,0,1-7.7,9.48l10.61,14.33h-8.27l-9.07-13.66H206V35.43h-6.63v-34ZM206,17.07h1.89c1.27,0,6.53-.15,6.53-5.15s-5.21-5.1-6.43-5.1h-2Z"/><path class="cls-2" d="M252.93,7.13v28.3H246.3V7.13h-7.65V1.42h21.93V7.13Z"/><path class="cls-2" d="M297.25,7.13H285v7.6h11.73v5.71H285v9.28h12.24v5.71H278.38v-34h18.87Z"/><path class="cls-2" d="M361.66,7.13H349.42v7.6h11.73v5.71H349.42v9.28h12.24v5.71H342.79v-34h18.87Z"/><path class="cls-2" d="M381.71,35.43v-34h4.58L407,24.11V1.42h6.63v34H409L388.33,12.69V35.43Z"/></g></g><g class="cls-1"><path class="cls-3" d="M8,4.39v34H1.37v-34Z"/><path class="cls-3" d="M29.37,38.4v-34H34L54.67,27.08V4.39h6.62v34H56.71L36,15.66V38.4Z"/><path class="cls-3" d="M86.13,4.39l9.08,22.84,9.08-22.84h7.24l-14.38,34h-4l-14.28-34Z"/><path class="cls-3" d="M135.76,4.39v34h-6.63v-34Z"/><path class="cls-3" d="M176,10.1H163.76v7.6h11.72v5.71H163.76v9.28H176V38.4H157.13v-34H176Z"/><path class="cls-3" d="M205.88,4.39c4.69,0,7.09,1.22,8.67,2.55a9.67,9.67,0,0,1,3.37,7.65,9.28,9.28,0,0,1-4,8,9.38,9.38,0,0,1-3.72,1.48l10.6,14.33h-8.26l-9.08-13.67h-.81V38.4H196v-34ZM202.67,20h1.89c1.27,0,6.52-.15,6.52-5.15s-5.2-5.1-6.42-5.1h-2Z"/><path class="cls-3" d="M249.64,10.1V38.4H243V10.1h-7.65V4.39h21.93V10.1Z"/><path class="cls-3" d="M294,10.1H281.72v7.6h11.73v5.71H281.72v9.28H294V38.4H275.09v-34H294Z"/><path class="cls-3" d="M358.37,10.1H346.13v7.6h11.73v5.71H346.13v9.28h12.24V38.4H339.5v-34h18.87Z"/><path class="cls-3" d="M378.41,38.4v-34H383l20.71,22.69V4.39h6.63v34h-4.59L385,15.66V38.4Z"/></g></g></svg>