<svg id="Capa_1" data-name="Capa 1" xmlns="http://www.w3.org/2000/svg" xmlns:xlink="http://www.w3.org/1999/xlink" viewBox="0 0 978.44 173.4"><defs><style>.cls-1,.cls-2{fill:none;}.cls-2{stroke:#002856;stroke-miterlimit:10;stroke-width:1.1px;}.cls-3{clip-path:url(#clip-path);}</style><clipPath id="clip-path"><path id="SVGID" class="cls-1" d="M94.21,161.34c-5.71,4.16-14.72,9-32.39,9-18,0-31.18-5.37-42.44-16.45a61,61,0,0,1-18.19-44,61.67,61.67,0,0,1,17.5-43C28.56,57.06,44,49.61,63.9,49.61c17.84,0,33.78,6.41,44.69,16.63,10.57,9.88,18,25,18,44a53.12,53.12,0,0,1-4.85,22.35,43.34,43.34,0,0,1-11.26,15.59L130.59,170l-25.12,3.11Zm-1.73-30.66a32.87,32.87,0,0,0,6.76-20.78c0-12.3-5-20.62-9.88-25.47C82.78,77.68,73.43,74.21,63.9,74.21A35.39,35.39,0,0,0,38.61,84.43c-6.58,6.76-10,17-10,26a36.22,36.22,0,0,0,9.7,25.11c5.72,5.89,13.69,10.22,25,10.22a32.1,32.1,0,0,0,13.85-2.94L56.28,122.37l25.81-2.77Zm152.62-10c0,11.08-1.39,24.77-12.82,36.55-11.09,11.43-23.91,13.16-36,13.16s-24.95-1.73-36-13.16c-11.43-11.78-12.81-25.47-12.81-36.55V52.21h26.67v67.73c0,5,.35,13.51,6.07,19.4,4.67,5,11.08,6.07,16.11,6.07s11.43-1,16.11-6.07c5.71-5.89,6.06-14.37,6.06-19.4V52.21H245.1Zm90.6-45.91H297.07V97.08h36.72V119.6H297.07v25.63H335.7v22.52H270.39V52.21H335.7Zm62.19-22.52c14.72,0,23.9,4.85,29.45,10,4.85,4.67,10,13,10,25.81,0,7.27-1.56,16.28-9,23.56a36.34,36.34,0,0,1-16.11,8.83l35.52,47.29H415.21L384,122.19v45.56H357.35V52.21ZM384,104.7h6.06c4.85,0,11.43-.52,15.94-5a15.56,15.56,0,0,0,4.33-11.26c0-6.58-3.12-10-5.37-11.77-4.33-3.3-11.26-3.64-14.73-3.64H384Zm143.78-30H489.18V97.08H525.9V119.6H489.18v25.63h38.63v22.52H462.5V52.21h65.31ZM522.61,20,494.2,42.34l-11.26-9.18L506.16,7.52ZM590,74.73v93H563.32v-93H538.2V52.21h76.92V74.73Zm99.78,71.2H646.13l-8.84,21.82H609.58L656.17,52.21H680.6l45.56,115.54H698.44Zm-7.28-20.44L668.3,86.68l-14.38,38.81Zm97.19-73.28c14.72,0,23.9,4.85,29.44,10,4.85,4.67,10,13,10,25.81,0,7.27-1.56,16.28-9,23.56a36.34,36.34,0,0,1-16.11,8.83l35.51,47.29H797l-31.18-45.56v45.56H739.15V52.21ZM765.83,104.7h6.06c4.85,0,11.43-.52,15.94-5a15.56,15.56,0,0,0,4.33-11.26c0-6.58-3.12-10-5.37-11.77-4.33-3.3-11.26-3.64-14.73-3.64h-6.23ZM946.68,66.41c10.91,10.57,18,25.82,18,43.66a59.75,59.75,0,0,1-18,43.31c-10.74,10.39-25.29,17-44.69,17-21.66,0-36.38-8.66-45-17-11.09-10.4-18-26-18-43,0-16.63,7.45-33.44,17.84-43.83,7.8-7.8,22.18-17,45.22-17C920,49.61,935.07,55.16,946.68,66.41ZM876.52,84.08c-5,4.85-10.22,13.34-10.22,26.16,0,10.57,3.46,19.06,10.57,26,7.45,7.1,15.76,9.52,24.77,9.52,11.78,0,20.09-4.33,25.64-9.87,4.5-4.33,10-12.47,10-25.81,0-11.95-4.85-20.79-10-26a37.09,37.09,0,0,0-25.47-9.87C891.76,74.21,882.76,77.85,876.52,84.08Z"/></clipPath></defs><path id="SVGID-2" data-name="SVGID" class="cls-2" d="M106.2,154.8c-5.71,4.16-14.72,9-32.39,9-18,0-31.18-5.37-42.44-16.46a61,61,0,0,1-18.19-44,61.66,61.66,0,0,1,17.5-43C40.55,50.52,56,43.07,75.89,43.07c17.84,0,33.78,6.41,44.69,16.63,10.57,9.87,18,24.94,18,44A53.07,53.07,0,0,1,133.75,126a43.3,43.3,0,0,1-11.26,15.6l20.09,21.82-25.12,3.12Zm-1.73-30.66a32.9,32.9,0,0,0,6.76-20.79c0-12.3-5-20.61-9.88-25.46-6.58-6.76-15.93-10.22-25.46-10.22A35.39,35.39,0,0,0,50.6,77.89c-6.59,6.75-10.05,17-10.05,26A36.24,36.24,0,0,0,50.25,129c5.72,5.89,13.69,10.22,25,10.22a32.11,32.11,0,0,0,13.85-3L68.27,115.82l25.81-2.77Zm152.62-10c0,11.09-1.39,24.77-12.82,36.55-11.09,11.44-23.91,13.17-36,13.17s-25-1.73-36-13.17c-11.43-11.78-12.81-25.46-12.81-36.55V45.67h26.67V113.4c0,5,.35,13.51,6.07,19.4,4.67,5,11.08,6.06,16.11,6.06s11.43-1,16.11-6.06c5.71-5.89,6.06-14.38,6.06-19.4V45.67h26.68Zm90.59-45.9H309.06V90.53h36.72v22.52H309.06v25.64h38.62v22.52h-65.3V45.67h65.3Zm62.2-22.52c14.72,0,23.9,4.85,29.44,10,4.85,4.68,10.05,13,10.05,25.81,0,7.28-1.56,16.29-9,23.56a36.36,36.36,0,0,1-16.11,8.84l35.52,47.29H427.2L396,115.65v45.56H369.34V45.67ZM396,98.15h6.06c4.85,0,11.43-.51,15.94-5a15.56,15.56,0,0,0,4.33-11.26c0-6.58-3.12-10.05-5.37-11.78-4.33-3.29-11.26-3.64-14.73-3.64H396Zm143.78-30H501.17V90.53h36.72v22.52H501.17v25.64H539.8v22.52H474.49V45.67H539.8Zm-5.2-54.74L506.19,35.79l-11.26-9.18L518.14,1ZM602,68.19v93H575.31v-93H550.19V45.67h76.92V68.19Zm99.78,71.19H658.12l-8.84,21.83H621.56l46.6-115.54h24.43l45.56,115.54H710.43Zm-7.28-20.44-14.2-38.8-14.38,38.8Zm97.18-73.27c14.73,0,23.91,4.85,29.45,10,4.85,4.68,10,13,10,25.81,0,7.28-1.56,16.29-9,23.56a36.36,36.36,0,0,1-16.11,8.84l35.51,47.29H809l-31.18-45.56v45.56H751.14V45.67ZM777.82,98.15h6.06c4.85,0,11.43-.51,15.94-5a15.56,15.56,0,0,0,4.33-11.26c0-6.58-3.12-10.05-5.37-11.78-4.33-3.29-11.26-3.64-14.73-3.64h-6.23ZM958.67,59.87c10.91,10.57,18,25.81,18,43.65a59.73,59.73,0,0,1-18,43.31c-10.74,10.4-25.29,17-44.7,17-21.65,0-36.37-8.66-45-17-11.08-10.39-18-26-18-43,0-16.63,7.45-33.43,17.84-43.83,7.8-7.79,22.17-17,45.21-17C932,43.07,947.06,48.61,958.67,59.87ZM888.51,77.54c-5,4.85-10.22,13.34-10.22,26.16,0,10.56,3.46,19,10.57,26,7.44,7.1,15.76,9.53,24.77,9.53,11.78,0,20.09-4.33,25.64-9.87,4.5-4.33,10-12.48,10-25.82,0-12-4.85-20.78-10-26a37.09,37.09,0,0,0-25.47-9.87C903.75,67.67,894.75,71.3,888.51,77.54Z"/><g class="cls-3"><image width="4801" height="5653" transform="translate(-9.95 -926.58) scale(0.2)" xlink:href="../iglesia-santa-rosa-viterbo-queretaro-mexico.jpg"/></g></svg>