<?xml version="1.0" encoding="utf-8"?>
<!-- Generator: Adobe Illustrator 24.2.3, SVG Export Plug-In . SVG Version: 6.00 Build 0)  -->
<svg version="1.1" id="Capa_1" xmlns="http://www.w3.org/2000/svg" xmlns:xlink="http://www.w3.org/1999/xlink" x="0px" y="0px"
	 viewBox="0 0 421.6 96" style="enable-background:new 0 0 421.6 96;" xml:space="preserve">
<style type="text/css">
	.st0{fill:#1F49B6;}
	.st1{enable-background:new    ;}
	.st2{fill:#FFFFFF;}
</style>
<path id="Trazado_4" class="st0" d="M421.6,0H32.5L0.5,96h421.1"/>
<g id="COMIENZA_A_INVERTIR">
	<g class="st1">
		<path class="st2" d="M100.3,42.8c-0.5-0.5-1.2-1.1-2-1.4c-0.8-0.4-1.7-0.6-2.6-0.6c-3.5,0-6.2,2.8-6.2,6.4c0,4.2,3.4,6.2,6.2,6.2
			c1,0,2-0.3,2.8-0.7c0.9-0.4,1.5-1,1.8-1.3v2.1c-1.7,1.2-3.5,1.5-4.6,1.5c-4.5,0-7.9-3.4-7.9-7.9c0-4.6,3.4-8,8-8
			c0.9,0,2.7,0.1,4.5,1.5V42.8z"/>
		<path class="st2" d="M105.2,47.1c0-4.6,3.6-7.9,8-7.9s8,3.4,8,7.9c0,4.5-3.5,7.9-8,7.9S105.2,51.6,105.2,47.1z M106.9,47.1
			c0,3.5,2.8,6.3,6.2,6.3c3.4,0,6.2-2.8,6.2-6.3s-2.8-6.3-6.2-6.3C109.7,40.7,106.9,43.5,106.9,47.1z"/>
		<path class="st2" d="M126.2,54.7l2.5-16.2l5.9,12.9l6-13l2.4,16.2h-1.7L139.8,44l-5.2,11.3L129.5,44L128,54.7H126.2z"/>
		<path class="st2" d="M150.8,39.4v15.3h-1.7V39.4H150.8z"/>
		<path class="st2" d="M165.2,41H159v4.5h6.1v1.6H159v5.9h6.2v1.6h-7.9V39.4h7.9V41z"/>
		<path class="st2" d="M170.9,54.7v-16l11.9,12.5V39.4h1.7v16l-11.9-12.5v11.8H170.9z"/>
		<path class="st2" d="M192.4,53.1h8.1v1.6h-11l8.4-13.7h-7.3v-1.6h10.1L192.4,53.1z"/>
		<path class="st2" d="M214.3,50.4h-6.5l-1.8,4.3H204l7.1-16.1l6.9,16.1h-1.9L214.3,50.4z M213.6,48.8l-2.6-6.1l-2.6,6.1H213.6z"/>
		<path class="st2" d="M239,50.4h-6.5l-1.8,4.3h-1.9l7-16.1l6.9,16.1h-1.9L239,50.4z M238.3,48.8l-2.6-6.1l-2.6,6.1H238.3z"/>
		<path class="st2" d="M256.9,39.4v15.3h-1.7V39.4H256.9z"/>
		<path class="st2" d="M263.4,54.7v-16l11.9,12.5V39.4h1.7v16l-11.9-12.5v11.8H263.4z"/>
		<path class="st2" d="M283.6,39.4l4.3,11.7l4.3-11.7h1.9l-6.2,16.2l-6.2-16.2H283.6z"/>
		<path class="st2" d="M306.8,41h-6.2v4.5h6.1v1.6h-6.1v5.9h6.2v1.6h-7.9V39.4h7.9V41z"/>
		<path class="st2" d="M314.9,39.4c1,0,2.6,0.1,3.7,0.8c0.9,0.6,1.7,1.8,1.7,3.4c0,2.3-1.5,4.1-3.9,4.2l4.9,6.8h-2.1l-4.7-6.7h-0.4
			v6.7h-1.7V39.4H314.9z M314.1,46.5h1.1c2.1,0,3.4-1,3.4-2.8c0-0.8-0.3-1.7-1.2-2.3c-0.7-0.4-1.5-0.4-2.2-0.4h-1V46.5z"/>
		<path class="st2" d="M330.2,41v13.7h-1.7V41h-3.7v-1.6h9.1V41H330.2z"/>
		<path class="st2" d="M340.5,39.4v15.3h-1.7V39.4H340.5z"/>
		<path class="st2" d="M349.4,39.4c1,0,2.6,0.1,3.7,0.8c0.9,0.6,1.7,1.8,1.7,3.4c0,2.3-1.5,4.1-3.9,4.2l4.9,6.8h-2.1l-4.7-6.7h-0.4
			v6.7H347V39.4H349.4z M348.7,46.5h1.1c2.1,0,3.4-1,3.4-2.8c0-0.8-0.3-1.7-1.2-2.3c-0.7-0.4-1.5-0.4-2.2-0.4h-1V46.5z"/>
	</g>
</g>
</svg>
