<svg id="Capa_1" data-name="Capa 1" xmlns="http://www.w3.org/2000/svg" viewBox="0 0 415 42"><defs><style>.cls-1{isolation:isolate;}.cls-2{fill:none;stroke:#707070;stroke-miterlimit:10;}.cls-3{fill:#002856;}</style></defs><g id="INVIERTE_EN_QUERÉTARO-2" data-name="INVIERTE EN QUERÉTARO-2" class="cls-1"><g id="INVIERTE_EN_QUERÉTARO-2-2" data-name="INVIERTE EN QUERÉTARO-2" class="cls-1"><g class="cls-1"><path class="cls-2" d="M11.3,2.88v34H4.67v-34Z"/><path class="cls-2" d="M32.67,36.89v-34h4.59L58,25.57V2.88h6.63v34H60L39.29,14.15V36.89Z"/><path class="cls-2" d="M89.43,2.88l9.08,22.84,9.07-22.84h7.24l-14.38,34h-4l-14.28-34Z"/><path class="cls-2" d="M139.05,2.88v34h-6.63v-34Z"/><path class="cls-2" d="M179.29,8.59H167.05v7.6h11.73V21.9H167.05v9.28h12.24v5.71H160.42v-34h18.87Z"/><path class="cls-2" d="M209.17,2.88c4.7,0,7.09,1.22,8.67,2.55a9.67,9.67,0,0,1,3.37,7.65,9.28,9.28,0,0,1-4,8,9.38,9.38,0,0,1-3.72,1.48l10.61,14.33h-8.27l-9.07-13.67H206V36.89h-6.63v-34ZM206,18.53h1.89c1.27,0,6.53-.15,6.53-5.15s-5.21-5.1-6.43-5.1h-2Z"/><path class="cls-2" d="M252.93,8.59v28.3H246.3V8.59h-7.65V2.88h21.93V8.59Z"/><path class="cls-2" d="M297.25,8.59H285v7.6h11.73V21.9H285v9.28h12.24v5.71H278.38v-34h18.87Z"/><path class="cls-2" d="M361.66,8.59H349.42v7.6h11.73V21.9H349.42v9.28h12.24v5.71H342.79v-34h18.87Z"/><path class="cls-2" d="M381.71,36.89v-34h4.58L407,25.57V2.88h6.63v34H409L388.33,14.15V36.89Z"/></g></g><g class="cls-1"><path class="cls-3" d="M8,5.85v34H1.37v-34Z"/><path class="cls-3" d="M29.37,39.86v-34H34L54.67,28.54V5.85h6.62v34H56.71L36,17.12V39.86Z"/><path class="cls-3" d="M86.13,5.85l9.08,22.84,9.08-22.84h7.24l-14.38,34h-4l-14.28-34Z"/><path class="cls-3" d="M135.76,5.85v34h-6.63v-34Z"/><path class="cls-3" d="M176,11.56H163.76v7.6h11.72v5.71H163.76v9.28H176v5.71H157.13v-34H176Z"/><path class="cls-3" d="M205.88,5.85c4.69,0,7.09,1.22,8.67,2.55a9.67,9.67,0,0,1,3.37,7.65,9.28,9.28,0,0,1-4,8,9.53,9.53,0,0,1-3.72,1.48l10.6,14.33h-8.26l-9.08-13.67h-.81V39.86H196v-34ZM202.67,21.5h1.89c1.27,0,6.52-.15,6.52-5.15s-5.2-5.1-6.42-5.1h-2Z"/><path class="cls-3" d="M249.64,11.56v28.3H243V11.56h-7.65V5.85h21.93v5.71Z"/><path class="cls-3" d="M294,11.56H281.72v7.6h11.73v5.71H281.72v9.28H294v5.71H275.09v-34H294Z"/><path class="cls-3" d="M358.37,11.56H346.13v7.6h11.73v5.71H346.13v9.28h12.24v5.71H339.5v-34h18.87Z"/><path class="cls-3" d="M378.41,39.86v-34H383l20.71,22.69V5.85h6.63v34h-4.59L385,17.12V39.86Z"/></g></g></svg>