<svg id="Capa_1" data-name="Capa 1" xmlns="http://www.w3.org/2000/svg" xmlns:xlink="http://www.w3.org/1999/xlink" viewBox="0 0 680 121"><defs><style>.cls-1,.cls-2{fill:none;}.cls-2{stroke:#002856;stroke-miterlimit:10;stroke-width:1.1px;}.cls-3{clip-path:url(#clip-path);}</style><clipPath id="clip-path"><path id="SVGID" class="cls-1" d="M73.86,111.08c-3.87,2.81-10,6.09-21.91,6.09-12.18,0-21.09-3.63-28.7-11.13a41.87,41.87,0,0,1-.47-58.81c6.68-6.68,17.1-11.72,30.58-11.72,12.06,0,22.84,4.33,30.22,11.25,7.15,6.67,12.19,16.87,12.19,29.75a35.91,35.91,0,0,1-3.28,15.12,29.05,29.05,0,0,1-7.62,10.54l13.59,14.76-17,2.11ZM72.69,90.34a22.22,22.22,0,0,0,4.57-14.06c0-8.32-3.4-13.94-6.68-17.22a24,24,0,0,0-17.22-6.91,23.94,23.94,0,0,0-17.11,6.91c-4.45,4.57-6.79,11.48-6.79,17.57a24.49,24.49,0,0,0,6.56,17,22.51,22.51,0,0,0,16.87,6.91,21.7,21.7,0,0,0,9.37-2L48.2,84.72l17.46-1.88Zm103.21-6.8c0,7.5-.93,16.76-8.67,24.72-7.49,7.74-16.16,8.91-24.36,8.91S126,116,118.5,108.26c-7.74-8-8.67-17.22-8.67-24.72V37.27h18V83.08c0,3.39.23,9.13,4.1,13.12,3.16,3.39,7.5,4.1,10.9,4.1s7.73-.71,10.89-4.1c3.87-4,4.1-9.73,4.1-13.12V37.27h18Zm61.28-31H211.05V67.61h24.84V82.84H211.05v17.34h26.13v15.23H193V37.27h44.17Zm42.06-15.23c10,0,16.16,3.28,19.91,6.79,3.28,3.17,6.8,8.79,6.8,17.46,0,4.92-1.06,11-6.09,15.93a24.64,24.64,0,0,1-10.9,6l24,32H291L269.86,84.6v30.81h-18V37.27Zm-9.38,35.5H274c3.28,0,7.73-.36,10.77-3.4a10.52,10.52,0,0,0,2.93-7.62,9.48,9.48,0,0,0-3.63-8c-2.93-2.23-7.61-2.46-10-2.46h-4.22ZM367.11,52.5H341V67.61h24.84V82.84H341v17.34h26.13v15.23H322.94V37.27h44.17Zm-3.52-37L344.38,30.59l-7.62-6.21L352.46,7Zm45.58,37v62.91H391.12V52.5h-17V37.27h52V52.5Zm67.48,48.15H447.13l-6,14.76H422.41l31.51-78.14h16.52l30.81,78.14H482.51Zm-4.92-13.83-9.61-26.24L452.4,86.82Zm65.72-49.55c10,0,16.17,3.28,19.92,6.79,3.28,3.17,6.8,8.79,6.8,17.46,0,4.92-1.06,11-6.1,15.93a24.6,24.6,0,0,1-10.89,6l24,32h-22L528.08,84.6v30.81H510V37.27Zm-9.37,35.5h4.1c3.28,0,7.73-.36,10.78-3.4a10.52,10.52,0,0,0,2.93-7.62,9.48,9.48,0,0,0-3.63-8c-2.93-2.23-7.62-2.46-10-2.46h-4.22Zm122.31-25.9A40.68,40.68,0,0,1,662.58,76.4a40.4,40.4,0,0,1-12.19,29.29c-7.26,7-17.1,11.48-30.22,11.48-14.65,0-24.61-5.86-30.46-11.48a39.91,39.91,0,0,1-12.19-29.06A43.62,43.62,0,0,1,589.59,47c5.27-5.27,15-11.48,30.58-11.48C632.35,35.51,642.54,39.26,650.39,46.87Zm-47.45,12c-3.39,3.28-6.91,9-6.91,17.69,0,7.15,2.35,12.89,7.15,17.58a23,23,0,0,0,16.75,6.44c8,0,13.59-2.93,17.34-6.68,3.05-2.93,6.8-8.43,6.8-17.45a24.62,24.62,0,0,0-6.8-17.58,25,25,0,0,0-17.22-6.67A24,24,0,0,0,602.94,58.82Z"/></clipPath></defs><path id="SVGID-2" data-name="SVGID" class="cls-2" d="M82,106.65c-3.87,2.81-10,6.09-21.91,6.09-12.18,0-21.09-3.63-28.7-11.13A41.25,41.25,0,0,1,19.05,71.85a41.67,41.67,0,0,1,11.84-29C37.57,36.12,48,31.08,61.47,31.08c12.06,0,22.84,4.34,30.22,11.25C98.84,49,103.88,59.2,103.88,72.09A35.86,35.86,0,0,1,100.6,87.2,29.3,29.3,0,0,1,93,97.75l13.59,14.76-17,2.11ZM80.8,85.91a22.22,22.22,0,0,0,4.57-14.06c0-8.31-3.4-13.94-6.68-17.22a24,24,0,0,0-17.22-6.91,24,24,0,0,0-17.11,6.91c-4.45,4.57-6.79,11.48-6.79,17.58a24.48,24.48,0,0,0,6.56,17A22.48,22.48,0,0,0,61,96.11a21.71,21.71,0,0,0,9.37-2L56.31,80.29l17.46-1.87ZM184,79.12c0,7.5-.94,16.75-8.67,24.72-7.5,7.73-16.17,8.9-24.37,8.9s-16.87-1.17-24.37-8.9c-7.73-8-8.66-17.22-8.66-24.72V32.84h18V78.65c0,3.4.23,9.14,4.1,13.12,3.16,3.4,7.5,4.1,10.89,4.1s7.74-.7,10.9-4.1c3.87-4,4.1-9.72,4.1-13.12V32.84h18Zm61.28-31.05H219.16V63.19H244V78.42H219.16V95.75h26.13V111H201.12V32.84h44.17Zm42.06-15.23c9.95,0,16.16,3.28,19.91,6.8,3.28,3.16,6.8,8.78,6.8,17.45,0,4.92-1.06,11-6.09,15.94a24.68,24.68,0,0,1-10.9,6l24,32h-22L278,80.17V111h-18V32.84ZM278,68.34h4.1c3.28,0,7.74-.35,10.78-3.4a10.51,10.51,0,0,0,2.93-7.61,9.5,9.5,0,0,0-3.63-8c-2.93-2.23-7.62-2.46-10-2.46H278Zm97.24-20.27H349.09V63.19h24.83V78.42H349.09V95.75h26.12V111H331.05V32.84h44.16Zm-3.51-37L352.49,26.16,344.87,20l15.7-17.33Zm45.57,37V111h-18V48.07h-17V32.84h52V48.07Zm67.49,48.15H455.23l-6,14.77H430.51L462,32.84h16.52L509.36,111H490.62ZM479.84,82.4l-9.61-26.24L460.51,82.4Zm65.72-49.56c10,0,16.17,3.28,19.92,6.8,3.28,3.16,6.79,8.78,6.79,17.45,0,4.92-1,11-6.09,15.94a24.59,24.59,0,0,1-10.89,6l24,32h-22L536.19,80.17V111h-18V32.84Zm-9.37,35.5h4.1c3.28,0,7.73-.35,10.78-3.4A10.51,10.51,0,0,0,554,57.33a9.5,9.5,0,0,0-3.63-8c-2.93-2.23-7.62-2.46-10-2.46h-4.22ZM658.5,42.45A40.64,40.64,0,0,1,670.69,72a40.38,40.38,0,0,1-12.19,29.29c-7.26,7-17.1,11.48-30.22,11.48-14.65,0-24.61-5.86-30.47-11.48a39.92,39.92,0,0,1-12.18-29.05A43.6,43.6,0,0,1,597.7,42.57c5.27-5.28,15-11.49,30.58-11.49C640.46,31.08,650.65,34.83,658.5,42.45ZM611.05,54.4c-3.39,3.28-6.91,9-6.91,17.69,0,7.15,2.34,12.89,7.15,17.57A23,23,0,0,0,628,96.11c8,0,13.59-2.93,17.34-6.68,3-2.93,6.79-8.44,6.79-17.46a24.64,24.64,0,0,0-6.79-17.57,25.08,25.08,0,0,0-17.22-6.68A24,24,0,0,0,611.05,54.4Z"/><g class="cls-3"><image width="4801" height="5653" transform="translate(3.41 -624.7) scale(0.14)" xlink:href="../iglesia-santa-rosa-viterbo-queretaro-mexico.jpg"/></g></svg>