<svg id="Capa_1" data-name="Capa 1" xmlns="http://www.w3.org/2000/svg" viewBox="0 0 51.9 51.9"><defs><style>.cls-1{fill:#ef8e00;}</style></defs><path class="cls-1" d="M26,50.84A24.89,24.89,0,1,1,50.84,26,24.92,24.92,0,0,1,26,50.84ZM26,4.06A21.89,21.89,0,1,0,47.84,26,21.92,21.92,0,0,0,26,4.06Z"/><path class="cls-1" d="M38,33.83H13.88a1.5,1.5,0,0,1,0-3H38a1.5,1.5,0,0,1,0,3Z"/><path class="cls-1" d="M15.41,16.94A3.57,3.57,0,1,0,19,20.51,3.57,3.57,0,0,0,15.41,16.94Z"/><path class="cls-1" d="M36.49,16.94a3.57,3.57,0,1,0,3.57,3.57A3.57,3.57,0,0,0,36.49,16.94Z"/></svg>