<svg id="Capa_1" data-name="Capa 1" xmlns="http://www.w3.org/2000/svg" viewBox="0 0 51.9 51.9"><defs><style>.cls-1{fill:#d11b0d;}</style></defs><path class="cls-1" d="M26,50.84A24.89,24.89,0,1,1,50.84,26,24.92,24.92,0,0,1,26,50.84ZM26,4.06A21.89,21.89,0,1,0,47.84,26,21.92,21.92,0,0,0,26,4.06Z"/><path class="cls-1" d="M15.41,17.44a3.07,3.07,0,1,0,3.07,3.07A3.08,3.08,0,0,0,15.41,17.44Z"/><path class="cls-1" d="M36.49,17.44a3.07,3.07,0,1,0,3.07,3.07A3.08,3.08,0,0,0,36.49,17.44Z"/><path class="cls-1" d="M14.62,37a1.49,1.49,0,0,1-1.37-2.1,13.84,13.84,0,0,1,25.4,0,1.5,1.5,0,0,1-2.75,1.19,10.84,10.84,0,0,0-19.9,0A1.51,1.51,0,0,1,14.62,37Z"/></svg>