<svg xmlns="http://www.w3.org/2000/svg" xmlns:xlink="http://www.w3.org/1999/xlink" viewBox="0 0 48.4 37.58"><defs><style>.cls-1{fill:url(#Degradado_sin_nombre);}</style><linearGradient id="Degradado_sin_nombre" x1="-11.46" y1="18.54" x2="61.59" y2="18.54" gradientTransform="matrix(1, 0, 0, -1, 0, 37.33)" gradientUnits="userSpaceOnUse"><stop offset="0.01" stop-color="#7dc0dd"/><stop offset="1" stop-color="#1d1538"/></linearGradient></defs><g id="Capa_2" data-name="Capa 2"><g id="Capa_1-2" data-name="Capa 1"><path class="cls-1" d="M48.4,2.3h0A2.3,2.3,0,0,0,46.12,0H2.3A2.3,2.3,0,0,0,0,2.3H0A2.3,2.3,0,0,0,2.3,4.59H46.11A2.3,2.3,0,0,0,48.4,2.3Zm0,16.49h0a2.3,2.3,0,0,0-2.28-2.3H2.3A2.3,2.3,0,0,0,0,18.79H0a2.3,2.3,0,0,0,2.3,2.3H46.11A2.3,2.3,0,0,0,48.4,18.8Zm0,16.5h0A2.3,2.3,0,0,0,46.12,33H2.3A2.3,2.3,0,0,0,0,35.29H0a2.3,2.3,0,0,0,2.29,2.29H46.11a2.28,2.28,0,0,0,2.29-2.27Z"/></g></g></svg>