<svg id="Capa_1" data-name="Capa 1" xmlns="http://www.w3.org/2000/svg" viewBox="0 0 97 97"><defs><style>.cls-1{fill:#002856;}</style></defs><path class="cls-1" d="M48.5,95.5a47,47,0,1,1,47-47A47,47,0,0,1,48.5,95.5Zm0-92.25A45.25,45.25,0,1,0,93.75,48.5,45.3,45.3,0,0,0,48.5,3.25Z"/><path class="cls-1" d="M48.5,1.87A46.63,46.63,0,1,1,1.87,48.5,46.69,46.69,0,0,1,48.5,1.87m0,92.26A45.63,45.63,0,1,0,2.87,48.5,45.68,45.68,0,0,0,48.5,94.13m0-93A47.38,47.38,0,1,0,95.88,48.5,47.39,47.39,0,0,0,48.5,1.12Zm0,92.26A44.88,44.88,0,1,1,93.38,48.5,44.94,44.94,0,0,1,48.5,93.38Z"/><polygon class="cls-1" points="28.12 19.36 77.8 48.5 28.12 77.64 28.12 19.36"/><path class="cls-1" d="M28.5,20,77.06,48.5,28.5,77V20m-.75-1.31V78.29L78.54,48.5,27.75,18.71Z"/></svg>