<svg id="Capa_1" data-name="Capa 1" xmlns="http://www.w3.org/2000/svg" viewBox="0 0 218 20"><defs><style>.cls-1{isolation:isolate;}.cls-2{fill:none;stroke:#707070;stroke-miterlimit:10;stroke-width:0.5px;}.cls-3{fill:#002856;}</style></defs><g id="INVIERTE_EN_QUERÉTARO-2" data-name="INVIERTE EN QUERÉTARO-2" class="cls-1"><g id="INVIERTE_EN_QUERÉTARO-2-2" data-name="INVIERTE EN QUERÉTARO-2" class="cls-1"><g class="cls-1"><path class="cls-2" d="M11.53.81v16.9H8.24V.81Z"/><path class="cls-2" d="M22.15,17.71V.81h2.28L34.71,12.09V.81H38v16.9H35.72L25.44,6.41v11.3Z"/><path class="cls-2" d="M50.34.81l4.51,11.35L59.36.81H63l-7.14,16.9h-2L46.75.81Z"/><path class="cls-2" d="M75,.81v16.9H71.7V.81Z"/><path class="cls-2" d="M95,3.65H88.9V7.43h5.83v2.83H88.9v4.61H95v2.84H85.61V.81H95Z"/><path class="cls-2" d="M109.83.81a6.23,6.23,0,0,1,4.31,1.27,4.8,4.8,0,0,1,1.67,3.8,4.62,4.62,0,0,1-2,4,4.66,4.66,0,0,1-1.85.73l5.27,7.12h-4.1l-4.51-6.79h-.4v6.79h-3.3V.81Zm-1.59,7.78h.93c.64,0,3.25-.07,3.25-2.56s-2.59-2.53-3.2-2.53h-1Z"/><path class="cls-2" d="M131.57,3.65V17.71h-3.29V3.65h-3.8V.81h10.89V3.65Z"/><path class="cls-2" d="M153.59,3.65h-6.08V7.43h5.82v2.83h-5.82v4.61h6.08v2.84h-9.38V.81h9.38Z"/><path class="cls-2" d="M185.58,3.65H179.5V7.43h5.83v2.83H179.5v4.61h6.08v2.84h-9.37V.81h9.37Z"/><path class="cls-2" d="M195.54,17.71V.81h2.28l10.29,11.28V.81h3.29v16.9h-2.28L198.83,6.41v11.3Z"/></g></g><g class="cls-1"><path class="cls-3" d="M9.89,2.29v16.9H6.6V2.29Z"/><path class="cls-3" d="M20.51,19.19V2.29h2.28L33.07,13.56V2.29h3.3v16.9H34.09L23.8,7.89v11.3Z"/><path class="cls-3" d="M48.71,2.29l4.51,11.35L57.73,2.29h3.59l-7.14,16.9h-2L45.11,2.29Z"/><path class="cls-3" d="M73.36,2.29v16.9H70.07V2.29Z"/><path class="cls-3" d="M93.35,5.13H87.27V8.9H93.1v2.84H87.27v4.61h6.08v2.84H84V2.29h9.37Z"/><path class="cls-3" d="M108.2,2.29a6.18,6.18,0,0,1,4.3,1.27,4.79,4.79,0,0,1,1.67,3.8,4.55,4.55,0,0,1-3.82,4.71l5.27,7.12h-4.11L107,12.4h-.41v6.79h-3.29V2.29Zm-1.6,7.78h.94c.63,0,3.24-.08,3.24-2.56S108.2,5,107.59,5h-1Z"/><path class="cls-3" d="M129.93,5.13V19.19h-3.29V5.13h-3.8V2.29h10.89V5.13Z"/><path class="cls-3" d="M152,5.13h-6.08V8.9h5.83v2.84h-5.83v4.61H152v2.84h-9.37V2.29H152Z"/><path class="cls-3" d="M184,5.13h-6.08V8.9h5.82v2.84h-5.82v4.61H184v2.84h-9.38V2.29H184Z"/><path class="cls-3" d="M193.91,19.19V2.29h2.28l10.28,11.27V2.29h3.29v16.9h-2.28L197.2,7.89v11.3Z"/></g></g></svg>