<svg id="Capa_1" data-name="Capa 1" xmlns="http://www.w3.org/2000/svg" xmlns:xlink="http://www.w3.org/1999/xlink" viewBox="0 0 313 55.55"><defs><style>.cls-1,.cls-2{fill:none;}.cls-2{stroke:#002856;stroke-miterlimit:10;stroke-width:0.75px;}.cls-3{clip-path:url(#clip-path);}</style><clipPath id="clip-path"><path id="SVGID" class="cls-1" d="M33.31,51.21C31.53,52.51,28.72,54,23.2,54S13.47,52.35,10,48.89a19.32,19.32,0,0,1-.22-27.14,19.61,19.61,0,0,1,14.11-5.41A20.39,20.39,0,0,1,37.8,21.53a18.41,18.41,0,0,1,5.62,13.73,16.59,16.59,0,0,1-1.51,7A13.55,13.55,0,0,1,38.4,47.1l6.27,6.81-7.84,1Zm-.54-9.57a10.27,10.27,0,0,0,2.11-6.49A11.12,11.12,0,0,0,16,27.21a12,12,0,0,0-3.14,8.11,11.29,11.29,0,0,0,3,7.83,10.4,10.4,0,0,0,7.79,3.19A10.13,10.13,0,0,0,28,45.43l-6.49-6.38,8.06-.87ZM80.4,38.51c0,3.46-.43,7.73-4,11.4S68.94,54,65.16,54s-7.79-.54-11.25-4.11-4-7.94-4-11.4V17.15h8.33V38.29c0,1.57.1,4.22,1.89,6.05a6.65,6.65,0,0,0,5,1.9,6.64,6.64,0,0,0,5-1.9c1.79-1.83,1.9-4.48,1.9-6.05V17.15H80.4Zm28.28-14.33H96.62v7h11.46v7H96.62v8h12.06v7H88.29V17.15h20.39Zm19.4-7c4.6,0,7.47,1.51,9.2,3.14a10.87,10.87,0,0,1,3.13,8.05,9.88,9.88,0,0,1-2.81,7.35,11.37,11.37,0,0,1-5,2.76l11.08,14.76H133.49L123.76,39V53.21h-8.33V17.15Zm-4.32,16.38h1.89c1.52,0,3.57-.16,5-1.57A4.86,4.86,0,0,0,132,28.45a4.4,4.4,0,0,0-1.68-3.68,8.17,8.17,0,0,0-4.59-1.13h-1.95Zm44.87-9.35h-12v7H168v7H156.58v8h12v7H148.25V17.15h20.38ZM167,7.1l-8.87,7-3.51-2.87,7.24-8Zm21,17.08v29h-8.33v-29h-7.83v-7h24v7ZM219.18,46.4H205.56l-2.76,6.81h-8.65l14.54-36.06h7.62l14.22,36.06h-8.65ZM216.91,40l-4.43-12.11L208,40Zm30.33-22.87c4.59,0,7.46,1.51,9.19,3.14a10.87,10.87,0,0,1,3.13,8.05,9.84,9.84,0,0,1-2.81,7.35,11.33,11.33,0,0,1-5,2.76l11.08,14.76H252.64L242.91,39V53.21h-8.32V17.15Zm-4.33,16.38h1.9c1.51,0,3.56-.16,5-1.57a4.86,4.86,0,0,0,1.35-3.51,4.37,4.37,0,0,0-1.68-3.68,8.17,8.17,0,0,0-4.59-1.13h-2Zm56.44-12A18.77,18.77,0,0,1,305,35.21a18.6,18.6,0,0,1-5.63,13.51A19.22,19.22,0,0,1,285.41,54a19.82,19.82,0,0,1-14.06-5.3,18.4,18.4,0,0,1-5.62-13.4,20.1,20.1,0,0,1,5.57-13.68c2.43-2.43,6.92-5.3,14.11-5.3C291,16.34,295.73,18.07,299.35,21.58ZM277.46,27.1a11,11,0,0,0-3.19,8.16,10.74,10.74,0,0,0,3.3,8.11,10.58,10.58,0,0,0,7.73,3,10.93,10.93,0,0,0,8-3.08,10.81,10.81,0,0,0,3.13-8,11.37,11.37,0,0,0-3.13-8.11A11.58,11.58,0,0,0,285.35,24,11.06,11.06,0,0,0,277.46,27.1Z"/></clipPath></defs><path id="SVGID-2" data-name="SVGID" class="cls-2" d="M37.06,49.17C35.27,50.47,32.46,52,27,52S17.21,50.3,13.7,46.84A19,19,0,0,1,8,33.11,19.27,19.27,0,0,1,13.48,19.7a19.67,19.67,0,0,1,14.11-5.4,20.37,20.37,0,0,1,14,5.19,18.41,18.41,0,0,1,5.62,13.73,16.51,16.51,0,0,1-1.51,7,13.51,13.51,0,0,1-3.51,4.87l6.27,6.81-7.84,1Zm-.55-9.57a10.23,10.23,0,0,0,2.11-6.49,11,11,0,0,0-3.08-7.95A11.09,11.09,0,0,0,27.59,22a11.06,11.06,0,0,0-7.89,3.19,12,12,0,0,0-3.13,8.11,11.31,11.31,0,0,0,3,7.84,10.4,10.4,0,0,0,7.79,3.19,10,10,0,0,0,4.32-.92L25.22,37l8.05-.86Zm47.63-3.14c0,3.46-.43,7.73-4,11.41S72.68,52,68.9,52s-7.79-.54-11.25-4.11-4-7.95-4-11.41V15.11H62V36.25c0,1.56.11,4.21,1.89,6a6.64,6.64,0,0,0,5,1.89,6.64,6.64,0,0,0,5-1.89c1.78-1.84,1.89-4.49,1.89-6V15.11h8.32Zm28.28-14.32H100.36v7h11.46v7H100.36v8h12.06v7H92V15.11h20.38Zm19.41-7c4.59,0,7.46,1.51,9.19,3.13a10.9,10.9,0,0,1,3.13,8.06,9.84,9.84,0,0,1-2.81,7.35,11.37,11.37,0,0,1-5,2.76L147.4,51.17H137.23L127.5,37V51.17h-8.32V15.11ZM127.5,31.49h1.89c1.52,0,3.57-.16,5-1.57a4.86,4.86,0,0,0,1.35-3.51A4.36,4.36,0,0,0,134,22.73a8.09,8.09,0,0,0-4.59-1.13H127.5Zm44.87-9.35H160.32v7h11.46v7H160.32v8h12.05v7H152V15.11h20.38ZM170.75,5.05l-8.87,7-3.51-2.87,7.25-8Zm21,17.09v29h-8.32v-29h-7.84v-7h24v7Zm31.14,22.22H209.3l-2.76,6.81h-8.65l14.54-36.06h7.63l14.21,36.06h-8.65ZM220.65,38l-4.43-12.11L211.73,38ZM251,15.11c4.59,0,7.46,1.51,9.19,3.13a10.9,10.9,0,0,1,3.14,8.06,9.85,9.85,0,0,1-2.82,7.35,11.33,11.33,0,0,1-5,2.76l11.08,14.76H256.39L246.65,37V51.17h-8.32V15.11Zm-4.33,16.38h1.9c1.51,0,3.56-.16,5-1.57a4.82,4.82,0,0,0,1.35-3.51,4.38,4.38,0,0,0-1.67-3.68,8.14,8.14,0,0,0-4.6-1.13h-1.95ZM303.1,19.54a18.8,18.8,0,0,1,5.62,13.63,18.63,18.63,0,0,1-5.62,13.51,19.3,19.3,0,0,1-14,5.3,19.82,19.82,0,0,1-14.06-5.3,18.41,18.41,0,0,1-5.62-13.41A20.08,20.08,0,0,1,275,19.6c2.43-2.44,6.92-5.3,14.11-5.3C294.77,14.3,299.47,16,303.1,19.54Zm-21.9,5.52A11,11,0,0,0,278,33.22a10.74,10.74,0,0,0,3.3,8.11,10.58,10.58,0,0,0,7.73,3,10.91,10.91,0,0,0,8-3.08,10.77,10.77,0,0,0,3.14-8A11.37,11.37,0,0,0,297,25.06a11.57,11.57,0,0,0-8-3.09A11.07,11.07,0,0,0,281.2,25.06Z"/><g class="cls-3"><image width="4801" height="5653" transform="translate(0.81 -288.31) scale(0.06)" xlink:href="../iglesia-santa-rosa-viterbo-queretaro-mexico.jpg"/></g></svg>