<svg id="Capa_1" data-name="Capa 1" xmlns="http://www.w3.org/2000/svg" xmlns:xlink="http://www.w3.org/1999/xlink" viewBox="0 0 834 696"><defs><style>.cls-1{fill:none;}.cls-2{clip-path:url(#clip-path);}.cls-3{clip-path:url(#clip-path-2);}.cls-4{fill:#1f49b6;opacity:0.58;}</style><clipPath id="clip-path"><path id="SVGID" class="cls-1" d="M-60.74,1423.88c-3.86,2.82-10,6.1-21.91,6.1-12.18,0-21.09-3.64-28.7-11.13a41.27,41.27,0,0,1-12.3-29.76A41.74,41.74,0,0,1-111.82,1360c6.68-6.67,17.11-11.71,30.58-11.71,12.07,0,22.84,4.33,30.23,11.25,7.14,6.67,12.18,16.87,12.18,29.75a35.94,35.94,0,0,1-3.28,15.12A29.05,29.05,0,0,1-49.73,1415l13.59,14.76-17,2.11Zm-1.17-20.73a22.24,22.24,0,0,0,4.57-14.06c0-8.32-3.4-13.94-6.68-17.22A24,24,0,0,0-81.24,1365a24,24,0,0,0-17.11,6.92c-4.45,4.57-6.79,11.48-6.79,17.57a24.53,24.53,0,0,0,6.56,17,22.55,22.55,0,0,0,16.87,6.91,21.82,21.82,0,0,0,9.37-2l-14.06-13.83,17.46-1.87Zm103.22-6.8c0,7.5-.94,16.76-8.67,24.72-7.5,7.74-16.17,8.91-24.37,8.91s-16.87-1.17-24.37-8.91c-7.73-8-8.67-17.22-8.67-24.72v-46.27h18v45.8c0,3.4.24,9.14,4.1,13.13,3.17,3.39,7.5,4.1,10.9,4.1s7.73-.71,10.89-4.1c3.87-4,4.1-9.73,4.1-13.13v-45.8H41.31Zm61.27-31H76.45v15.11h24.84v15.23H76.45V1413h26.13v15.23H58.41v-78.14h44.17Zm42.06-15.23c10,0,16.17,3.28,19.92,6.79,3.28,3.16,6.79,8.79,6.79,17.46,0,4.92-1,11-6.09,15.93a24.64,24.64,0,0,1-10.9,6l24,32h-22l-21.09-30.81v30.81H117.22v-78.14Zm-9.37,35.49h4.1c3.28,0,7.73-.35,10.78-3.39a10.56,10.56,0,0,0,2.92-7.62,9.45,9.45,0,0,0-3.63-8c-2.93-2.23-7.61-2.47-10-2.47h-4.21Zm97.24-20.26H206.38v15.11h24.84v15.23H206.38V1413h26.13v15.23H188.34v-78.14h44.17Zm-3.52-37-19.21,15.12-7.62-6.21,15.7-17.34Zm45.58,37v62.91h-18v-62.91h-17v-15.23h52v15.23Zm67.48,48.15H312.53l-6,14.76H287.81l31.51-78.14h16.52l30.81,78.14H347.91Zm-4.92-13.83-9.61-26.24-9.72,26.24Zm65.73-49.55c9.95,0,16.16,3.28,19.91,6.79,3.28,3.16,6.8,8.79,6.8,17.46,0,4.92-1.06,11-6.1,15.93a24.6,24.6,0,0,1-10.89,6l24,32h-22l-21.09-30.81v30.81h-18v-78.14Zm-9.38,35.49h4.1c3.28,0,7.74-.35,10.78-3.39a10.52,10.52,0,0,0,2.93-7.62,9.48,9.48,0,0,0-3.63-8c-2.93-2.23-7.62-2.47-10-2.47h-4.22Zm122.31-25.89a41.57,41.57,0,0,1,0,58.82c-7.26,7-17.1,11.48-30.22,11.48-14.65,0-24.6-5.86-30.46-11.48a39.91,39.91,0,0,1-12.19-29.06A43.62,43.62,0,0,1,455,1359.8c5.27-5.27,15-11.48,30.58-11.48C497.75,1348.32,508,1352.07,515.79,1359.68Zm-47.44,12c-3.4,3.28-6.92,9-6.92,17.69,0,7.15,2.35,12.89,7.15,17.58a23,23,0,0,0,16.75,6.44c8,0,13.59-2.93,17.34-6.68,3.05-2.93,6.8-8.43,6.8-17.45a24.62,24.62,0,0,0-6.8-17.58,25,25,0,0,0-17.22-6.68A24,24,0,0,0,468.35,1371.63Z"/></clipPath><clipPath id="clip-path-2"><rect class="cls-1" x="-2.99" y="-2.07" width="839.99" height="700.13"/></clipPath></defs><g class="cls-2"><image width="4801" height="5653" transform="translate(-131.19 688.11) scale(0.14)" xlink:href="../iglesia-santa-rosa-viterbo-queretaro-mexico.jpg"/></g><g class="cls-3"><image width="11520" height="6480" transform="translate(-165.49 -2.92) scale(0.11)" xlink:href="../4%20NVT_01.jpg"/><rect class="cls-4" x="-165.49" y="-2.92" width="1244.68" height="700.13"/></g></svg>