<svg id="Capa_1" data-name="Capa 1" xmlns="http://www.w3.org/2000/svg" viewBox="0 0 287 65"><defs><style>.cls-1{fill:#1f49b6;}.cls-2{isolation:isolate;}.cls-3{fill:#fff;}</style></defs><path id="Trazado_4" data-name="Trazado 4" class="cls-1" d="M291.62-.16H28.13l-21.62,65H291.62"/><g id="COMIENZA_A_INVERTIR" data-name="COMIENZA A INVERTIR" class="cls-2"><g class="cls-2"><path class="cls-3" d="M66.44,30.43a4.93,4.93,0,0,0-1.35-1,4.37,4.37,0,0,0-1.79-.4,4.28,4.28,0,0,0,0,8.55,4.34,4.34,0,0,0,1.93-.48,4.81,4.81,0,0,0,1.19-.87v1.43a5.41,5.41,0,0,1-3.12,1A5.37,5.37,0,1,1,63.38,28a4.88,4.88,0,0,1,3.06,1Z"/><path class="cls-3" d="M69.76,33.33a5.39,5.39,0,1,1,5.39,5.37A5.29,5.29,0,0,1,69.76,33.33Zm1.18,0a4.21,4.21,0,1,0,4.21-4.27A4.23,4.23,0,0,0,70.94,33.33Z"/><path class="cls-3" d="M84.06,38.51l1.72-10.94,4,8.75,4-8.77,1.62,11H94.25l-1-7.21L89.74,39,86.26,31.3l-1,7.21Z"/><path class="cls-3" d="M100.73,28.14V38.51H99.58V28.14Z"/><path class="cls-3" d="M110.54,29.23h-4.23v3.08h4.1V33.4h-4.1v4h4.23v1.09h-5.38V28.14h5.38Z"/><path class="cls-3" d="M114.41,38.51V27.71l8.08,8.47v-8h1.15V39l-8.08-8.48v8Z"/><path class="cls-3" d="M129,37.42h5.5v1.09h-7.43l5.66-9.28h-4.93V28.14h6.85Z"/><path class="cls-3" d="M143.88,35.59h-4.41l-1.25,2.92H137l4.77-10.87,4.64,10.87h-1.27Zm-.45-1.09-1.74-4.15-1.77,4.15Z"/><path class="cls-3" d="M160.68,35.59h-4.41L155,38.51h-1.27l4.77-10.87,4.65,10.87h-1.28Zm-.45-1.09-1.74-4.15-1.77,4.15Z"/><path class="cls-3" d="M172.91,28.14V38.51h-1.15V28.14Z"/><path class="cls-3" d="M177.34,38.51V27.71l8.08,8.47v-8h1.15V39l-8.08-8.48v8Z"/><path class="cls-3" d="M191.07,28.14,194,36.05l2.92-7.91h1.27l-4.19,11-4.2-11Z"/><path class="cls-3" d="M206.78,29.23h-4.23v3.08h4.11V33.4h-4.11v4h4.23v1.09H201.4V28.14h5.38Z"/><path class="cls-3" d="M212.31,28.14a4.55,4.55,0,0,1,2.52.58A2.68,2.68,0,0,1,216,31a2.73,2.73,0,0,1-2.61,2.86l3.29,4.63h-1.4L212.1,34h-.3v4.54h-1.15V28.14ZM211.8,33h.73c1.43,0,2.29-.69,2.29-1.9a1.64,1.64,0,0,0-.83-1.53,3,3,0,0,0-1.49-.29h-.7Z"/><path class="cls-3" d="M222.76,29.23v9.28h-1.15V29.23h-2.52V28.14h6.19v1.09Z"/><path class="cls-3" d="M229.74,28.14V38.51h-1.15V28.14Z"/><path class="cls-3" d="M235.83,28.14a4.55,4.55,0,0,1,2.52.58,2.88,2.88,0,0,1-1.48,5.16l3.3,4.63h-1.4L235.61,34h-.29v4.54h-1.15V28.14ZM235.32,33h.73c1.43,0,2.28-.69,2.28-1.9a1.63,1.63,0,0,0-.82-1.53,3,3,0,0,0-1.49-.29h-.7Z"/></g></g></svg>