<svg id="Capa_1" data-name="Capa 1" xmlns="http://www.w3.org/2000/svg" viewBox="0 0 182 59"><defs><style>.cls-1{fill:#002856;}</style></defs><polygon class="cls-1" points="59.15 17.61 49.83 41.41 43.18 58.38 34.57 58.38 29.46 41.41 22.3 17.61 20.95 13.14 19.22 17.61 10.01 41.41 1.4 41.41 10.61 17.61 17.18 0.64 17.19 0.62 25.8 0.62 30.91 17.61 38.07 41.41 39.44 45.96 41.23 41.41 50.55 17.61 59.15 17.61"/><path class="cls-1" d="M100.4,17.62h14.36V21.4h-9.44v6.09h7.24v3.73h-7.24v6.32h10.44v3.88H100.4Z"/><path class="cls-1" d="M124.1,21.4h-6.75V17.62h18.41V21.4h-6.71v20h-5Z"/><path class="cls-1" d="M139.14,17.62h14.35V21.4h-9.43v6.09h7.24v3.73h-7.24v6.32H154.5v3.88H139.14Z"/><path class="cls-1" d="M157.18,29.47a13.42,13.42,0,0,1,.89-5,10.73,10.73,0,0,1,2.46-3.75,11.23,11.23,0,0,1,8.19-3.1,20.82,20.82,0,0,1,5.26.65c.39.11.77.19,1.14.27l-.71,4.33a11.38,11.38,0,0,0-1.78-.84,10.55,10.55,0,0,0-3.3-.51,7.63,7.63,0,0,0-3,.53,6.24,6.24,0,0,0-2.15,1.52,8.14,8.14,0,0,0-1.95,5.71,9.06,9.06,0,0,0,1.89,6,6.48,6.48,0,0,0,5.26,2.37,11.63,11.63,0,0,0,4.56-1,5.11,5.11,0,0,0,.9-.48l0,4a16.31,16.31,0,0,1-3.57,1.06,17.36,17.36,0,0,1-2.37.17,11.5,11.5,0,0,1-8.61-3.28A11.87,11.87,0,0,1,157.18,29.47Z"/><path class="cls-1" d="M75.06,17.63h5.27l4.4,13L86,35.13l1.27-4.53,4.16-13h5.25L88,41.43H83.82Z"/><path class="cls-1" d="M77.84,41.43H72.57l-4.4-13-1.25-4.53-1.27,4.53-4.16,13H56.25l8.66-23.8h4.18Z"/><path class="cls-1" d="M178.31,37.79A1,1,0,0,1,179,38a.8.8,0,0,1,.28.64.77.77,0,0,1-.33.66.69.69,0,0,1-.31.12l.88,1.19h-.68l-.76-1.13h-.06v1.13h-.55V37.79Zm-.26,1.3h.15c.11,0,.54,0,.54-.43s-.43-.42-.53-.42h-.16Z"/><path class="cls-1" d="M178.39,41.43a2.21,2.21,0,1,1,2.21-2.21A2.21,2.21,0,0,1,178.39,41.43Zm0-4.07a1.86,1.86,0,1,0,1.86,1.86A1.86,1.86,0,0,0,178.39,37.36Z"/></svg>