<svg id="Capa_1" data-name="Capa 1" xmlns="http://www.w3.org/2000/svg" viewBox="0 0 57.49 80.63"><defs><style>.cls-1{fill:#fff;}</style></defs><path class="cls-1" d="M5.48,64.68H2.4l-.86,2H.65L4,59.14l3.24,7.57H6.32Zm-.32-.76L4,61,2.72,63.92Z"/><path class="cls-1" d="M11.07,58.82h.78v7.89h-.78v-.63a1.87,1.87,0,0,1-1.53.76,2.37,2.37,0,0,1,0-4.73,1.85,1.85,0,0,1,1.53.75ZM8.15,64.46a1.5,1.5,0,0,0,1.47,1.69,1.69,1.69,0,0,0,0-3.35A1.5,1.5,0,0,0,8.15,64.46Z"/><path class="cls-1" d="M12.92,62.22h.78v.47a1.38,1.38,0,0,1,2.34.15,1.48,1.48,0,0,1,1.35-.73c1.33,0,1.46,1.12,1.46,1.75v2.85h-.77V64c0-.51-.07-1.18-.81-1.18s-1,.87-1,1.41v2.5H15.5V64.05c0-.32,0-1.25-.81-1.25s-1,.92-1,1.46v2.45h-.78Z"/><path class="cls-1" d="M20.32,60a.55.55,0,0,1,.56.55.56.56,0,0,1-1.11,0A.55.55,0,0,1,20.32,60Zm.39,2.25v4.49h-.78V62.22Z"/><path class="cls-1" d="M21.78,62.22h.78v.52a1.57,1.57,0,0,1,1.29-.63,1.53,1.53,0,0,1,1.29.62,2,2,0,0,1,.26,1.2v2.78h-.78V64a1.28,1.28,0,0,0-.21-.82.86.86,0,0,0-.73-.33,1,1,0,0,0-.79.35,1.86,1.86,0,0,0-.33,1.21v2.35h-.78Z"/><path class="cls-1" d="M26.86,60a.55.55,0,0,1,.55.55.55.55,0,1,1-1.1,0A.55.55,0,0,1,26.86,60Zm.39,2.25v4.49h-.78V62.22Z"/><path class="cls-1" d="M30.17,63.26a.69.69,0,0,0-.63-.46.5.5,0,0,0-.54.51c0,.33.22.42.73.64a2.74,2.74,0,0,1,1.12.69,1.05,1.05,0,0,1,.24.73,1.43,1.43,0,0,1-1.55,1.47A1.61,1.61,0,0,1,28,65.69l.67-.28a1,1,0,0,0,.91.74.7.7,0,0,0,.74-.72c0-.42-.3-.56-.72-.74a2.94,2.94,0,0,1-1.1-.66,1,1,0,0,1-.2-.66,1.21,1.21,0,0,1,1.31-1.26,1.29,1.29,0,0,1,1.23.81Z"/><path class="cls-1" d="M32.53,62.93v3.78h-.78V62.93h-.48v-.71h.48V60.59h.78v1.63h.78v.71Z"/><path class="cls-1" d="M33.64,62.22h.78v.49a1.25,1.25,0,0,1,1-.6,1.72,1.72,0,0,1,.69.18l-.36.71a.82.82,0,0,0-.46-.15.77.77,0,0,0-.63.28,1.91,1.91,0,0,0-.26,1.21v2.37h-.78Z"/><path class="cls-1" d="M39.66,62.22h.78v4.49h-.78v-.63a1.88,1.88,0,0,1-1.54.76,2.37,2.37,0,0,1,0-4.73,1.85,1.85,0,0,1,1.54.75Zm-2.92,2.24a1.5,1.5,0,0,0,1.47,1.69,1.69,1.69,0,0,0,0-3.35A1.5,1.5,0,0,0,36.74,64.46Z"/><path class="cls-1" d="M45,63.47a1.81,1.81,0,0,0-1.41-.67,1.68,1.68,0,0,0,0,3.35,1.91,1.91,0,0,0,1.45-.71v.94a2.45,2.45,0,0,1-1.43.46,2.3,2.3,0,0,1-2.4-2.35,2.32,2.32,0,0,1,2.4-2.38,2.4,2.4,0,0,1,1.4.43Z"/><path class="cls-1" d="M46.24,60a.55.55,0,0,1,.55.55.55.55,0,0,1-1.1,0A.55.55,0,0,1,46.24,60Zm.39,2.25v4.49h-.78V62.22Z"/><path class="cls-1" d="M47.42,64.48a2.38,2.38,0,1,1,2.38,2.36A2.31,2.31,0,0,1,47.42,64.48Zm.8,0A1.58,1.58,0,1,0,49.8,62.8,1.56,1.56,0,0,0,48.22,64.48Zm3.05-4.61-1.45,1.46-.48-.26,1.13-1.57Z"/><path class="cls-1" d="M53,62.22h.78v.52A1.57,1.57,0,0,1,55,62.11a1.53,1.53,0,0,1,1.29.62,2,2,0,0,1,.26,1.2v2.78h-.78V64a1.28,1.28,0,0,0-.21-.82.87.87,0,0,0-.74-.33,1,1,0,0,0-.79.35,1.91,1.91,0,0,0-.32,1.21v2.35H53Z"/><path class="cls-1" d="M12.44,69.64h.78v7.89h-.78V76.9a1.89,1.89,0,0,1-1.54.76,2.37,2.37,0,0,1,0-4.73,1.85,1.85,0,0,1,1.54.75ZM9.52,75.28A1.5,1.5,0,0,0,11,77a1.69,1.69,0,0,0,0-3.35A1.5,1.5,0,0,0,9.52,75.28Z"/><path class="cls-1" d="M18.27,76.39a2.82,2.82,0,0,1-.55.72,2.32,2.32,0,1,1-1.54-4.18,2,2,0,0,1,1.7.82,3,3,0,0,1,.43,1.69h-3.5A1.44,1.44,0,0,0,16.24,77a1.39,1.39,0,0,0,.92-.32,1.89,1.89,0,0,0,.46-.62Zm-.76-1.6a1.34,1.34,0,0,0-2.65,0Z"/><path class="cls-1" d="M19.87,69.64v7.89h-.78V69.64Z"/><path class="cls-1" d="M24.57,70.31a2.62,2.62,0,0,1,1.82.51,2.07,2.07,0,0,1-1.62,3.57h-.71v3.14h-.8V70.31Zm-.51,3.33h.66c1,0,1.53-.48,1.53-1.31,0-1.15-1.07-1.26-1.59-1.26h-.6Z"/><path class="cls-1" d="M30.83,73h.78v4.49h-.78V76.9a1.89,1.89,0,0,1-1.54.76,2.37,2.37,0,0,1,0-4.73,1.87,1.87,0,0,1,1.54.75ZM27.9,75.28A1.51,1.51,0,0,0,29.38,77a1.69,1.69,0,0,0,0-3.35A1.5,1.5,0,0,0,27.9,75.28Z"/><path class="cls-1" d="M32.68,73h.77v.49a1.27,1.27,0,0,1,1-.6,1.66,1.66,0,0,1,.7.19l-.37.7a.82.82,0,0,0-.46-.15.77.77,0,0,0-.63.28,1.93,1.93,0,0,0-.26,1.21v2.37h-.77Z"/><path class="cls-1" d="M38.66,73h.78v7h-.78V76.9a1.89,1.89,0,0,1-1.54.76,2.37,2.37,0,0,1,0-4.73,1.85,1.85,0,0,1,1.54.75Zm-2.92,2.24A1.5,1.5,0,0,0,37.21,77a1.69,1.69,0,0,0,0-3.35A1.5,1.5,0,0,0,35.74,75.28Z"/><path class="cls-1" d="M41.29,75.66a1.5,1.5,0,0,0,.22,1,.92.92,0,0,0,.79.35.94.94,0,0,0,.79-.35,1.56,1.56,0,0,0,.21-1V73h.78v2.71a1.77,1.77,0,0,1-.41,1.35,2,2,0,0,1-2.75,0,1.77,1.77,0,0,1-.41-1.35V73h.78Z"/><path class="cls-1" d="M49.14,76.39a2.86,2.86,0,0,1-.56.72,2.32,2.32,0,1,1-1.53-4.18,2,2,0,0,1,1.7.82,3.08,3.08,0,0,1,.42,1.69h-3.5A1.44,1.44,0,0,0,47.1,77a1.39,1.39,0,0,0,.92-.32,1.92,1.92,0,0,0,.47-.62Zm-.77-1.6a1.33,1.33,0,0,0-2.64,0Z"/><path class="cls-1" d="M28.94,56.41a27.91,27.91,0,1,1,27.9-27.9A27.94,27.94,0,0,1,28.94,56.41ZM28.94,2A26.55,26.55,0,1,0,55.49,28.51,26.58,26.58,0,0,0,28.94,2Z"/><path class="cls-1" d="M39.74,37.55v-.06a10.78,10.78,0,0,0-8.57-10.55,6.07,6.07,0,1,0-4.41,0,10.78,10.78,0,0,0-8.57,10.55v.06Z"/><path class="cls-1" d="M50.79,34.73a8.1,8.1,0,0,0-6.44-7.93,4.56,4.56,0,1,0-3.31,0,8.16,8.16,0,0,0-3.17,1.43,16.46,16.46,0,0,1,3.89,6.55h9Z"/><path class="cls-1" d="M20.16,28.44a8.2,8.2,0,0,0-3.44-1.64,4.56,4.56,0,1,0-3.31,0A8.1,8.1,0,0,0,7,34.73v.05h9.47A13,13,0,0,1,20.16,28.44Z"/></svg>