<svg id="Capa_1" data-name="Capa 1" xmlns="http://www.w3.org/2000/svg" viewBox="0 0 57.49 78.13"><defs><style>.cls-1{fill:#fff;}</style></defs><path class="cls-1" d="M44.8,22.35a4.4,4.4,0,1,0-5.41.49A3.15,3.15,0,0,0,38,25.44v4.4H35.5V26.7a4.41,4.41,0,0,0-3.88-4.37,4.41,4.41,0,1,0-6.07,0,4.41,4.41,0,0,0-3.88,4.37v3.14H19.16v-4.4a3.15,3.15,0,0,0-1.38-2.6,4.41,4.41,0,1,0-5.41-.49,3.13,3.13,0,0,0-2.64,3.09v9.43a3.14,3.14,0,0,0,2.51,3.07v9.5H13.5V38h5.66v8.8a.63.63,0,0,0,.62.63h3.77a.63.63,0,0,0,.63-.63V36.75H28v9.43H25.44v1.26h6.29V46.18H29.21V36.75H33V46.81a.63.63,0,0,0,.63.63h3.77a.63.63,0,0,0,.63-.63V38h5.66v9.43h1.25v-9.5a3.14,3.14,0,0,0,2.52-3.07V25.44A3.14,3.14,0,0,0,44.8,22.35Zm-6.16-3.2a3.14,3.14,0,1,1,3.14,3.15A3.15,3.15,0,0,1,38.64,19.15Zm-13.2,0a3.15,3.15,0,1,1,3.14,3.15A3.15,3.15,0,0,1,25.44,19.15Zm4.12,4.4-1,2.61-1-2.61ZM22.93,26.7a3.15,3.15,0,0,1,3.14-3.15h.19L28,28.17a.64.64,0,0,0,.59.41.63.63,0,0,0,.59-.41l1.73-4.62h.2a3.15,3.15,0,0,1,3.14,3.15v3.14H31.73a.63.63,0,0,0-.63.63V33h-5V30.47a.63.63,0,0,0-.63-.63H22.93ZM12.24,19.15a3.15,3.15,0,1,1,3.14,3.15A3.15,3.15,0,0,1,12.24,19.15Zm10.69,27H20.41v-8.8a.63.63,0,0,0-.63-.63H12.87A1.89,1.89,0,0,1,11,34.87V25.44a1.89,1.89,0,0,1,1.89-1.89H16a1.89,1.89,0,0,1,1.89,1.89v5a.63.63,0,0,0,.63.62h6.28V33H16V27.32H14.76v6.29a.63.63,0,0,0,.62.63H21a1.89,1.89,0,0,1,1.89,1.88ZM33.05,35.49H24.11a3,3,0,0,0-.56-1.25H33.61A3.23,3.23,0,0,0,33.05,35.49Zm13.13-.62a1.88,1.88,0,0,1-1.88,1.88H37.38a.63.63,0,0,0-.63.63v8.8H34.24V36.12a1.88,1.88,0,0,1,1.88-1.88h5.66a.63.63,0,0,0,.63-.63V27.32H41.15V33h-8.8V31.09h6.29a.63.63,0,0,0,.63-.62v-5a1.89,1.89,0,0,1,1.88-1.89H44.3a1.89,1.89,0,0,1,1.88,1.89Z"/><rect class="cls-1" x="27.95" y="29.84" width="1.26" height="1.26"/><path class="cls-1" d="M25.44,9.1h-8.8a.63.63,0,0,0-.63.63v3.14a.63.63,0,0,0,.63.63h2.52v1.25a.64.64,0,0,0,.34.57.71.71,0,0,0,.28.06.64.64,0,0,0,.38-.12l2.35-1.76h2.93a.63.63,0,0,0,.63-.63V9.73A.63.63,0,0,0,25.44,9.1Zm-.63,3.14H22.3a.58.58,0,0,0-.38.13L20.41,13.5v-.63a.63.63,0,0,0-.63-.63H17.27V10.35h7.54Z"/><rect class="cls-1" x="31.73" y="10.98" width="1.26" height="1.26"/><rect class="cls-1" x="34.24" y="10.98" width="1.26" height="1.26"/><rect class="cls-1" x="36.75" y="10.98" width="1.26" height="1.26"/><path class="cls-1" d="M15,59.42a2.63,2.63,0,0,1,1.66.46,1.77,1.77,0,0,1,.65,1.49,1.64,1.64,0,0,1-.71,1.42A1.81,1.81,0,0,1,18,64.61a2,2,0,0,1-.74,1.56,2.64,2.64,0,0,1-1.73.47H13.71V59.42Zm-.49,3.17h.6c.43,0,1.42-.08,1.42-1.2s-1.17-1.21-1.4-1.21h-.62Zm0,3.3h.92a2,2,0,0,0,1.26-.31,1.18,1.18,0,0,0,.48-1,1.16,1.16,0,0,0-.62-1.06,2.41,2.41,0,0,0-1.22-.22h-.82Z"/><path class="cls-1" d="M19.63,64.77a1.56,1.56,0,0,0,.21,1,.94.94,0,0,0,.79.35.92.92,0,0,0,.79-.35,1.5,1.5,0,0,0,.22-1V62.15h.78v2.71A1.81,1.81,0,0,1,22,66.21a2,2,0,0,1-2.75,0,1.77,1.77,0,0,1-.41-1.35V62.15h.78Z"/><path class="cls-1" d="M25.34,63.19a.7.7,0,0,0-.63-.46.5.5,0,0,0-.54.51c0,.33.22.43.73.64a2.69,2.69,0,0,1,1.12.7,1,1,0,0,1,.24.72,1.43,1.43,0,0,1-1.55,1.47,1.61,1.61,0,0,1-1.57-1.14l.67-.29a1,1,0,0,0,.91.74.7.7,0,0,0,.74-.71c0-.43-.3-.57-.73-.75A3,3,0,0,1,23.64,64a1,1,0,0,1-.21-.66A1.22,1.22,0,0,1,24.74,62a1.32,1.32,0,0,1,1.24.81Z"/><path class="cls-1" d="M27.29,59.9a.55.55,0,1,1-.56.55A.55.55,0,0,1,27.29,59.9Zm.39,2.25v4.49H26.9V62.15Z"/><path class="cls-1" d="M28.75,62.15h.78v.52A1.59,1.59,0,0,1,30.81,62a1.52,1.52,0,0,1,1.29.62,2,2,0,0,1,.26,1.2v2.78h-.78V63.88a1.34,1.34,0,0,0-.2-.82.87.87,0,0,0-.74-.33,1,1,0,0,0-.79.35,1.91,1.91,0,0,0-.32,1.21v2.35h-.78Z"/><path class="cls-1" d="M37.42,65.5a2.86,2.86,0,0,1-.56.72A2.32,2.32,0,1,1,35.33,62a2,2,0,0,1,1.7.82,3.08,3.08,0,0,1,.42,1.69H34a1.44,1.44,0,0,0,1.43,1.53,1.39,1.39,0,0,0,.92-.32,1.92,1.92,0,0,0,.47-.62Zm-.77-1.6a1.35,1.35,0,0,0-1.32-1.17A1.37,1.37,0,0,0,34,63.9Z"/><path class="cls-1" d="M40.09,63.19a.7.7,0,0,0-.63-.46.5.5,0,0,0-.54.51c0,.33.22.43.72.64a2.68,2.68,0,0,1,1.13.7,1,1,0,0,1,.24.72,1.43,1.43,0,0,1-1.55,1.47,1.61,1.61,0,0,1-1.57-1.14l.67-.29a1,1,0,0,0,.91.74.7.7,0,0,0,.74-.71c0-.43-.31-.57-.73-.75A2.88,2.88,0,0,1,38.39,64a1,1,0,0,1-.21-.66A1.22,1.22,0,0,1,39.49,62a1.32,1.32,0,0,1,1.24.81Z"/><path class="cls-1" d="M43.5,63.19a.7.7,0,0,0-.63-.46.5.5,0,0,0-.54.51c0,.33.21.43.72.64a2.68,2.68,0,0,1,1.13.7,1.06,1.06,0,0,1,.24.72,1.43,1.43,0,0,1-1.55,1.47,1.6,1.6,0,0,1-1.57-1.14l.67-.29a1,1,0,0,0,.91.74.7.7,0,0,0,.74-.71c0-.43-.31-.57-.73-.75A2.88,2.88,0,0,1,41.8,64a1,1,0,0,1-.21-.66A1.21,1.21,0,0,1,42.9,62a1.32,1.32,0,0,1,1.24.81Z"/><path class="cls-1" d="M22.2,71.83a4.12,4.12,0,0,0-.94-.67A3.16,3.16,0,0,0,20,70.88a3,3,0,1,0,1.35,5.62,3.08,3.08,0,0,0,.84-.6v1A3.74,3.74,0,0,1,20,77.6a3.74,3.74,0,1,1,.05-7.48,3.43,3.43,0,0,1,2.13.72Z"/><path class="cls-1" d="M27.06,76.32a2.55,2.55,0,0,1-.56.72A2.32,2.32,0,1,1,25,72.86a2,2,0,0,1,1.7.83,3,3,0,0,1,.42,1.69h-3.5A1.43,1.43,0,0,0,25,76.9a1.39,1.39,0,0,0,.92-.32,1.82,1.82,0,0,0,.47-.62Zm-.77-1.59a1.33,1.33,0,0,0-2.64,0Z"/><path class="cls-1" d="M27.88,73h.78v.52a1.59,1.59,0,0,1,1.28-.63,1.53,1.53,0,0,1,1.29.62,2,2,0,0,1,.26,1.2v2.79h-.78V74.7a1.34,1.34,0,0,0-.2-.82.89.89,0,0,0-.74-.32,1,1,0,0,0-.79.34,1.92,1.92,0,0,0-.32,1.22v2.35h-.78Z"/><path class="cls-1" d="M33.36,73.69v3.78h-.78V73.69h-.47V73h.47V71.35h.78V73h.78v.72Z"/><path class="cls-1" d="M38.46,76.32a2.51,2.51,0,0,1-.55.72,2.32,2.32,0,1,1-1.54-4.18,2,2,0,0,1,1.7.83,3,3,0,0,1,.42,1.69H35a1.43,1.43,0,0,0,1.43,1.52,1.41,1.41,0,0,0,.92-.32,1.93,1.93,0,0,0,.46-.62Zm-.77-1.59a1.34,1.34,0,0,0-1.32-1.17,1.36,1.36,0,0,0-1.32,1.17Z"/><path class="cls-1" d="M39.28,73h.78v.49a1.25,1.25,0,0,1,1-.6,1.58,1.58,0,0,1,.69.19l-.37.7A.77.77,0,0,0,41,73.6a.76.76,0,0,0-.63.28,1.93,1.93,0,0,0-.26,1.21v2.38h-.78Z"/><path class="cls-1" d="M28.75,56.34a27.9,27.9,0,1,1,27.9-27.9A27.94,27.94,0,0,1,28.75,56.34Zm0-54.45A26.55,26.55,0,1,0,55.3,28.44,26.58,26.58,0,0,0,28.75,1.89Z"/></svg>