<svg id="Capa_1" data-name="Capa 1" xmlns="http://www.w3.org/2000/svg" viewBox="0 0 64.66 79.12"><defs><style>.cls-1{fill:#fff;}</style></defs><path class="cls-1" d="M6.67,61.39a4,4,0,0,0-1-.67,3.08,3.08,0,0,0-1.24-.28,3,3,0,1,0,1.35,5.62,3.23,3.23,0,0,0,.84-.61v1a3.79,3.79,0,0,1-2.18.7,3.74,3.74,0,1,1,0-7.47,3.43,3.43,0,0,1,2.14.72Z"/><path class="cls-1" d="M7.93,60.28a.55.55,0,1,1-.55.55A.55.55,0,0,1,7.93,60.28Zm.39,2.25V67H7.54V62.53Z"/><path class="cls-1" d="M9.39,62.53h.78V63a1.25,1.25,0,0,1,1-.6,1.58,1.58,0,0,1,.69.19l-.37.7a.77.77,0,0,0-.45-.15.76.76,0,0,0-.63.28,1.93,1.93,0,0,0-.26,1.21V67H9.39Z"/><path class="cls-1" d="M15.45,63.79A1.81,1.81,0,0,0,14,63.12a1.67,1.67,0,0,0,0,3.34,1.89,1.89,0,0,0,1.45-.7v.93a2.35,2.35,0,0,1-1.43.46,2.3,2.3,0,0,1-2.4-2.35,2.32,2.32,0,0,1,2.4-2.38,2.29,2.29,0,0,1,1.4.44Z"/><path class="cls-1" d="M17.05,65.15a1.49,1.49,0,0,0,.22,1,1.07,1.07,0,0,0,1.58,0,1.49,1.49,0,0,0,.22-1V62.53h.78v2.71a1.78,1.78,0,0,1-.42,1.35,2,2,0,0,1-2.75,0,1.81,1.81,0,0,1-.41-1.35V62.53h.78Z"/><path class="cls-1" d="M21.3,60.28a.55.55,0,1,1-.55.55A.56.56,0,0,1,21.3,60.28Zm.39,2.25V67h-.78V62.53Z"/><path class="cls-1" d="M23.57,63.25V67h-.78V63.25h-.48v-.72h.48V60.91h.78v1.62h.78v.72Z"/><path class="cls-1" d="M24.4,64.79a2.38,2.38,0,1,1,2.38,2.36A2.31,2.31,0,0,1,24.4,64.79Zm.8,0a1.58,1.58,0,1,0,1.58-1.67A1.56,1.56,0,0,0,25.2,64.79Z"/><path class="cls-1" d="M37.79,61.39a4.12,4.12,0,0,0-.94-.67,3.16,3.16,0,0,0-1.25-.28A3,3,0,1,0,37,66.06a3.06,3.06,0,0,0,.84-.61v1a3.79,3.79,0,0,1-2.18.7,3.74,3.74,0,1,1,0-7.47,3.43,3.43,0,0,1,2.14.72Z"/><path class="cls-1" d="M42.65,65.88a2.55,2.55,0,0,1-.56.72,2.32,2.32,0,1,1-1.53-4.18,2,2,0,0,1,1.7.83,3,3,0,0,1,.42,1.68h-3.5a1.44,1.44,0,0,0,1.43,1.53,1.39,1.39,0,0,0,.92-.32,1.82,1.82,0,0,0,.47-.62Zm-.77-1.59a1.33,1.33,0,0,0-2.64,0Z"/><path class="cls-1" d="M43.47,62.53h.78V63a1.23,1.23,0,0,1,1-.6,1.66,1.66,0,0,1,.7.19l-.37.7a.82.82,0,0,0-.46-.15.73.73,0,0,0-.62.28,1.93,1.93,0,0,0-.26,1.21V67h-.78Z"/><path class="cls-1" d="M46.27,62.53h.78V63a1.24,1.24,0,0,1,1-.6,1.66,1.66,0,0,1,.69.19l-.37.7a.79.79,0,0,0-.45-.15.76.76,0,0,0-.63.28,1.93,1.93,0,0,0-.26,1.21V67h-.78Z"/><path class="cls-1" d="M52.29,62.53h.78V67h-.78V66.4a1.91,1.91,0,0,1-1.54.75,2.37,2.37,0,0,1,0-4.73,1.87,1.87,0,0,1,1.54.75Zm-2.93,2.24a1.5,1.5,0,0,0,1.48,1.69,1.54,1.54,0,0,0,1.49-1.68,1.51,1.51,0,0,0-1.49-1.66A1.49,1.49,0,0,0,49.36,64.77Z"/><path class="cls-1" d="M57.58,59.13h.78V67h-.78V66.4a1.91,1.91,0,0,1-1.54.75,2.37,2.37,0,0,1,0-4.73,1.87,1.87,0,0,1,1.54.75Zm-2.92,5.64a1.5,1.5,0,0,0,1.47,1.69,1.54,1.54,0,0,0,1.49-1.68,1.51,1.51,0,0,0-1.49-1.66A1.49,1.49,0,0,0,54.66,64.77Z"/><path class="cls-1" d="M59.15,64.79a2.38,2.38,0,1,1,2.38,2.36A2.3,2.3,0,0,1,59.15,64.79Zm.8,0a1.58,1.58,0,1,0,1.58-1.67A1.56,1.56,0,0,0,60,64.79Z"/><path class="cls-1" d="M18.91,70.62h1.48a3.93,3.93,0,0,1,2.66.85,3.51,3.51,0,0,1,1.23,2.77A3.42,3.42,0,0,1,23,77a3.61,3.61,0,0,1-2.65.84H18.91Zm.8,6.47h.71a3.13,3.13,0,0,0,2.07-.65,2.9,2.9,0,0,0-2.07-5.06h-.71Z"/><path class="cls-1" d="M29.14,76.7a2.51,2.51,0,0,1-.55.72,2.18,2.18,0,0,1-1.5.56,2.15,2.15,0,0,1-2.21-2.35,2.18,2.18,0,0,1,2.17-2.39,2,2,0,0,1,1.7.83,3,3,0,0,1,.42,1.69H25.68a1.43,1.43,0,0,0,1.43,1.52A1.41,1.41,0,0,0,28,77a1.93,1.93,0,0,0,.46-.62Zm-.77-1.59a1.34,1.34,0,0,0-1.32-1.17,1.37,1.37,0,0,0-1.32,1.17Z"/><path class="cls-1" d="M34.05,71.38v6.47h-.8V71.38H31.5v-.76h4.31v.76Z"/><path class="cls-1" d="M36.23,76.87a.54.54,0,0,1,0,1.08.54.54,0,0,1,0-1.08Z"/><path class="cls-1" d="M38,70.62l2,5.52,2-5.52H43l-2.92,7.66-2.92-7.66Z"/><path class="cls-1" d="M43.24,76.87a.54.54,0,1,1-.54.54A.55.55,0,0,1,43.24,76.87Z"/><path class="cls-1" d="M31.23,56.72A27.94,27.94,0,1,1,59.17,28.78,28,28,0,0,1,31.23,56.72Zm0-54.52A26.59,26.59,0,1,0,57.81,28.78,26.61,26.61,0,0,0,31.23,2.2Z"/><rect class="cls-1" x="15.05" y="28.39" width="2.01" height="18.47"/><path class="cls-1" d="M23.39,26.72a3.56,3.56,0,0,0,1.7,4.88,3.65,3.65,0,0,0,4.72-1.73l.13-.24a0,0,0,0,0,0-.05l-6.3-3.22s-.05,0-.06,0Z"/><path class="cls-1" d="M40.62,34.16a1.77,1.77,0,0,1-.8-.19L18,22.81a1.76,1.76,0,0,1-.77-2.36l3.27-6.4a1.76,1.76,0,0,1,2.36-.76L44.68,24.45a1.75,1.75,0,0,1,.77,2.36L42.18,33.2A1.74,1.74,0,0,1,40.62,34.16ZM22,13.78a1.06,1.06,0,0,0-.95.58l-3.27,6.4a1.07,1.07,0,0,0,.47,1.44L40.13,33.36a1.08,1.08,0,0,0,1.45-.47l3.26-6.39a1.06,1.06,0,0,0-.47-1.44L22.53,13.9A1.07,1.07,0,0,0,22,13.78Z"/><rect class="cls-1" x="42.42" y="29.88" width="5.19" height="1.34" transform="translate(-2.67 56.74) rotate(-62.94)"/><path class="cls-1" d="M46.92,29.12l-2,3.87a.86.86,0,0,0,1.15-.37l1.2-2.35A.86.86,0,0,0,46.92,29.12Z"/><path class="cls-1" d="M42.28,16.15a1.4,1.4,0,1,0,1.4,1.4A1.4,1.4,0,0,0,42.28,16.15Z"/><path class="cls-1" d="M48.81,14.27a7.31,7.31,0,0,0-13.06,0,.76.76,0,1,0,1.36.69,5.78,5.78,0,0,1,10.34,0,.77.77,0,0,0,.68.42.81.81,0,0,0,.34-.08A.77.77,0,0,0,48.81,14.27Z"/><path class="cls-1" d="M42.28,13.15a4.37,4.37,0,0,0-3.93,2.43.76.76,0,0,0,.33,1,.85.85,0,0,0,.35.08.75.75,0,0,0,.68-.42,2.87,2.87,0,0,1,5.14,0,.76.76,0,0,0,1.36-.68A4.37,4.37,0,0,0,42.28,13.15Z"/><path class="cls-1" d="M26,33a3.4,3.4,0,0,1-1.59-.31,3.57,3.57,0,0,1-2-2.38l-6.4,3.87v8.11Z"/></svg>