<svg id="Capa_1" data-name="Capa 1" xmlns="http://www.w3.org/2000/svg" viewBox="0 0 81.92 89.17"><defs><style>.cls-1{fill:#fff;}</style></defs><path class="cls-1" d="M15.72,59.38V66.6h-.81V59.38Z"/><path class="cls-1" d="M17,62.11h.78v.52A1.59,1.59,0,0,1,19.05,62a1.53,1.53,0,0,1,1.29.62,2,2,0,0,1,.26,1.2V66.6h-.78V63.84a1.28,1.28,0,0,0-.21-.82.86.86,0,0,0-.73-.33,1,1,0,0,0-.79.35,1.86,1.86,0,0,0-.33,1.21V66.6H17Z"/><path class="cls-1" d="M22.47,62.82V66.6h-.78V62.82h-.43v-.71h.43v-2a1.57,1.57,0,0,1,.43-1.27,1.43,1.43,0,0,1,.9-.29,1.5,1.5,0,0,1,.55.1v.76a1.29,1.29,0,0,0-.51-.1.52.52,0,0,0-.49.24,1.31,1.31,0,0,0-.1.65v1.87h1.1v.71Z"/><path class="cls-1" d="M23.86,62.11h.78v.49a1.25,1.25,0,0,1,1-.6,1.58,1.58,0,0,1,.69.19l-.36.7a.82.82,0,0,0-.46-.15.77.77,0,0,0-.63.28,1.93,1.93,0,0,0-.26,1.21V66.6h-.78Z"/><path class="cls-1" d="M29.88,62.11h.78V66.6h-.78V66a1.9,1.9,0,0,1-1.54.75,2.37,2.37,0,0,1,0-4.73,1.85,1.85,0,0,1,1.54.75ZM27,64.35A1.5,1.5,0,0,0,28.43,66a1.69,1.69,0,0,0,0-3.35A1.5,1.5,0,0,0,27,64.35Z"/><path class="cls-1" d="M35.72,65.46a2.55,2.55,0,0,1-.56.72A2.32,2.32,0,1,1,33.63,62a2,2,0,0,1,1.7.82,3.08,3.08,0,0,1,.42,1.69h-3.5A1.44,1.44,0,0,0,33.68,66a1.39,1.39,0,0,0,.92-.32,1.82,1.82,0,0,0,.47-.62ZM35,63.86a1.35,1.35,0,0,0-1.32-1.17,1.37,1.37,0,0,0-1.33,1.17Z"/><path class="cls-1" d="M38.39,63.15a.7.7,0,0,0-.63-.46.5.5,0,0,0-.54.51c0,.33.21.43.72.64a2.68,2.68,0,0,1,1.13.7,1.06,1.06,0,0,1,.24.72,1.43,1.43,0,0,1-1.55,1.47,1.6,1.6,0,0,1-1.57-1.14l.67-.29a1,1,0,0,0,.91.74.7.7,0,0,0,.74-.71c0-.43-.31-.57-.73-.75a2.88,2.88,0,0,1-1.09-.66,1,1,0,0,1-.21-.66A1.21,1.21,0,0,1,37.79,62a1.32,1.32,0,0,1,1.24.81Z"/><path class="cls-1" d="M40.75,62.82V66.6H40V62.82h-.48v-.71H40V60.49h.78v1.62h.77v.71Z"/><path class="cls-1" d="M41.86,62.11h.78v.49a1.24,1.24,0,0,1,1-.6,1.66,1.66,0,0,1,.69.19l-.37.7a.77.77,0,0,0-.45-.15.76.76,0,0,0-.63.28,1.93,1.93,0,0,0-.26,1.21V66.6h-.78Z"/><path class="cls-1" d="M45.44,64.73a1.5,1.5,0,0,0,.22,1,1.07,1.07,0,0,0,1.58,0,1.5,1.5,0,0,0,.22-1V62.11h.77v2.71a1.77,1.77,0,0,1-.41,1.35,2,2,0,0,1-2.75,0,1.81,1.81,0,0,1-.41-1.35V62.11h.78Z"/><path class="cls-1" d="M52.82,63.37a1.81,1.81,0,0,0-1.4-.68,1.68,1.68,0,0,0,0,3.35,1.93,1.93,0,0,0,1.46-.7v.93a2.38,2.38,0,0,1-1.43.46A2.3,2.3,0,0,1,49,64.38,2.33,2.33,0,0,1,51.43,62a2.36,2.36,0,0,1,1.39.43Z"/><path class="cls-1" d="M54.44,62.82V66.6h-.78V62.82h-.47v-.71h.47V60.49h.78v1.62h.78v.71Z"/><path class="cls-1" d="M56.34,64.73a1.56,1.56,0,0,0,.21,1,1.08,1.08,0,0,0,1.59,0,1.56,1.56,0,0,0,.21-1V62.11h.78v2.71a1.77,1.77,0,0,1-.41,1.35,2,2,0,0,1-2.75,0,1.77,1.77,0,0,1-.41-1.35V62.11h.78Z"/><path class="cls-1" d="M60.2,62.11H61v.49a1.25,1.25,0,0,1,1-.6,1.58,1.58,0,0,1,.69.19l-.37.7a.77.77,0,0,0-.45-.15.76.76,0,0,0-.63.28A1.93,1.93,0,0,0,61,64.23V66.6H60.2Z"/><path class="cls-1" d="M66.22,62.11H67V66.6h-.78V66a1.91,1.91,0,0,1-1.54.75,2.37,2.37,0,0,1,0-4.73,1.87,1.87,0,0,1,1.54.75ZM63.3,64.35A1.5,1.5,0,0,0,64.77,66a1.69,1.69,0,0,0,0-3.35A1.5,1.5,0,0,0,63.3,64.35Z"/><path class="cls-1" d="M4.62,71H1.67V73.1H4.53v.76H1.67v2.81h3v.76H.87V70.2H4.62Z"/><path class="cls-1" d="M6.27,69.53v7.9H5.49v-7.9Z"/><path class="cls-1" d="M11.32,76.28a2.51,2.51,0,0,1-.55.72,2.17,2.17,0,0,1-1.49.56,2.16,2.16,0,0,1-2.22-2.35,2.18,2.18,0,0,1,2.18-2.39,2,2,0,0,1,1.69.83,3,3,0,0,1,.43,1.69H7.86a1.43,1.43,0,0,0,1.43,1.52,1.39,1.39,0,0,0,.92-.32,1.82,1.82,0,0,0,.47-.62Zm-.76-1.59a1.34,1.34,0,0,0-1.32-1.17,1.37,1.37,0,0,0-1.33,1.17Zm0-4.11L9.12,72l-.49-.26,1.14-1.57Z"/><path class="cls-1" d="M15.66,74.19a1.8,1.8,0,0,0-1.4-.67,1.67,1.67,0,0,0,0,3.34,1.92,1.92,0,0,0,1.45-.7v.93a2.4,2.4,0,0,1-1.43.47,2.37,2.37,0,1,1,0-4.74,2.28,2.28,0,0,1,1.39.44Z"/><path class="cls-1" d="M17.29,73.65v3.78h-.78V73.65H16v-.72h.48V71.31h.78v1.62h.77v.72Z"/><path class="cls-1" d="M18.4,72.93h.78v.49a1.25,1.25,0,0,1,1-.6,1.58,1.58,0,0,1,.69.19l-.37.7a.77.77,0,0,0-.45-.15.76.76,0,0,0-.63.28,2,2,0,0,0-.26,1.21v2.38H18.4Z"/><path class="cls-1" d="M21.59,70.68a.55.55,0,1,1,0,1.1.55.55,0,0,1,0-1.1ZM22,72.93v4.5H21.2v-4.5Z"/><path class="cls-1" d="M26.57,74.19a1.81,1.81,0,0,0-1.41-.67,1.67,1.67,0,0,0,0,3.34,1.89,1.89,0,0,0,1.45-.7v.93a2.36,2.36,0,0,1-1.43.47,2.37,2.37,0,1,1,1.4-4.3Z"/><path class="cls-1" d="M30.83,72.93h.78v4.5h-.78V76.8a1.88,1.88,0,0,1-1.53.76,2.18,2.18,0,0,1-2.19-2.39,2.16,2.16,0,0,1,2.19-2.35,1.85,1.85,0,0,1,1.53.75Zm-2.92,2.24a1.5,1.5,0,0,0,1.47,1.69,1.54,1.54,0,0,0,1.5-1.68,1.52,1.52,0,0,0-1.5-1.66A1.49,1.49,0,0,0,27.91,75.17Z"/><path class="cls-1" d="M38.23,71.63a1.74,1.74,0,0,0-.43-.54,1.28,1.28,0,0,0-.81-.25A1.11,1.11,0,0,0,35.78,72a.76.76,0,0,0,.27.63,2.55,2.55,0,0,0,.76.45l.69.3a3.64,3.64,0,0,1,1.12.69,1.76,1.76,0,0,1,.52,1.31,2.17,2.17,0,0,1-2.29,2.22A2.15,2.15,0,0,1,35.28,77a2.61,2.61,0,0,1-.67-1.28l.78-.21a1.72,1.72,0,0,0,.43.92,1.4,1.4,0,0,0,1,.4,1.37,1.37,0,0,0,1.45-1.43,1.08,1.08,0,0,0-.35-.85,3.28,3.28,0,0,0-.87-.49l-.65-.31a3.2,3.2,0,0,1-1-.59A1.49,1.49,0,0,1,35,72a1.86,1.86,0,0,1,2-1.87,2,2,0,0,1,1.16.33,2.16,2.16,0,0,1,.7.8Z"/><path class="cls-1" d="M40.79,75.55a1.53,1.53,0,0,0,.22,1,.93.93,0,0,0,.79.34,1,1,0,0,0,.79-.34,1.59,1.59,0,0,0,.21-1V72.93h.78v2.71A1.77,1.77,0,0,1,43.17,77a1.94,1.94,0,0,1-2.75,0A1.77,1.77,0,0,1,40,75.64V72.93h.78Z"/><path class="cls-1" d="M45.43,77.43h-.78v-7.9h.78v4A1.94,1.94,0,0,1,47,72.82a2.23,2.23,0,0,1,2.19,2.39A2.19,2.19,0,0,1,47,77.56a1.93,1.93,0,0,1-1.57-.76Zm2.92-2.22a1.53,1.53,0,0,0-1.47-1.69,1.56,1.56,0,0,0-1.49,1.68,1.53,1.53,0,0,0,1.5,1.66A1.51,1.51,0,0,0,48.35,75.21Z"/><path class="cls-1" d="M50.74,73.65v3.78H50V73.65h-.47v-.72H50V71.31h.78v1.62h.78v.72Z"/><path class="cls-1" d="M55.84,76.28a2.51,2.51,0,0,1-.55.72,2.32,2.32,0,1,1-1.54-4.18,2,2,0,0,1,1.7.83,3,3,0,0,1,.43,1.69h-3.5a1.43,1.43,0,0,0,1.43,1.52,1.39,1.39,0,0,0,.92-.32,1.79,1.79,0,0,0,.46-.62Zm-.77-1.59a1.34,1.34,0,0,0-1.32-1.17,1.37,1.37,0,0,0-1.32,1.17Z"/><path class="cls-1" d="M56.66,72.93h.78v.49a1.25,1.25,0,0,1,1-.6,1.58,1.58,0,0,1,.69.19l-.37.7a.81.81,0,0,0-1.08.13,2,2,0,0,0-.26,1.21v2.38h-.78Z"/><path class="cls-1" d="M59.47,72.93h.78v.49a1.23,1.23,0,0,1,1-.6A1.66,1.66,0,0,1,62,73l-.37.7a.82.82,0,0,0-.46-.15.73.73,0,0,0-.62.28,2,2,0,0,0-.26,1.21v2.38h-.78Z"/><path class="cls-1" d="M65.48,72.93h.78v4.5h-.78V76.8a1.9,1.9,0,0,1-1.53.76,2.18,2.18,0,0,1-2.19-2.39A2.16,2.16,0,0,1,64,72.82a1.85,1.85,0,0,1,1.53.75Zm-2.92,2.24A1.5,1.5,0,0,0,64,76.86a1.54,1.54,0,0,0,1.5-1.68A1.52,1.52,0,0,0,64,73.52,1.49,1.49,0,0,0,62.56,75.17Zm2.92-4.59L64,72l-.48-.26,1.13-1.57Z"/><path class="cls-1" d="M67.33,72.93h.78v.52a1.59,1.59,0,0,1,1.29-.63,1.53,1.53,0,0,1,1.29.62,2,2,0,0,1,.26,1.2v2.79h-.78V74.67a1.3,1.3,0,0,0-.21-.83.89.89,0,0,0-.73-.32,1,1,0,0,0-.79.34,1.87,1.87,0,0,0-.33,1.22v2.35h-.78Z"/><path class="cls-1" d="M76,76.28a2.51,2.51,0,0,1-.55.72,2.32,2.32,0,1,1-1.54-4.18,2,2,0,0,1,1.7.83A3,3,0,0,1,76,75.34H72.54A1.43,1.43,0,0,0,74,76.86a1.41,1.41,0,0,0,.92-.32,1.93,1.93,0,0,0,.46-.62Zm-.77-1.59a1.34,1.34,0,0,0-1.32-1.17,1.37,1.37,0,0,0-1.32,1.17Z"/><path class="cls-1" d="M80.27,72.93h.78v4.5h-.78V76.8a1.92,1.92,0,0,1-1.54.76,2.18,2.18,0,0,1-2.19-2.39,2.16,2.16,0,0,1,2.19-2.35,1.88,1.88,0,0,1,1.54.75Zm-2.93,2.24a1.5,1.5,0,0,0,1.47,1.69,1.54,1.54,0,0,0,1.5-1.68,1.52,1.52,0,0,0-1.5-1.66A1.49,1.49,0,0,0,77.34,75.17Z"/><path class="cls-1" d="M10.63,80.35h.78v7.9h-.78v-.63a1.9,1.9,0,0,1-1.54.76,2.38,2.38,0,0,1,0-4.74,1.85,1.85,0,0,1,1.54.75ZM7.71,86a1.5,1.5,0,0,0,1.47,1.69A1.54,1.54,0,0,0,10.68,86a1.53,1.53,0,0,0-1.5-1.66A1.49,1.49,0,0,0,7.71,86Z"/><path class="cls-1" d="M16.47,87.1a2.55,2.55,0,0,1-.56.72,2.32,2.32,0,1,1-1.53-4.18,2,2,0,0,1,1.7.83,3,3,0,0,1,.42,1.69H13a1.43,1.43,0,0,0,1.43,1.52,1.39,1.39,0,0,0,.92-.32,1.82,1.82,0,0,0,.47-.62Zm-.77-1.59a1.34,1.34,0,0,0-1.32-1.17,1.37,1.37,0,0,0-1.33,1.17Z"/><path class="cls-1" d="M19.35,88.25l1.2-7.63,2.78,6.1,2.82-6.11,1.13,7.64h-.83l-.68-5-2.46,5.33-2.42-5.33-.72,5Z"/><path class="cls-1" d="M32.33,87.1a2.7,2.7,0,0,1-.55.72,2.18,2.18,0,0,1-1.5.56A2.16,2.16,0,0,1,28.06,86a2.19,2.19,0,0,1,2.18-2.39,2,2,0,0,1,1.7.83,3,3,0,0,1,.42,1.69h-3.5a1.43,1.43,0,0,0,1.43,1.52,1.39,1.39,0,0,0,.92-.32,1.82,1.82,0,0,0,.47-.62Zm-.77-1.59a1.34,1.34,0,0,0-1.32-1.17,1.37,1.37,0,0,0-1.32,1.17Z"/><path class="cls-1" d="M36.59,80.35h.78v7.9h-.78v-.63a1.9,1.9,0,0,1-1.54.76,2.38,2.38,0,0,1,0-4.74,1.85,1.85,0,0,1,1.54.75ZM33.67,86a1.5,1.5,0,0,0,1.47,1.69A1.54,1.54,0,0,0,36.64,86a1.53,1.53,0,0,0-1.5-1.66A1.49,1.49,0,0,0,33.67,86Z"/><path class="cls-1" d="M38.72,81.5a.56.56,0,0,1,0,1.11.56.56,0,0,1,0-1.11Zm.39,2.25v4.5h-.78v-4.5Z"/><path class="cls-1" d="M43.63,83.75h.78v4.5h-.78v-.63a1.92,1.92,0,0,1-1.54.76,2.38,2.38,0,0,1,0-4.74,1.88,1.88,0,0,1,1.54.75ZM40.7,86a1.5,1.5,0,0,0,1.47,1.69A1.54,1.54,0,0,0,43.67,86a1.52,1.52,0,0,0-1.5-1.66A1.49,1.49,0,0,0,40.7,86Z"/><path class="cls-1" d="M49.57,81.78v6.47h-.81V81.78H47V81h4.31v.76Z"/><path class="cls-1" d="M54.88,87.1a2.7,2.7,0,0,1-.55.72,2.18,2.18,0,0,1-1.5.56A2.16,2.16,0,0,1,50.61,86a2.19,2.19,0,0,1,2.18-2.39,2,2,0,0,1,1.7.83,3,3,0,0,1,.42,1.69h-3.5a1.44,1.44,0,0,0,1.43,1.52,1.39,1.39,0,0,0,.92-.32,1.82,1.82,0,0,0,.47-.62Zm-.77-1.59a1.34,1.34,0,0,0-1.32-1.17,1.37,1.37,0,0,0-1.32,1.17Z"/><path class="cls-1" d="M55.7,83.75h.78v.52a1.59,1.59,0,0,1,1.29-.63,1.53,1.53,0,0,1,1.29.62,2.08,2.08,0,0,1,.26,1.2v2.79h-.78V85.49a1.3,1.3,0,0,0-.21-.83.89.89,0,0,0-.74-.32,1,1,0,0,0-.79.34,1.92,1.92,0,0,0-.32,1.22v2.35H55.7Z"/><path class="cls-1" d="M62.24,84.79a.69.69,0,0,0-.63-.45.5.5,0,0,0-.54.51c0,.32.21.42.72.64a2.69,2.69,0,0,1,1.13.69,1.08,1.08,0,0,1,.24.72,1.43,1.43,0,0,1-1.55,1.48A1.62,1.62,0,0,1,60,87.23l.67-.28a1,1,0,0,0,.91.73.7.7,0,0,0,.74-.71c0-.42-.31-.56-.73-.75a2.88,2.88,0,0,1-1.09-.66,1,1,0,0,1-.21-.66,1.21,1.21,0,0,1,1.31-1.26,1.31,1.31,0,0,1,1.24.82Z"/><path class="cls-1" d="M64.18,81.5a.56.56,0,1,1-.55.55A.56.56,0,0,1,64.18,81.5Zm.39,2.25v4.5h-.78v-4.5Z"/><path class="cls-1" d="M65.36,86a2.39,2.39,0,1,1,2.39,2.36A2.31,2.31,0,0,1,65.36,86Zm.8,0a1.59,1.59,0,1,0,1.59-1.68A1.56,1.56,0,0,0,66.16,86Zm3.06-4.62-1.45,1.47-.49-.26L68.42,81Z"/><path class="cls-1" d="M70.91,83.75h.78v.52A1.61,1.61,0,0,1,73,83.64a1.53,1.53,0,0,1,1.29.62,2,2,0,0,1,.26,1.2v2.79h-.78V85.49a1.35,1.35,0,0,0-.2-.83.91.91,0,0,0-.74-.32,1,1,0,0,0-.79.34,1.94,1.94,0,0,0-.33,1.22v2.35h-.78Z"/><path class="cls-1" d="M40.86,56.67a28,28,0,1,1,28-28A28.05,28.05,0,0,1,40.86,56.67Zm0-54.7A26.68,26.68,0,1,0,67.53,28.65,26.71,26.71,0,0,0,40.86,2Z"/><polygon class="cls-1" points="39.24 9.94 29 32.21 40.86 32.21 40.86 47.55 51.6 25.19 39.24 25.19 39.24 9.94"/></svg>