<svg id="Capa_1" data-name="Capa 1" xmlns="http://www.w3.org/2000/svg" viewBox="0 0 57.49 80.35"><defs><style>.cls-1{fill:#fff;}</style></defs><path class="cls-1" d="M12.47,61a1.87,1.87,0,0,0-.42-.54,1.29,1.29,0,0,0-.82-.25A1.11,1.11,0,0,0,10,61.32a.75.75,0,0,0,.27.62,2.38,2.38,0,0,0,.76.46l.69.3a3.57,3.57,0,0,1,1.12.68,1.75,1.75,0,0,1,.52,1.31,2.17,2.17,0,0,1-2.29,2.22,2.15,2.15,0,0,1-1.57-.58,2.69,2.69,0,0,1-.67-1.28l.78-.21a1.84,1.84,0,0,0,.43.92,1.42,1.42,0,0,0,1,.4,1.38,1.38,0,0,0,1.46-1.43,1.09,1.09,0,0,0-.36-.85,3.57,3.57,0,0,0-.87-.5l-.65-.3a3.2,3.2,0,0,1-1-.59,1.5,1.5,0,0,1-.5-1.19,1.87,1.87,0,0,1,2-1.86,1.93,1.93,0,0,1,1.16.33,2,2,0,0,1,.71.8Z"/><path class="cls-1" d="M18.24,65.64a2.55,2.55,0,0,1-.56.72,2.32,2.32,0,1,1-1.53-4.18,2,2,0,0,1,1.7.83,3,3,0,0,1,.42,1.68h-3.5a1.44,1.44,0,0,0,1.43,1.53,1.39,1.39,0,0,0,.92-.32,1.82,1.82,0,0,0,.47-.62Zm-.77-1.59a1.34,1.34,0,0,0-1.32-1.17,1.36,1.36,0,0,0-1.32,1.17Z"/><path class="cls-1" d="M22.5,62.29h.78v4.39a2.83,2.83,0,0,1-.43,1.76,2.19,2.19,0,0,1-1.8.83,2.22,2.22,0,0,1-1.6-.6,2,2,0,0,1-.59-1.45h.77a1.39,1.39,0,0,0,.35.93,1.36,1.36,0,0,0,1.08.43A1.25,1.25,0,0,0,22.25,68a2,2,0,0,0,.25-1.14v-.65a1.91,1.91,0,0,1-1.54.75,2.19,2.19,0,0,1-1.54-.6,2.47,2.47,0,0,1-.64-1.78,2.37,2.37,0,0,1,.64-1.74A2.23,2.23,0,0,1,21,62.18a1.87,1.87,0,0,1,1.54.75ZM20,63.3a1.94,1.94,0,0,0,.06,2.55,1.33,1.33,0,0,0,1,.37,1.3,1.3,0,0,0,1-.38,1.79,1.79,0,0,0,.51-1.3,1.76,1.76,0,0,0-.47-1.26,1.44,1.44,0,0,0-1-.4A1.38,1.38,0,0,0,20,63.3Z"/><path class="cls-1" d="M25.13,64.91a1.55,1.55,0,0,0,.21,1,1.08,1.08,0,0,0,1.59,0,1.55,1.55,0,0,0,.21-1V62.29h.78V65a1.77,1.77,0,0,1-.41,1.35,2,2,0,0,1-2.75,0A1.77,1.77,0,0,1,24.35,65V62.29h.78Z"/><path class="cls-1" d="M29,62.29h.78v.49a1.25,1.25,0,0,1,1-.6,1.58,1.58,0,0,1,.69.19l-.37.7a.77.77,0,0,0-.45-.15.76.76,0,0,0-.63.28,1.93,1.93,0,0,0-.26,1.21v2.37H29Z"/><path class="cls-1" d="M32.18,60a.55.55,0,1,1,0,1.1.55.55,0,0,1,0-1.1Zm.39,2.25v4.49h-.78V62.29Z"/><path class="cls-1" d="M37.09,58.89h.78v7.89h-.78v-.62a1.91,1.91,0,0,1-1.54.75,2.37,2.37,0,0,1,0-4.73,1.87,1.87,0,0,1,1.54.75Zm-2.93,5.64a1.5,1.5,0,0,0,1.48,1.69,1.54,1.54,0,0,0,1.49-1.68,1.51,1.51,0,0,0-1.49-1.66A1.49,1.49,0,0,0,34.16,64.53Z"/><path class="cls-1" d="M42.38,62.29h.78v4.49h-.78v-.62a1.91,1.91,0,0,1-1.54.75,2.37,2.37,0,0,1,0-4.73,1.87,1.87,0,0,1,1.54.75Zm-2.93,2.24a1.51,1.51,0,0,0,1.48,1.69,1.54,1.54,0,0,0,1.49-1.68,1.51,1.51,0,0,0-1.49-1.66A1.49,1.49,0,0,0,39.45,64.53Z"/><path class="cls-1" d="M47.67,58.89h.78v7.89h-.78v-.62a1.91,1.91,0,0,1-1.54.75,2.37,2.37,0,0,1,0-4.73,1.87,1.87,0,0,1,1.54.75Zm-2.92,5.64a1.5,1.5,0,0,0,1.47,1.69,1.54,1.54,0,0,0,1.49-1.68,1.51,1.51,0,0,0-1.49-1.66A1.49,1.49,0,0,0,44.75,64.53Z"/><path class="cls-1" d="M17.74,77.61l2.63-3c.18-.21.67-.79.84-1a1.81,1.81,0,0,0,.4-1.1A1.37,1.37,0,0,0,20.17,71a1.39,1.39,0,0,0-1.2.64,1.62,1.62,0,0,0-.24.86h-.8a2.31,2.31,0,0,1,.54-1.5,2.27,2.27,0,0,1,3.94,1.42A2.57,2.57,0,0,1,21.84,74c-.3.42-.69.86-1,1.2l-1.5,1.7h3v.74Z"/><path class="cls-1" d="M27.12,75.51H28v.73h-.89v1.37h-.8V76.24h-3.7L27.12,70Zm-.8,0v-3.2L24,75.51Z"/><path class="cls-1" d="M33.71,69.39l.63.32-5.57,10-.62-.3Z"/><path class="cls-1" d="M38.82,71.12h-4v-.74h5.3l-4.83,7.4-.63-.42Z"/><path class="cls-1" d="M28.75,56.48A27.94,27.94,0,1,1,56.69,28.54,28,28,0,0,1,28.75,56.48ZM28.75,2A26.59,26.59,0,1,0,55.33,28.54,26.61,26.61,0,0,0,28.75,2Z"/><path class="cls-1" d="M36.27,11.49c-1.17-.18-3.23.36-4.49-.27a18.38,18.38,0,0,0-3-1.08,18.43,18.43,0,0,0-3,1.08c-1.26.63-3.32.09-4.49.27s-3.5,2.16-4.13,3.23l3.32,3.15s.27-1.8,1.89-2c1.17-.13,2.73,0,4.42-.06a3.22,3.22,0,0,1-.11-.84c0-1.48.92-2.69,2.06-2.69s2.07,1.21,2.07,2.69a3.71,3.71,0,0,1-.11.84c1.69.08,3.25-.07,4.42.06,1.62.18,1.89,2,1.89,2l3.32-3.15C39.77,13.65,37.44,11.67,36.27,11.49Z"/><path class="cls-1" d="M36.18,21.64a9,9,0,0,0,0-2.87s.9-.9-7.37-.9-7.36.9-7.36.9a9,9,0,0,0,0,2.87s-.81.09-.54,1.89a1.55,1.55,0,0,0,2,1.34,9,9,0,0,0,5.91,5.39,9,9,0,0,0,5.92-5.39,1.55,1.55,0,0,0,2-1.34C37,21.73,36.18,21.64,36.18,21.64Zm-7.37,7.73c-6.11-2.58-6.19-9.08-6.19-9.08s.54-.63,2.21,0a15.82,15.82,0,0,0,4,.68,15.67,15.67,0,0,0,4-.68c1.68-.63,2.22,0,2.22,0S34.93,26.79,28.81,29.37Z"/><path class="cls-1" d="M24.68,29S26.48,32.15,28,33L27,44.54H18.57c-2,0-1.43-3.77-1.34-6.64s-.09-3.24,1.88-4.76S24.68,29,24.68,29Z"/><path class="cls-1" d="M40.27,37.9c-.09-2.88.09-3.24-1.89-4.76S32.81,29,32.81,29,31,32.15,29.49,33l1,11.58h8.44C40.89,44.54,40.36,40.77,40.27,37.9Zm-5.66,2.24c-2,0-1.57-4-1.57-4h3.14S36.63,40.14,34.61,40.14Z"/></svg>