<svg id="Capa_1" data-name="Capa 1" xmlns="http://www.w3.org/2000/svg" viewBox="0 0 61.53 68.07"><defs><style>.cls-1{fill:#fff;}</style></defs><path class="cls-1" d="M5.48,65.33H2.41l-.87,2H.65L4,59.8l3.23,7.57H6.33Zm-.31-.76L4,61.68,2.72,64.57Zm.41-6.27L3.92,59.57l-.46-.35,1.36-1.4Z"/><path class="cls-1" d="M7.63,62.87h.78v.49a1.25,1.25,0,0,1,1-.6,1.58,1.58,0,0,1,.69.19l-.36.7a.82.82,0,0,0-.46-.15.77.77,0,0,0-.63.28A2,2,0,0,0,8.41,65v2.38H7.63Z"/><path class="cls-1" d="M14.16,66.22a2.51,2.51,0,0,1-.55.72,2.18,2.18,0,0,1-1.5.56,2.16,2.16,0,0,1-2.22-2.35,2.19,2.19,0,0,1,2.18-2.39,2,2,0,0,1,1.7.83,3,3,0,0,1,.42,1.69H10.7a1.43,1.43,0,0,0,1.43,1.52,1.41,1.41,0,0,0,.92-.32,1.93,1.93,0,0,0,.46-.62Zm-.77-1.59a1.34,1.34,0,0,0-1.32-1.17,1.37,1.37,0,0,0-1.32,1.17Z"/><path class="cls-1" d="M18.42,62.87h.78v4.5h-.78v-.63a1.9,1.9,0,0,1-1.53.76,2.38,2.38,0,0,1,0-4.74,1.85,1.85,0,0,1,1.53.75ZM15.5,65.11A1.5,1.5,0,0,0,17,66.8a1.54,1.54,0,0,0,1.5-1.68A1.52,1.52,0,0,0,17,63.46,1.49,1.49,0,0,0,15.5,65.11Z"/><path class="cls-1" d="M28.11,61.74a3.43,3.43,0,0,0-.94-.67,3,3,0,0,0-1.25-.29,3,3,0,0,0,0,6,3,3,0,0,0,1.35-.34,3.15,3.15,0,0,0,.83-.6v1a3.72,3.72,0,0,1-2.18.71A3.74,3.74,0,1,1,26,60a3.4,3.4,0,0,1,2.13.71Z"/><path class="cls-1" d="M28.7,65.14a2.39,2.39,0,1,1,2.38,2.36A2.31,2.31,0,0,1,28.7,65.14Zm.8,0a1.59,1.59,0,1,0,1.58-1.68A1.55,1.55,0,0,0,29.5,65.14Z"/><path class="cls-1" d="M34.25,62.87H35v.48a1.31,1.31,0,0,1,1.12-.59,1.35,1.35,0,0,1,1.22.73,1.51,1.51,0,0,1,1.35-.73c1.34,0,1.47,1.12,1.47,1.76v2.85h-.78V64.64c0-.51-.07-1.18-.8-1.18-.9,0-1,.86-1,1.4v2.51h-.78V64.7c0-.31,0-1.24-.81-1.24s-1,.92-1,1.46v2.45h-.78Z"/><path class="cls-1" d="M45.25,66.22a2.7,2.7,0,0,1-.55.72,2.18,2.18,0,0,1-1.5.56A2.16,2.16,0,0,1,41,65.15a2.19,2.19,0,0,1,2.18-2.39,2,2,0,0,1,1.7.83,3,3,0,0,1,.42,1.69H41.79a1.43,1.43,0,0,0,1.42,1.52,1.39,1.39,0,0,0,.92-.32,1.82,1.82,0,0,0,.47-.62Zm-.77-1.59a1.34,1.34,0,0,0-1.32-1.17,1.37,1.37,0,0,0-1.32,1.17Z"/><path class="cls-1" d="M46.07,62.87h.78v.49a1.25,1.25,0,0,1,1-.6,1.58,1.58,0,0,1,.69.19l-.37.7a.77.77,0,0,0-.45-.15.76.76,0,0,0-.63.28A2,2,0,0,0,46.85,65v2.38h-.78Z"/><path class="cls-1" d="M52.13,64.13a1.8,1.8,0,0,0-1.41-.67,1.67,1.67,0,0,0,0,3.34,1.89,1.89,0,0,0,1.45-.7V67a2.35,2.35,0,0,1-1.42.47,2.37,2.37,0,1,1,0-4.74,2.35,2.35,0,0,1,1.39.44Z"/><path class="cls-1" d="M53.34,60.62a.56.56,0,0,1,0,1.11.56.56,0,0,1,0-1.11Zm.39,2.25v4.5H53v-4.5Z"/><path class="cls-1" d="M58.25,62.87H59v4.5h-.78v-.63a1.92,1.92,0,0,1-1.54.76,2.38,2.38,0,0,1,0-4.74,1.88,1.88,0,0,1,1.54.75Zm-2.93,2.24a1.5,1.5,0,0,0,1.47,1.69,1.54,1.54,0,0,0,1.5-1.68,1.52,1.52,0,0,0-1.5-1.66A1.49,1.49,0,0,0,55.32,65.11Z"/><path class="cls-1" d="M60.87,59.47v7.9h-.78v-7.9Z"/><path class="cls-1" d="M30.89,57A28.2,28.2,0,1,1,59.08,28.77,28.23,28.23,0,0,1,30.89,57Zm0-55A26.85,26.85,0,1,0,57.73,28.77,26.88,26.88,0,0,0,30.89,1.92Z"/><path class="cls-1" d="M19.29,12.05H42.34a1.14,1.14,0,1,0,0-2.27H19.29a1.14,1.14,0,0,0,0,2.27Z"/><path class="cls-1" d="M43.24,13.11H18.47L14.3,21.29H47.4Zm-20.1,2.34-2.22,4a.56.56,0,0,1-.5.29.52.52,0,0,1-.27-.07.56.56,0,0,1-.22-.77l2.22-4a.57.57,0,0,1,.78-.21A.56.56,0,0,1,23.14,15.45Zm4.25.14-2.22,4a.59.59,0,0,1-.5.29.72.72,0,0,1-.28-.07.57.57,0,0,1-.21-.78l2.22-4a.57.57,0,1,1,1,.55Zm4.07,3.66a.58.58,0,0,1-.57.57.57.57,0,0,1-.57-.57V15.17a.57.57,0,0,1,.57-.57.58.58,0,0,1,.57.57Zm5.86.53a.68.68,0,0,1-.28.07.58.58,0,0,1-.49-.29l-2.22-4a.56.56,0,0,1,.21-.77.58.58,0,0,1,.78.22l2.22,4A.57.57,0,0,1,37.32,19.78Zm4.25-.15a.55.55,0,0,1-.28.07.54.54,0,0,1-.49-.29l-2.23-4a.57.57,0,0,1,.22-.77.56.56,0,0,1,.77.21l2.23,4A.57.57,0,0,1,41.57,19.63Z"/><polygon class="cls-1" points="31.83 35.33 32.29 35.79 38.03 29.98 37.57 29.52 31.83 35.33"/><polygon class="cls-1" points="34.7 35.33 35.16 35.78 38.03 32.88 37.57 32.43 34.7 35.33"/><polygon class="cls-1" points="35.16 29.98 34.7 29.52 31.84 32.43 32.3 32.88 35.16 29.98"/><path class="cls-1" d="M22.8,31.47a.86.86,0,0,0,.32.66v3a.86.86,0,0,0-.32.66.88.88,0,1,0,1.76,0,.85.85,0,0,0-.31-.66v-3a.85.85,0,0,0,.31-.66.88.88,0,0,0-1.76,0Z"/><path class="cls-1" d="M46.51,40.74H44.58V27.32a4.17,4.17,0,0,0,2.67-3.82v-1H14.5v1a4.15,4.15,0,0,0,.17,1.11,4.07,4.07,0,0,0,2.49,2.7V40.74h-2a1.14,1.14,0,0,0,0,2.27H46.51a1.14,1.14,0,1,0,0-2.27Zm-20.87,0H19.43V27.44a4,4,0,0,0,3.07-2.83h.35a4.08,4.08,0,0,0,2.79,2.79Zm16.67,0H26.77V27.59a4.08,4.08,0,0,0,3.91-3h.38a4.07,4.07,0,0,0,7.84,0h.34a4.06,4.06,0,0,0,3.07,2.83Z"/></svg>