<svg id="Capa_1" data-name="Capa 1" xmlns="http://www.w3.org/2000/svg" viewBox="0 0 57.49 80.61"><defs><style>.cls-1{fill:#fff;}</style></defs><path class="cls-1" d="M9.57,64.71H6.5l-.87,2H4.74l3.32-7.57,3.24,7.57h-.89ZM9.26,64,8,61.06,6.81,64Z"/><path class="cls-1" d="M12.5,64.87a1.5,1.5,0,0,0,.22,1,1,1,0,0,0,.79.35,1,1,0,0,0,.79-.35,1.56,1.56,0,0,0,.21-1V62.25h.78V65a1.77,1.77,0,0,1-.41,1.35,2,2,0,0,1-2.75,0A1.81,1.81,0,0,1,11.72,65V62.25h.78Z"/><path class="cls-1" d="M17.16,63v3.78h-.77V63h-.48v-.71h.48V60.62h.77v1.63h.78V63Z"/><path class="cls-1" d="M18,64.51a2.38,2.38,0,1,1,2.38,2.36A2.3,2.3,0,0,1,18,64.51Zm.8,0a1.58,1.58,0,1,0,1.58-1.68A1.56,1.56,0,0,0,18.8,64.51Z"/><path class="cls-1" d="M29.85,64.71H26.77l-.86,2H25l3.32-7.57,3.24,7.57h-.89ZM29.53,64l-1.21-2.89L27.09,64Z"/><path class="cls-1" d="M32.78,66.74H32V58.85h.78v4a1.94,1.94,0,0,1,1.54-.74,2.22,2.22,0,0,1,2.18,2.38,2.18,2.18,0,0,1-2.15,2.35,1.89,1.89,0,0,1-1.57-.76Zm2.92-2.22a1.54,1.54,0,0,0-1.47-1.69,1.56,1.56,0,0,0-1.49,1.68,1.54,1.54,0,0,0,1.5,1.67A1.51,1.51,0,0,0,35.7,64.52Z"/><path class="cls-1" d="M40.73,62.25h.78v4.49h-.78v-.63a1.85,1.85,0,0,1-1.53.76,2.37,2.37,0,0,1,0-4.73,1.85,1.85,0,0,1,1.53.75Zm-2.92,2.24a1.5,1.5,0,0,0,1.47,1.69,1.69,1.69,0,0,0,0-3.35A1.5,1.5,0,0,0,37.81,64.49Z"/><path class="cls-1" d="M44.43,63.29a.68.68,0,0,0-.62-.46.5.5,0,0,0-.55.51c0,.33.22.42.73.64a2.88,2.88,0,0,1,1.13.69,1.09,1.09,0,0,1,.23.73,1.42,1.42,0,0,1-1.54,1.47,1.6,1.6,0,0,1-1.57-1.15l.67-.28a1,1,0,0,0,.91.74.69.69,0,0,0,.73-.72c0-.42-.3-.56-.72-.74a3,3,0,0,1-1.1-.66,1,1,0,0,1-.2-.66,1.21,1.21,0,0,1,1.31-1.26,1.28,1.28,0,0,1,1.23.81Z"/><path class="cls-1" d="M46.79,63v3.78H46V63h-.47v-.71H46V60.62h.78v1.63h.78V63Z"/><path class="cls-1" d="M47.63,64.51A2.38,2.38,0,1,1,50,66.87,2.3,2.3,0,0,1,47.63,64.51Zm.8,0A1.58,1.58,0,1,0,50,62.83,1.56,1.56,0,0,0,48.43,64.51Z"/><path class="cls-1" d="M15.84,69.67h.78v7.89h-.78v-.62a1.91,1.91,0,0,1-1.54.75,2.37,2.37,0,0,1,0-4.73,1.85,1.85,0,0,1,1.54.75Zm-2.92,5.64A1.5,1.5,0,0,0,14.39,77a1.54,1.54,0,0,0,1.49-1.68,1.51,1.51,0,0,0-1.49-1.66A1.49,1.49,0,0,0,12.92,75.31Z"/><path class="cls-1" d="M21.67,76.42a2.51,2.51,0,0,1-.55.72A2.32,2.32,0,1,1,19.58,73a2,2,0,0,1,1.7.83,2.94,2.94,0,0,1,.43,1.68h-3.5A1.44,1.44,0,0,0,19.64,77a1.39,1.39,0,0,0,.92-.32,1.79,1.79,0,0,0,.46-.62Zm-.76-1.59a1.34,1.34,0,0,0-2.65,0Z"/><path class="cls-1" d="M28.79,75.53H25.72l-.87,2H24L27.29,70l3.24,7.56h-.89Zm-.31-.76-1.21-2.89L26,74.77Z"/><path class="cls-1" d="M34.39,73.07h.78v4.39a2.78,2.78,0,0,1-.44,1.76,2.15,2.15,0,0,1-1.79.83,2.27,2.27,0,0,1-1.61-.6A2,2,0,0,1,30.75,78h.77a1.39,1.39,0,0,0,.35.93,1.36,1.36,0,0,0,1.08.43,1.25,1.25,0,0,0,1.19-.63,2,2,0,0,0,.25-1.14v-.65a1.91,1.91,0,0,1-1.54.75,2.19,2.19,0,0,1-1.54-.6,2.47,2.47,0,0,1-.65-1.78,2.37,2.37,0,0,1,.65-1.74A2.21,2.21,0,0,1,32.85,73a1.87,1.87,0,0,1,1.54.75Zm-2.47,1a1.7,1.7,0,0,0-.46,1.23A1.74,1.74,0,0,0,32,76.63a1.37,1.37,0,0,0,1,.37,1.32,1.32,0,0,0,1-.38,1.79,1.79,0,0,0,.51-1.3A1.76,1.76,0,0,0,34,74.06a1.44,1.44,0,0,0-1-.4A1.38,1.38,0,0,0,31.92,74.08Z"/><path class="cls-1" d="M37,75.69a1.55,1.55,0,0,0,.21,1A.94.94,0,0,0,38,77a.92.92,0,0,0,.79-.35,1.49,1.49,0,0,0,.22-1V73.07h.78v2.71a1.77,1.77,0,0,1-.41,1.35,2,2,0,0,1-2.75,0,1.77,1.77,0,0,1-.41-1.35V73.07H37Z"/><path class="cls-1" d="M44.32,73.07h.78v4.49h-.78v-.62a1.9,1.9,0,0,1-1.54.75,2.37,2.37,0,0,1,0-4.73,1.85,1.85,0,0,1,1.54.75ZM41.4,75.31A1.5,1.5,0,0,0,42.87,77a1.54,1.54,0,0,0,1.5-1.68,1.52,1.52,0,0,0-1.5-1.66A1.49,1.49,0,0,0,41.4,75.31Z"/><path class="cls-1" d="M28.75,56.44A27.94,27.94,0,1,1,56.69,28.5,28,28,0,0,1,28.75,56.44Zm0-54.53A26.59,26.59,0,1,0,55.33,28.5,26.62,26.62,0,0,0,28.75,1.91Z"/><path class="cls-1" d="M28.15,12.73C26.8,12.73,16.63,26,16.63,32.38a11.52,11.52,0,1,0,23,0C39.67,26,29.57,12.73,28.15,12.73Zm-2.81,8.66a21.68,21.68,0,0,0-1.77,3.7,44.69,44.69,0,0,0-1.44,4.83c-.26,1-.5,2.06-.81,3.08a1.65,1.65,0,0,1-1.56,1.27.63.63,0,0,1-.67-.52,9.11,9.11,0,0,1-.2-2.08,15.34,15.34,0,0,1,.82-3.53,14,14,0,0,1,1.61-3.3,30.9,30.9,0,0,1,3-3.56,6.68,6.68,0,0,1,.87-.81c.21-.16.31-.11.34.16A1.14,1.14,0,0,1,25.34,21.39Z"/></svg>