<svg id="Capa_1" data-name="Capa 1" xmlns="http://www.w3.org/2000/svg" viewBox="0 0 56.91 79.99"><defs><style>.cls-1{fill:#fff;}</style></defs><path class="cls-1" d="M40.91,28c0,.1-.09.09-.15.08a.75.75,0,0,1-.28-.11l-2-1-1.68-.89c-.69-.36-1.37-.71-2.09-1a.85.85,0,0,0-.79,0l-.59.32a5.06,5.06,0,0,1-.74.36.48.48,0,0,1-.39,0,4.17,4.17,0,0,1-.46-.26c-.61-.41-1.19-.87-1.79-1.31a11.71,11.71,0,0,0-1.46-.94,1.07,1.07,0,0,0-1.22.09c-.4.29-.78.6-1.17.9a7.82,7.82,0,0,1-.88.63,1.17,1.17,0,0,1-1.17.1,7.09,7.09,0,0,0-.9-.37.81.81,0,0,0-.71.07l-.31.19c-.54.36-1,.79-1.54,1.18a8.2,8.2,0,0,1-1,.65,1.54,1.54,0,0,1-1.09.15,10.42,10.42,0,0,1-1.24-.37c-.44-.16-.88-.33-1.33-.46a2.07,2.07,0,0,0-1-.07,7.28,7.28,0,0,0-1,.27c-1,.34-2,.76-3,1.19-1.28.58-2.55,1.19-3.8,1.82l-.13.07c-.05,0,0,.06,0,.14s.07.12.16.07l.2-.1c1.75-.87,3.51-1.72,5.33-2.46a15.22,15.22,0,0,1,2-.69,1.79,1.79,0,0,1,.65-.08,5,5,0,0,1,1.2.33c.55.19,1.09.4,1.65.55a2,2,0,0,0,1.63-.2A12.54,12.54,0,0,0,21,26c.43-.34.85-.7,1.31-1a.82.82,0,0,1,1-.11l.82.34a1.12,1.12,0,0,0,.88,0,3,3,0,0,0,.36-.18,7.83,7.83,0,0,0,.81-.57c.39-.31.78-.62,1.18-.92a.89.89,0,0,1,1.05-.08c.3.16.59.34.88.53.62.43,1.21.9,1.82,1.34a9.43,9.43,0,0,0,.84.56.91.91,0,0,0,.89,0c.2-.09.41-.2.61-.31a4.37,4.37,0,0,1,.68-.35.43.43,0,0,1,.35,0,4.34,4.34,0,0,1,.5.2c1.06.48,2.07,1,3.1,1.57l2.3,1.22a.62.62,0,0,0,.56.08A3,3,0,0,1,40.91,28Z"/><path class="cls-1" d="M50.83,28.36c0-.39-.12-.79-.2-1.18-.13-.62-.28-1.24-.46-1.85s-.4-1.24-.64-1.84a20.37,20.37,0,0,0-1.12-2.36,18.9,18.9,0,0,0-1.91-2.85A20.82,20.82,0,0,0,45,16.64c-.25-.25-.51-.48-.77-.72a20.14,20.14,0,0,0-2.38-1.84c-.39-.26-.79-.51-1.2-.74a20,20,0,0,0-1.78-.92,21.62,21.62,0,0,0-2.34-.95L35.21,11c-.55-.17-1.12-.3-1.69-.44s-1.24-.28-1.87-.39a22.08,22.08,0,0,0-2.31-.29c-.38,0-.75-.07-1.13-.07-.74,0-1.48,0-2.22,0L24.73,10c-.49.05-1,.12-1.48.2s-1.21.21-1.81.36-1,.25-1.48.4-1.2.39-1.79.61c-.8.3-1.58.65-2.35,1s-1.36.72-2,1.12A27.83,27.83,0,0,0,10.52,16c-.75.61-1.6,1.41-2.14,1.95-.06.06,0,.14,0,.1a19.39,19.39,0,0,1,1.72-1.3c.65-.45,1.33-.87,2-1.27a27.41,27.41,0,0,1,2.76-1.39c.6-.26,1.22-.5,1.84-.7a18.44,18.44,0,0,1,1.79-.54,21.79,21.79,0,0,1,20,5,22.4,22.4,0,0,1,2,2.14A21.47,21.47,0,0,1,41.87,22c.28.45.54.9.79,1.37a13.37,13.37,0,0,1,.59,1.27c.13.31.26.62.38.94s.52,1.67.54,1.78l2-.53a11,11,0,0,1,2.33,1.4c.65.48,1.29,1,1.92,1.49l.49.39A9.5,9.5,0,0,0,50.83,28.36Z"/><path class="cls-1" d="M40.91,28a8.2,8.2,0,0,0-.3-1c-.18-.52-.39-1-.62-1.54s-.53-1.13-.83-1.67-.77-1.29-1.2-1.9-.9-1.17-1.39-1.72a13.61,13.61,0,0,0-1.13-1.15c-.45-.4-.91-.8-1.4-1.16a17.28,17.28,0,0,0-2.37-1.51,19.93,19.93,0,0,0-2-.89c-.51-.19-1-.37-1.56-.52a19.14,19.14,0,0,0-2-.46c-.43-.09-.87-.16-1.3-.21l-1-.1c-.34,0-.67,0-1,0a9.87,9.87,0,0,0-1.09,0c-.7,0-1.4,0-2.1.14-.52.06-1.05.15-1.57.22-.23,0-.46.1-.68.15-.39.1-.78.19-1.17.3l-.94.29c-.53.17-1,.38-1.57.6s-1,.46-1.52.72a21.44,21.44,0,0,0-1.86,1.08c-.61.4-1.21.84-1.78,1.3s-.88.76-1.31,1.16c-.06.05-.1,0,0-.05q.38-.4.78-.81a25.36,25.36,0,0,1,1.91-1.67,24.7,24.7,0,0,1,2.7-1.84c.54-.33,1.1-.62,1.67-.9a21.91,21.91,0,0,1,2.46-1A20,20,0,0,1,19,13.19c.55-.12,1.09-.22,1.65-.29s1-.11,1.52-.16a21,21,0,0,1,14.52,4.31A19.05,19.05,0,0,1,39,19.12c.35.38.7.76,1,1.16s.76,1,1.11,1.5a17.77,17.77,0,0,1,1,1.72A17,17,0,0,1,43,25.28a15.56,15.56,0,0,1,.57,1.62c0,.13.15.55.15.55s-1,.34-1.63.51L41,28.32A1.81,1.81,0,0,1,40.91,28Z"/><path class="cls-1" d="M37.88,33.49,35.7,35c-.14.1-.14.1-.27,0l-2.07-1.43-.1-.06a.57.57,0,0,0,0,.22v4.85c0,.15,0,.15-.16.15H31.77c-.15,0-.16,0-.16-.16v-6.2c0-.16,0-.16.16-.16H33.1a.41.41,0,0,1,.26.09l2.07,1.43c.14.09.14.09.27,0l2.07-1.43A.38.38,0,0,1,38,32.2h1.36c.1,0,.14,0,.13.13V38.5c0,.25,0,.22-.23.22H38.12c-.28,0-.24,0-.24-.25v-5Z"/><path class="cls-1" d="M48.71,37.12v1.6H47.22c-.08,0-.1,0-.1-.1v-1.4c0-.07,0-.11-.1-.11H45.69c-.11,0-.1.07-.1.14v1.23c0,.27,0,.24-.25.24H44.13c-.15,0-.15,0-.15-.15V37.26c0-.14,0-.14-.14-.14H43.2v-.79c0-.09.06-.09.12-.09h.5c.16,0,.16,0,.16-.15V34.51c0-.31,0-.62,0-.93a.94.94,0,0,1,.5-.91,3.12,3.12,0,0,1,1.43-.45,5,5,0,0,1,1,0,2.88,2.88,0,0,1,1.4.52.91.91,0,0,1,.39.79c0,.82,0,1.63,0,2.45a.49.49,0,0,1,0,.12c0,.11,0,.14.15.13h.48c.17,0,.17,0,.17.16V37c0,.08,0,.11-.1.11Zm-3.12-.88H47c.17,0,.17,0,.17-.18,0-.83,0-1.67,0-2.5a.41.41,0,0,0-.26-.41,1.23,1.23,0,0,0-.94,0c-.28.11-.33.18-.33.48v2.64Z"/><path class="cls-1" d="M13.11,33a9.49,9.49,0,0,0-1.33.15,4.17,4.17,0,0,0-2,1,1.72,1.72,0,0,0-.61,1.35,1.69,1.69,0,0,0,.47,1.12,3.68,3.68,0,0,0,1.28.85,4.73,4.73,0,0,0,.88.28,7.35,7.35,0,0,0,1.14.12c.14,0,.14,0,.14.14v.69a5.58,5.58,0,0,1-1.16,0c-.28,0-.55-.08-.83-.14a6.86,6.86,0,0,1-1.69-.62A5,5,0,0,1,8.25,37a2.29,2.29,0,0,1-.64-1.23,2.1,2.1,0,0,1,.3-1.48,3.63,3.63,0,0,1,1.15-1.09,6,6,0,0,1,1.78-.77,6.83,6.83,0,0,1,1.62-.25l.55,0c.07,0,.11,0,.1.1Z"/><path class="cls-1" d="M22.43,33a8.67,8.67,0,0,0-1.27.13,4.62,4.62,0,0,0-1.38.52,3.21,3.21,0,0,0-.9.74,1.65,1.65,0,0,0,.06,2.16,3.59,3.59,0,0,0,1.55,1,5.54,5.54,0,0,0,1.8.31c.1,0,.15,0,.15.13a5.81,5.81,0,0,0,0,.59c0,.1,0,.12-.14.12A8.62,8.62,0,0,1,21,38.63a6.92,6.92,0,0,1-1.67-.47,4.59,4.59,0,0,1-1.91-1.33,2.11,2.11,0,0,1-.44-1.78,2.54,2.54,0,0,1,1-1.54,6,6,0,0,1,2.36-1.08,6.86,6.86,0,0,1,1.49-.21l.49,0c.06,0,.11,0,.11.1Z"/><path class="cls-1" d="M26.23,35.46V32.31c0-.08,0-.11.1-.11h1.41c.08,0,.12,0,.11.1v6.2c0,.24,0,.22-.22.22H26.4c-.17,0-.17,0-.17-.18Z"/><path class="cls-1" d="M28.46,56.43A27.94,27.94,0,1,1,56.4,28.5,28,28,0,0,1,28.46,56.43Zm0-54.52A26.59,26.59,0,1,0,55,28.5,26.62,26.62,0,0,0,28.46,1.91Z"/><path class="cls-1" d="M20.6,64.62a3.55,3.55,0,0,0-.85-.6,2.81,2.81,0,0,0-1.11-.25,2.67,2.67,0,0,0,0,5.34,2.76,2.76,0,0,0,1.2-.3,3.08,3.08,0,0,0,.75-.54v.89a3.41,3.41,0,0,1-2,.63,3.35,3.35,0,1,1,0-6.7,3.08,3.08,0,0,1,1.91.64Z"/><path class="cls-1" d="M26.51,64.62a3.55,3.55,0,0,0-.85-.6,2.81,2.81,0,0,0-1.11-.25,2.67,2.67,0,0,0,0,5.34,2.76,2.76,0,0,0,1.2-.3,3.08,3.08,0,0,0,.75-.54v.89a3.41,3.41,0,0,1-2,.63,3.35,3.35,0,1,1,0-6.7,3.08,3.08,0,0,1,1.91.64Z"/><path class="cls-1" d="M28.19,63.2v6.47h-.72V63.2Z"/><path class="cls-1" d="M29.27,69.67l1.08-6.83,2.48,5.46,2.54-5.47,1,6.84h-.74L35,65.17,32.83,70l-2.18-4.78L30,69.67Z"/><path class="cls-1" d="M41.08,67.85H38.33l-.78,1.82h-.8l3-6.78,2.91,6.78h-.8Zm-.28-.68-1.09-2.59-1.1,2.59Z"/><path class="cls-1" d="M19,77.68H16.12l-.74,1.62h-1.1l3.34-7.1,3.18,7.1H19.69Zm-.42-1-1-2.28-1,2.28Z"/><path class="cls-1" d="M24.75,76.36a1.67,1.67,0,0,0-1.2-.52,1.3,1.3,0,0,0-.94.37,1.37,1.37,0,0,0-.36,1,1.44,1.44,0,0,0,.38,1,1.32,1.32,0,0,0,.9.34A1.64,1.64,0,0,0,24.75,78v1.1a2.35,2.35,0,0,1-1.29.33,2.07,2.07,0,0,1-1.61-.62,2.21,2.21,0,0,1-.6-1.59,2.26,2.26,0,0,1,.64-1.64,2.31,2.31,0,0,1,1.7-.63,2.22,2.22,0,0,1,1.16.31Z"/><path class="cls-1" d="M29,76.36a1.67,1.67,0,0,0-1.2-.52,1.3,1.3,0,0,0-.94.37,1.37,1.37,0,0,0-.36,1,1.44,1.44,0,0,0,.38,1,1.32,1.32,0,0,0,.9.34A1.64,1.64,0,0,0,29,78v1.1a2.35,2.35,0,0,1-1.29.33,2.07,2.07,0,0,1-1.61-.62,2.21,2.21,0,0,1-.6-1.59,2.26,2.26,0,0,1,.64-1.64,2.31,2.31,0,0,1,1.7-.63,2.22,2.22,0,0,1,1.16.31Z"/><path class="cls-1" d="M33.72,78.34a2.21,2.21,0,0,1-.71.77,2.35,2.35,0,0,1-1.25.32,1.89,1.89,0,0,1-1.43-.54,2.28,2.28,0,0,1-.62-1.62,2.49,2.49,0,0,1,.67-1.74A2,2,0,0,1,31.8,75a1.84,1.84,0,0,1,1.36.56,2.55,2.55,0,0,1,.59,1.79v.12h-3a1.4,1.4,0,0,0,.37.86,1,1,0,0,0,.75.27,1,1,0,0,0,.67-.21,1.46,1.46,0,0,0,.4-.47Zm-1-1.72a1,1,0,0,0-.31-.58,1,1,0,0,0-1.35,0,1,1,0,0,0-.31.55Z"/><path class="cls-1" d="M36.63,76.18a.71.71,0,0,0-.6-.36.42.42,0,0,0-.3.11.32.32,0,0,0-.09.22.27.27,0,0,0,.14.24l.33.18.5.25a1.94,1.94,0,0,1,.6.39,1,1,0,0,1,.31.78,1.4,1.4,0,0,1-.37,1,1.52,1.52,0,0,1-1.19.47,1.49,1.49,0,0,1-.92-.27,1.64,1.64,0,0,1-.54-.77l.81-.39a1.07,1.07,0,0,0,.23.41.6.6,0,0,0,.43.16.59.59,0,0,0,.4-.14.5.5,0,0,0,.14-.34.45.45,0,0,0-.13-.32,1.29,1.29,0,0,0-.42-.26l-.36-.17A2.28,2.28,0,0,1,35,77a.94.94,0,0,1-.3-.72,1.31,1.31,0,0,1,.35-.9,1.4,1.4,0,0,1,1-.41,1.31,1.31,0,0,1,.79.23,1.45,1.45,0,0,1,.48.52Z"/><path class="cls-1" d="M40.26,76.18a.71.71,0,0,0-.6-.36.44.44,0,0,0-.31.11.32.32,0,0,0-.09.22.26.26,0,0,0,.15.24l.33.18.5.25a2,2,0,0,1,.59.39,1,1,0,0,1,.32.78,1.37,1.37,0,0,1-.38,1,1.5,1.5,0,0,1-1.18.47,1.46,1.46,0,0,1-.92-.27,1.64,1.64,0,0,1-.54-.77l.8-.39a1.07,1.07,0,0,0,.23.41.61.61,0,0,0,.44.16.59.59,0,0,0,.4-.14.5.5,0,0,0,.14-.34.45.45,0,0,0-.13-.32,1.29,1.29,0,0,0-.42-.26l-.37-.17a2.08,2.08,0,0,1-.58-.36.94.94,0,0,1-.3-.72,1.31,1.31,0,0,1,.35-.9,1.37,1.37,0,0,1,1-.41,1.26,1.26,0,0,1,.78.23,1.55,1.55,0,0,1,.49.52Z"/></svg>