<svg id="Capa_1" data-name="Capa 1" xmlns="http://www.w3.org/2000/svg" viewBox="0 0 57.75 68.07"><defs><style>.cls-1{fill:#fff;}</style></defs><path class="cls-1" d="M.39,67l1.2-7.62,2.77,6.1,2.83-6.11L8.31,67H7.49l-.68-5L4.35,67.28,1.93,62l-.72,5Z"/><path class="cls-1" d="M12.82,62.48h.78V67h-.78v-.63a1.87,1.87,0,0,1-1.53.76,2.37,2.37,0,0,1,0-4.73,1.85,1.85,0,0,1,1.53.75ZM9.9,64.72a1.5,1.5,0,0,0,1.47,1.69,1.69,1.69,0,0,0,0-3.35A1.5,1.5,0,0,0,9.9,64.72Z"/><path class="cls-1" d="M14.67,62.48h.78V63a1.57,1.57,0,0,1,1.29-.63A1.53,1.53,0,0,1,18,63a2,2,0,0,1,.26,1.2V67h-.78V64.21a1.28,1.28,0,0,0-.21-.82.86.86,0,0,0-.73-.33,1,1,0,0,0-.79.35,1.86,1.86,0,0,0-.33,1.21V67h-.78Z"/><path class="cls-1" d="M20.16,63.19V67h-.78V63.19H18.9v-.71h.48V60.85h.78v1.63h.78v.71Z"/><path class="cls-1" d="M25.26,65.83a3.06,3.06,0,0,1-.55.72,2.19,2.19,0,0,1-1.5.55A2.15,2.15,0,0,1,21,64.75a2.18,2.18,0,0,1,2.18-2.38,2,2,0,0,1,1.7.82,3.06,3.06,0,0,1,.42,1.69h-3.5a1.44,1.44,0,0,0,1.43,1.53,1.39,1.39,0,0,0,.92-.32,1.92,1.92,0,0,0,.47-.62Zm-.77-1.6a1.35,1.35,0,0,0-1.32-1.17,1.37,1.37,0,0,0-1.32,1.17Z"/><path class="cls-1" d="M26.08,62.48h.78V63a1.57,1.57,0,0,1,1.29-.63,1.51,1.51,0,0,1,1.28.62,2,2,0,0,1,.26,1.2V67h-.78V64.21a1.34,1.34,0,0,0-.2-.82.87.87,0,0,0-.74-.33,1,1,0,0,0-.79.35,1.91,1.91,0,0,0-.32,1.21V67h-.78Z"/><path class="cls-1" d="M31.15,60.23a.55.55,0,0,1,0,1.1.55.55,0,0,1,0-1.1Zm.39,2.25V67h-.78V62.48Z"/><path class="cls-1" d="M32.61,62.48h.78V63a1.31,1.31,0,0,1,1.12-.59,1.33,1.33,0,0,1,1.22.73,1.49,1.49,0,0,1,1.36-.73c1.33,0,1.46,1.12,1.46,1.75V67h-.78V64.24c0-.51-.07-1.18-.8-1.18-.9,0-1,.87-1,1.41V67h-.78V64.31c0-.32,0-1.25-.81-1.25s-1,.92-1,1.47V67h-.78Z"/><path class="cls-1" d="M40,60.23a.55.55,0,1,1-.56.55A.55.55,0,0,1,40,60.23Zm.39,2.25V67h-.78V62.48Z"/><path class="cls-1" d="M45.46,65.83a2.82,2.82,0,0,1-.55.72,2.33,2.33,0,1,1-1.54-4.18,2,2,0,0,1,1.7.82,3.06,3.06,0,0,1,.42,1.69H42a1.44,1.44,0,0,0,1.43,1.53,1.41,1.41,0,0,0,.92-.32,2,2,0,0,0,.46-.62Zm-.77-1.6a1.35,1.35,0,0,0-1.32-1.17,1.37,1.37,0,0,0-1.32,1.17Z"/><path class="cls-1" d="M46.28,62.48h.78V63a1.57,1.57,0,0,1,1.29-.63,1.53,1.53,0,0,1,1.29.62,2,2,0,0,1,.26,1.2V67h-.78V64.21a1.28,1.28,0,0,0-.21-.82.86.86,0,0,0-.73-.33,1,1,0,0,0-.79.35,1.86,1.86,0,0,0-.33,1.21V67h-.78Z"/><path class="cls-1" d="M51.77,63.19V67H51V63.19h-.48v-.71H51V60.85h.78v1.63h.78v.71Z"/><path class="cls-1" d="M52.6,64.74A2.38,2.38,0,1,1,55,67.1,2.31,2.31,0,0,1,52.6,64.74Zm.8,0A1.58,1.58,0,1,0,55,63.06,1.56,1.56,0,0,0,53.4,64.74Z"/><path class="cls-1" d="M28.76,56.67A27.94,27.94,0,1,1,56.7,28.73,28,28,0,0,1,28.76,56.67Zm0-54.52A26.59,26.59,0,1,0,55.35,28.73,26.61,26.61,0,0,0,28.76,2.15Z"/><path class="cls-1" d="M38.84,45.72A6.36,6.36,0,0,1,33,42.15a7,7,0,0,1-.42-4.06.84.84,0,0,0-.27-.83C31.19,36.17,30.11,35.07,29,34c-.3-.29-.31-.48,0-.78q1.63-1.59,3.23-3.23c.28-.29.47-.26.74,0,1.08,1.1,2.18,2.18,3.26,3.28a.94.94,0,0,0,.84.28,11.08,11.08,0,0,1,3,0,5.76,5.76,0,0,1,3.86,3,5.49,5.49,0,0,1,.77,3.26,12.87,12.87,0,0,1-.56,2.26c-.11.35-.53.35-.88,0-.67-.65-1.33-1.32-2-2S40.18,39,39.62,38.5A1.55,1.55,0,0,0,38,38.13a1.45,1.45,0,0,0-.91,1.61,2.05,2.05,0,0,0,.53,1c1.13,1.17,2.29,2.3,3.44,3.45.4.41.44.77.09,1a2.5,2.5,0,0,1-.74.3C39.79,45.56,39.2,45.65,38.84,45.72Z"/><path class="cls-1" d="M12.85,19.73c.13-.51.33-1.35.58-2.17.12-.38.51-.42.86-.1s.76.75,1.14,1.13c.83.83,1.65,1.67,2.49,2.48a1.51,1.51,0,1,0,2.13-2.14c-1.12-1.14-2.27-2.27-3.4-3.41-.13-.13-.32-.27-.33-.42s.06-.57.18-.62A6.12,6.12,0,0,1,24.38,17a5.83,5.83,0,0,1,.77,3.44c0,.43-.14.86-.14,1.29a.93.93,0,0,0,.28.59c1,1,1.93,2,2.91,2.92.29.28.33.44,0,.75q-1.66,1.61-3.27,3.26c-.26.27-.42.27-.68,0-1-1-1.94-1.94-2.9-2.92a1,1,0,0,0-.84-.28,11.08,11.08,0,0,1-3,0,5.78,5.78,0,0,1-3.84-3A7.1,7.1,0,0,1,12.85,19.73Z"/><path class="cls-1" d="M34.34,21.79a1.32,1.32,0,0,1-.21-1.74A2,2,0,0,0,34,17.92a5.23,5.23,0,0,0-3.21-2.45c-.69-.22-1.41-.37-2.11-.57a3.22,3.22,0,0,1-.62-.33,4.1,4.1,0,0,1,1-.35,15.36,15.36,0,0,1,2.88.08,11.12,11.12,0,0,1,4.67,2.23A16.39,16.39,0,0,1,41.09,21a5.22,5.22,0,0,1,.87,2.2,3.64,3.64,0,0,0,.69,1.3.7.7,0,0,0,.48-.14c.78-.66,1.5-.3,1.69.41a1.26,1.26,0,0,1-.28,1c-.72.81-1.5,1.57-2.29,2.31a1,1,0,0,1-1.65-.19.92.92,0,0,1,.22-1.22c.18-.19.22-.34,0-.5-.68-.5-1.36-1-2.06-1.49a1,1,0,0,0-.65-.15,1.4,1.4,0,0,1-1.29-.37c-.27-.29-.44-.18-.66,0-1.83,1.84-3.67,3.67-5.5,5.5-1,1-2.09,2.06-3.12,3.12-.29.3-.46.3-.75,0-.53-.62-1.12-1.19-1.7-1.8Z"/><path class="cls-1" d="M26.53,34.25a3.48,3.48,0,0,1-.35.67c-3,3.37-6,6.71-9,10.1a1,1,0,0,1-1.65,0c-.77-.84-1.6-1.61-2.4-2.42-.6-.6-.6-1,0-1.54l7.28-6.52c.94-.85,1.88-1.71,2.83-2.55a1,1,0,0,1,1.51,0c.48.46,1,.92,1.41,1.42A3.44,3.44,0,0,1,26.53,34.25Z"/></svg>