<svg id="Capa_1" data-name="Capa 1" xmlns="http://www.w3.org/2000/svg" viewBox="0 0 57.49 68.07"><defs><style>.cls-1{fill:#fff;}</style></defs><path class="cls-1" d="M4.07,64.57a2.08,2.08,0,0,0,.57,1.76,2,2,0,0,0,1.2.41A2,2,0,0,0,7,66.33a2.08,2.08,0,0,0,.57-1.76V60.14h.8v4.65A2.77,2.77,0,0,1,8,66.52a2.55,2.55,0,0,1-2.11,1,2.57,2.57,0,0,1-2.12-1,2.77,2.77,0,0,1-.45-1.73V60.14h.8Z"/><path class="cls-1" d="M9.66,62.87h.78v.49a1.27,1.27,0,0,1,1-.6,1.66,1.66,0,0,1,.7.19l-.37.7a.82.82,0,0,0-.46-.15.77.77,0,0,0-.63.28A2,2,0,0,0,10.44,65v2.37H9.66Z"/><path class="cls-1" d="M13.25,67.37h-.78v-7.9h.78v4a1.93,1.93,0,0,1,1.53-.74A2.23,2.23,0,0,1,17,65.15a2.19,2.19,0,0,1-2.15,2.35,1.9,1.9,0,0,1-1.57-.76Zm2.92-2.22a1.54,1.54,0,0,0-1.47-1.69,1.56,1.56,0,0,0-1.5,1.68,1.53,1.53,0,0,0,1.51,1.66A1.51,1.51,0,0,0,16.17,65.15Z"/><path class="cls-1" d="M21.2,62.87H22v4.5H21.2v-.63a1.9,1.9,0,0,1-1.54.76,2.38,2.38,0,0,1,0-4.74,1.85,1.85,0,0,1,1.54.75Zm-2.92,2.25a1.5,1.5,0,0,0,1.47,1.68,1.68,1.68,0,0,0,0-3.34A1.49,1.49,0,0,0,18.28,65.12Z"/><path class="cls-1" d="M23.05,62.87h.78v.52a1.59,1.59,0,0,1,1.29-.63,1.53,1.53,0,0,1,1.29.62,2.08,2.08,0,0,1,.26,1.2v2.79h-.78V64.61a1.31,1.31,0,0,0-.21-.83.89.89,0,0,0-.73-.32,1,1,0,0,0-.8.34A1.92,1.92,0,0,0,23.83,65v2.35h-.78Z"/><path class="cls-1" d="M28.13,60.62a.56.56,0,1,1-.56.55A.55.55,0,0,1,28.13,60.62Zm.39,2.25v4.5h-.78v-4.5Z"/><path class="cls-1" d="M30.5,66.65h3.11v.72H28.94l3.25-3.78H29.56v-.72h4.18Z"/><path class="cls-1" d="M37.5,62.87h.78v4.5H37.5v-.63A1.92,1.92,0,0,1,36,67.5a2.38,2.38,0,0,1,0-4.74,1.87,1.87,0,0,1,1.54.75Zm-2.93,2.25a1.5,1.5,0,0,0,1.48,1.68,1.68,1.68,0,0,0,0-3.34A1.5,1.5,0,0,0,34.57,65.12Z"/><path class="cls-1" d="M42.87,64.13a1.83,1.83,0,0,0-1.41-.67,1.67,1.67,0,0,0,0,3.34,1.91,1.91,0,0,0,1.45-.7V67a2.4,2.4,0,0,1-1.43.47,2.37,2.37,0,1,1,0-4.74,2.42,2.42,0,0,1,1.4.44Z"/><path class="cls-1" d="M44.08,60.62a.56.56,0,1,1-.56.55A.55.55,0,0,1,44.08,60.62Zm.39,2.25v4.5h-.78v-4.5Z"/><path class="cls-1" d="M45.26,65.14a2.38,2.38,0,1,1,2.38,2.36A2.31,2.31,0,0,1,45.26,65.14Zm.8,0a1.58,1.58,0,1,0,1.58-1.68A1.55,1.55,0,0,0,46.06,65.14Zm3-4.62L47.66,62l-.49-.26,1.14-1.57Z"/><path class="cls-1" d="M50.81,62.87h.78v.52a1.59,1.59,0,0,1,1.28-.63,1.53,1.53,0,0,1,1.29.62,2,2,0,0,1,.26,1.2v2.79h-.78V64.61a1.37,1.37,0,0,0-.2-.83.89.89,0,0,0-.74-.32,1,1,0,0,0-.79.34A1.92,1.92,0,0,0,51.59,65v2.35h-.78Z"/><path class="cls-1" d="M28.75,57A28.2,28.2,0,1,1,56.94,28.77,28.23,28.23,0,0,1,28.75,57Zm0-55A26.85,26.85,0,1,0,55.59,28.77,26.89,26.89,0,0,0,28.75,1.92Z"/><path class="cls-1" d="M37.11,10.13h-14L11.35,44.27h34.8ZM29.46,42.56l-1,0,.25-8.24,1,0Zm.33-10.91-1,0L29,23.37l1,0Zm.33-10.54-1,0,.25-8.24,1,0Z"/><rect class="cls-1" x="11.35" y="44.56" width="34.8" height="1.12"/><line class="cls-1" x1="10.26" y1="44.27" x2="22.32" y2="10.13"/><line class="cls-1" x1="37.78" y1="10.13" x2="47.57" y2="44.27"/></svg>